{
.appVersion = "1352";
classes = (
{
automatic = 1;
code = "A Aacute Abreve Acircumflex Adieresis Agrave Amacron Aogonek Aring Atilde AE B C Cacute Ccaron Ccedilla Cdotaccent D Eth Dcaron Dcroat E Eacute Ecaron Ecircumflex Edieresis Edotaccent Egrave Emacron Eogonek F G Gbreve Gcommaaccent Gdotaccent H Hbar I IJ Iacute Icircumflex Idieresis Idotaccent Igrave Imacron Iogonek J K Kcommaaccent L Lacute Lcaron Lcommaaccent Lslash M N Nacute Ncaron Ncommaaccent Eng Ntilde O Oacute Ocircumflex Odieresis Ograve Ohungarumlaut Omacron Oslash Otilde OE P Thorn Q R Racute Rcaron Rcommaaccent S Sacute Scaron Scedilla Scommaaccent Germandbls T Tbar Tcaron Tcedilla Tcommaaccent U Uacute Ucircumflex Udieresis Ugrave Uhungarumlaut Umacron Uogonek Uring V W Wacute Wcircumflex Wdieresis Wgrave X Y Yacute Ycircumflex Ydieresis Ygrave Z Zacute Zcaron Zdotaccent A-cy Be-cy Ve-cy Ge-cy Gje-cy Gheupturn-cy De-cy Ie-cy Iegrave-cy Io-cy Zhe-cy Ze-cy Ii-cy Iishort-cy Iigrave-cy Ka-cy Kje-cy El-cy Em-cy En-cy O-cy Pe-cy Er-cy Es-cy Te-cy U-cy Ushort-cy Ef-cy Ha-cy Che-cy Tse-cy Sha-cy Shcha-cy Dzhe-cy Softsign-cy Hardsign-cy Yeru-cy Lje-cy Nje-cy Dze-cy E-cy Ereversed-cy I-cy Yi-cy Je-cy Tshe-cy Iu-cy Ia-cy Dje-cy Palochka-cy Imacron-cy Umacron-cy De-cy.loclRUS El-cy.loclRUS Ef-cy.loclRUS Lje-cy.loclRUS Alpha Beta Gamma Delta Epsilon Zeta Eta Theta Iota Kappa Lambda Mu Nu Xi Omicron Pi Rho Sigma Tau Upsilon Phi Chi Psi Omega Alphatonos Epsilontonos Etatonos Iotatonos Omicrontonos Upsilontonos Omegatonos Iotadieresis Upsilondieresis";
name = Uppercase;
}
);
copyright = "Copyright 2019 The Sofia Sans Project Authors (https://github.com/lettersoup/Sofia-Sans)";
customParameters = (
{
name = fsType;
value = (
);
},
{
name = "Use Typo Metrics";
value = 1;
},
{
name = "Use Extension Kerning";
value = 1;
},
{
name = "Enforce Compatibility Check";
value = 1;
},
{
name = licenseURL;
value = "https://scripts.sil.org/OFL";
},
{
name = license;

glyphs = (
{
glyphname = A;
lastChange = "2020-01-15 12:57:37 +0000";
layers = (
{
anchors = (
{
name = bottom;
position = "{283, 0}";
},
{
name = ogonek;
position = "{593, 10}";
},
{
name = top;
position = "{387, 655}";
},
{
name = topleft;
position = "{222, 655}";
}
);
layerId = UUID0;
paths = (
{
closed = 1;
nodes = (
"146 0 LINE SMOOTH",
"155 0 OFFCURVE",
"162 6 OFFCURVE",
"166 15 CURVE SMOOTH",
"303 348 LINE SMOOTH",
"324 399 OFFCURVE",
"344 449 OFFCURVE",
"360 500 CURVE",
"363 500 LINE",
"364 450 OFFCURVE",
"368 400 OFFCURVE",
"373 350 CURVE SMOOTH",
"406 15 LINE SMOOTH",
"407 6 OFFCURVE",
"411 0 OFFCURVE",
"421 0 CURVE SMOOTH",
"588 0 LINE SMOOTH",
"597 0 OFFCURVE",
"603 5 OFFCURVE",
"601 15 CURVE SMOOTH",
"500 640 LINE SMOOTH",
"498 650 OFFCURVE",
"493 655 OFFCURVE",
"484 655 CURVE SMOOTH",
"286 655 LINE SMOOTH",
"278 655 OFFCURVE",
"272 649 OFFCURVE",
"268 640 CURVE SMOOTH",
"-32 15 LINE SMOOTH",
"-36 7 OFFCURVE",
"-33 0 OFFCURVE",
"-25 0 CURVE SMOOTH"
);
},
{
closed = 1;
nodes = (
"418 107 LINE",
"412 251 LINE",
"227 251 LINE",
"178 107 LINE"
);
}
);
width = 624;
},
{
anchors = (
{
name = bottom;
position = "{242, 0}";
},
{
name = ogonek;
position = "{497, 10}";
},
{
name = top;
position = "{340, 655}";
},
{
name = topleft;
position = "{235, 655}";
}
);
layerId = "8E001827-4555-4882-9710-42A9586BB804";
paths = (
{
closed = 1;
nodes = (
"-4 0 LINE SMOOTH",
"-2 0 OFFCURVE",
"-1 0 OFFCURVE",
"0 2 CURVE SMOOTH",
"289 546 LINE SMOOTH",
"306 577 OFFCURVE",
"322 609 OFFCURVE",
"337 640 CURVE",
"338 640 LINE",
"345 608 OFFCURVE",
"351 579 OFFCURVE",
"357 549 CURVE SMOOTH",
"473 3 LINE SMOOTH",
"474 0 OFFCURVE",
"475 0 OFFCURVE",
"477 0 CURVE SMOOTH",
"485 0 LINE SMOOTH",
"488 0 OFFCURVE",
"490 0 OFFCURVE",
"489 4 CURVE SMOOTH",
"351 652 LINE SMOOTH",
"350 655 OFFCURVE",
"349 655 OFFCURVE",
"347 655 CURVE SMOOTH",
"331 655 LINE SMOOTH",
"329 655 OFFCURVE",
"328 655 OFFCURVE",
"326 651 CURVE SMOOTH",
"-17 3 LINE SMOOTH",
"-18 1 OFFCURVE",
"-17 0 OFFCURVE",
"-15 0 CURVE SMOOTH"
);
},
{
closed = 1;
nodes = (
"436 191 LINE",
"433 207 LINE",
"102 207 LINE",
"93 191 LINE"
);
}
);
width = 529;
},
{
anchors = (
{
name = bottom;
position = "{236, 0}";
},
{
name = ogonek;
position = "{532, 10}";
},
{
name = top;
position = "{345, 655}";
},
{
name = topleft;
position = "{240, 655}";
}
);
layerId = "0382B793-66DA-492C-99CF-A998862EA4E0";
paths = (
{
closed = 1;
nodes = (
"47 0 LINE SMOOTH",
"53 0 OFFCURVE",
"57 4 OFFCURVE",
"60 10 CURVE SMOOTH",
"264 431 LINE SMOOTH",
"288 481 OFFCURVE",
"311 529 OFFCURVE",
"334 578 CURVE",
"336 578 LINE",
"343 529 OFFCURVE",
"352 476 OFFCURVE",
"360 430 CURVE SMOOTH",
"431 10 LINE SMOOTH",
"432 4 OFFCURVE",
"435 0 OFFCURVE",
"441 0 CURVE SMOOTH",
"511 0 LINE SMOOTH",
"518 0 OFFCURVE",
"521 4 OFFCURVE",
"520 11 CURVE SMOOTH",
"401 645 LINE SMOOTH",
"400 651 OFFCURVE",
"397 655 OFFCURVE",
"391 655 CURVE SMOOTH",
"300 655 LINE SMOOTH",
"294 655 OFFCURVE",
"292 651 OFFCURVE",
"289 645 CURVE SMOOTH",
"-27 10 LINE SMOOTH",
"-30 3 OFFCURVE",
"-28 0 OFFCURVE",
"-21 0 CURVE SMOOTH"
);
},
{
closed = 1;
nodes = (
"423 153 LINE",
"413 227 LINE",
"146 227 LINE",
"114 153 LINE"
);
}
);
width = 549;
}
);
leftKerningGroup = A;
rightKerningGroup = A;
unicode = 0041;
},
{
glyphname = Aring;
lastChange = "2020-01-15 12:57:37 +0000";
layers = (
{
layerId = UUID0;
paths = (
{
closed = 1;
nodes = (
"146 0 LINE SMOOTH",
"155 0 OFFCURVE",
"162 6 OFFCURVE",
"166 15 CURVE SMOOTH",
"204 107 LINE",
"397 107 LINE",
"406 15 LINE SMOOTH",
"407 6 OFFCURVE",
"411 0 OFFCURVE",
"421 0 CURVE SMOOTH",
"588 0 LINE SMOOTH",
"597 0 OFFCURVE",
"603 5 OFFCURVE",
"601 15 CURVE",
"506 605 LINE",
"521 627 OFFCURVE",
"529 655 OFFCURVE",
"529 688 CURVE SMOOTH",
"529 755 OFFCURVE",
"480 799 OFFCURVE",
"403 799 CURVE SMOOTH",
"302 799 OFFCURVE",
"250 749 OFFCURVE",
"250 660 CURVE SMOOTH",
"250 644 OFFCURVE",
"252 630 OFFCURVE",
"257 617 CURVE",
"-32 15 LINE SMOOTH",
"-36 7 OFFCURVE",
"-33 0 OFFCURVE",
"-25 0 CURVE SMOOTH"
);
},
{
closed = 1;
nodes = (
"303 348 LINE SMOOTH",
"324 399 OFFCURVE",
"344 449 OFFCURVE",
"360 500 CURVE",
"363 500 LINE",
"364 450 OFFCURVE",
"368 400 OFFCURVE",
"373 350 CURVE SMOOTH",
"383 251 LINE",
"263 251 LINE"
);
},
{
closed = 1;
nodes = (
"367 629 OFFCURVE",
"357 642 OFFCURVE",
"357 667 CURVE SMOOTH",
"357 700 OFFCURVE",
"370 719 OFFCURVE",
"392 719 CURVE SMOOTH",
"412 719 OFFCURVE",
"422 706 OFFCURVE",
"422 681 CURVE SMOOTH",
"422 648 OFFCURVE",
"409 629 OFFCURVE",
"387 629 CURVE SMOOTH"
);
}
);
width = 624;
},
{
layerId = "8E001827-4555-4882-9710-42A9586BB804";
paths = (
{
closed = 1;
nodes = (
"-4 0 LINE SMOOTH",
"-2 0 OFFCURVE",
"-1 0 OFFCURVE",
"0 2 CURVE SMOOTH",
"100 191 LINE",
"433 191 LINE",
"473 3 LINE",
"474 0 OFFCURVE",
"475 0 OFFCURVE",
"477 0 CURVE SMOOTH",
"485 0 LINE SMOOTH",
"488 0 OFFCURVE",
"490 0 OFFCURVE",
"489 4 CURVE",
"353 642 LINE",
"404 647 OFFCURVE",
"435 681 OFFCURVE",
"435 732 CURVE SMOOTH",
"435 776 OFFCURVE",
"406 803 OFFCURVE",
"357 803 CURVE SMOOTH",
"297 803 OFFCURVE",
"261 768 OFFCURVE",
"261 712 CURVE SMOOTH",
"261 674 OFFCURVE",
"283 648 OFFCURVE",
"321 642 CURVE",
"-17 3 LINE SMOOTH",
"-18 1 OFFCURVE",
"-17 0 OFFCURVE",
"-15 0 CURVE SMOOTH"
);
},
{
closed = 1;
nodes = (
"289 546 LINE SMOOTH",
"306 577 OFFCURVE",
"322 609 OFFCURVE",
"337 640 CURVE",
"338 640 LINE",
"345 608 OFFCURVE",
"351 579 OFFCURVE",
"357 549 CURVE SMOOTH",
"430 207 LINE",
"109 207 LINE"
);
},
{
closed = 1;
nodes = (
"300 657 OFFCURVE",
"277 676 OFFCURVE",
"277 712 CURVE SMOOTH",
"277 760 OFFCURVE",
"304 787 OFFCURVE",
"355 787 CURVE SMOOTH",
"396 787 OFFCURVE",
"419 768 OFFCURVE",
"419 732 CURVE SMOOTH",
"419 684 OFFCURVE",
"391 657 OFFCURVE",
"341 657 CURVE SMOOTH"
);
}
);
width = 529;
},
{
layerId = "0382B793-66DA-492C-99CF-A998862EA4E0";
paths = (
{
closed = 1;
nodes = (
"47 0 LINE SMOOTH",
"53 0 OFFCURVE",
"57 4 OFFCURVE",
"60 10 CURVE SMOOTH",
"129 153 LINE",
"407 153 LINE",
"431 10 LINE SMOOTH",
"432 4 OFFCURVE",
"435 0 OFFCURVE",
"441 0 CURVE SMOOTH",
"511 0 LINE SMOOTH",
"518 0 OFFCURVE",
"521 4 OFFCURVE",
"520 11 CURVE",
"405 623 LINE",
"438 641 OFFCURVE",
"457 672 OFFCURVE",
"457 715 CURVE SMOOTH",
"457 767 OFFCURVE",
"420 799 OFFCURVE",
"359 799 CURVE SMOOTH",
"285 799 OFFCURVE",
"240 759 OFFCURVE",
"240 693 CURVE SMOOTH",
"240 661 OFFCURVE",
"254 637 OFFCURVE",
"278 623 CURVE",
"-27 10 LINE",
"-30 3 OFFCURVE",
"-28 0 OFFCURVE",
"-21 0 CURVE SMOOTH"
);
},
{
closed = 1;
nodes = (
"264 431 LINE SMOOTH",
"288 481 OFFCURVE",
"311 529 OFFCURVE",
"334 578 CURVE",
"336 578 LINE",
"343 529 OFFCURVE",
"352 476 OFFCURVE",
"360 430 CURVE SMOOTH",
"394 227 LINE",
"165 227 LINE"
);
},
{
closed = 1;
nodes = (
"315 659 OFFCURVE",
"299 673 OFFCURVE",
"299 697 CURVE SMOOTH",
"299 729 OFFCURVE",
"319 749 OFFCURVE",
"353 749 CURVE SMOOTH",
"382 749 OFFCURVE",
"398 735 OFFCURVE",
"398 711 CURVE SMOOTH",
"398 679 OFFCURVE",
"378 659 OFFCURVE",
"344 659 CURVE SMOOTH"
);
}
);
width = 549;
}
);
leftKerningGroup = A;
leftMetricsKey = A;
rightKerningGroup = A;
rightMetricsKey = A;
unicode = 00C5;
},
{
glyphname = AE;
lastChange = "2020-01-15 12:57:37 +0000";
layers = (
{
anchors = (
{
name = bottom;
position = "{380, 0}";
},
{
name = top;
position = "{612, 655}";
}
);
layerId = UUID0;
paths = (
{
closed = 1;
nodes = (
"149 0 LINE SMOOTH",
"158 0 OFFCURVE",
"165 5 OFFCURVE",
"170 15 CURVE SMOOTH",
"215 107 LINE",
"353 107 LINE",
"338 15 LINE SMOOTH",
"336 5 OFFCURVE",
"341 0 OFFCURVE",
"350 0 CURVE SMOOTH",
"766 0 LINE SMOOTH",
"774 0 OFFCURVE",
"780 6 OFFCURVE",
"781 15 CURVE SMOOTH",
"801 146 LINE SMOOTH",
"802 154 OFFCURVE",
"796 160 OFFCURVE",
"788 160 CURVE SMOOTH",
"534 160 LINE",
"549 253 LINE",
"782 253 LINE SMOOTH",
"790 253 OFFCURVE",
"796 259 OFFCURVE",
"797 268 CURVE SMOOTH",
"816 389 LINE SMOOTH",
"818 399 OFFCURVE",
"812 404 OFFCURVE",
"803 404 CURVE SMOOTH",
"573 404 LINE",
"587 495 LINE",
"844 495 LINE SMOOTH",
"852 495 OFFCURVE",
"858 502 OFFCURVE",
"859 510 CURVE SMOOTH",
"880 640 LINE SMOOTH",
"882 650 OFFCURVE",
"875 655 OFFCURVE",
"866 655 CURVE SMOOTH",
"321 655 LINE SMOOTH",
"313 655 OFFCURVE",
"307 649 OFFCURVE",
"302 640 CURVE SMOOTH",
"-32 17 LINE SMOOTH",
"-37 7 OFFCURVE",
"-33 0 OFFCURVE",
"-24 0 CURVE SMOOTH"
);
},
{
closed = 1;
nodes = (
"351 379 LINE SMOOTH",
"378 432 OFFCURVE",
"397 474 OFFCURVE",
"417 520 CURVE",
"420 520 LINE",
"412 474 OFFCURVE",
"405 432 OFFCURVE",
"397 382 CURVE SMOOTH",
"376 251 LINE",
"287 251 LINE"
);
}
);
width = 847;
},
{
anchors = (
{
name = bottom;
position = "{382, 0}";
},
{
name = top;
position = "{613, 655}";
}
);
layerId = "8E001827-4555-4882-9710-42A9586BB804";
paths = (
{
closed = 1;
nodes = (
"-3 0 LINE SMOOTH",
"-1 0 OFFCURVE",
"0 0 OFFCURVE",
"1 2 CURVE SMOOTH",
"136 191 LINE",
"387 191 LINE",
"357 4 LINE SMOOTH",
"356 0 OFFCURVE",
"358 0 OFFCURVE",
"360 0 CURVE SMOOTH",
"699 0 LINE SMOOTH",
"702 0 OFFCURVE",
"703 0 OFFCURVE",
"704 3 CURVE SMOOTH",
"706 12 LINE SMOOTH",
"707 16 OFFCURVE",
"705 16 OFFCURVE",
"703 16 CURVE SMOOTH",
"375 16 LINE",
"425 328 LINE",
"729 328 LINE SMOOTH",
"732 328 OFFCURVE",
"733 328 OFFCURVE",
"734 331 CURVE SMOOTH",
"736 340 LINE SMOOTH",
"737 344 OFFCURVE",
"735 344 OFFCURVE",
"733 344 CURVE SMOOTH",
"428 344 LINE",
"474 639 LINE",
"800 639 LINE SMOOTH",
"803 639 OFFCURVE",
"804 639 OFFCURVE",
"805 642 CURVE SMOOTH",
"807 651 LINE SMOOTH",
"808 655 OFFCURVE",
"806 655 OFFCURVE",
"804 655 CURVE SMOOTH",
"454 655 LINE SMOOTH",
"450 655 OFFCURVE",
"449 654 OFFCURVE",
"446 650 CURVE SMOOTH",
"-17 3 LINE SMOOTH",
"-18 1 OFFCURVE",
"-17 0 OFFCURVE",
"-15 0 CURVE SMOOTH"
);
},
{
closed = 1;
nodes = (
"396 553 LINE SMOOTH",
"416 582 OFFCURVE",
"437 610 OFFCURVE",
"457 639 CURVE",
"458 639 LINE",
"453 609 OFFCURVE",
"449 580 OFFCURVE",
"444 550 CURVE SMOOTH",
"390 207 LINE",
"148 207 LINE"
);
}
);
width = 823;
},
{
anchors = (
{
name = bottom;
position = "{450, 0}";
},
{
name = top;
position = "{617, 655}";
}
);
layerId = "0382B793-66DA-492C-99CF-A998862EA4E0";
paths = (
{
closed = 1;
nodes = (
"49 0 LINE SMOOTH",
"55 0 OFFCURVE",
"58 3 OFFCURVE",
"61 8 CURVE SMOOTH",
"156 153 LINE",
"373 153 LINE",
"350 10 LINE SMOOTH",
"349 4 OFFCURVE",
"352 0 OFFCURVE",
"359 0 CURVE SMOOTH",
"708 0 LINE SMOOTH",
"714 0 OFFCURVE",
"717 4 OFFCURVE",
"718 10 CURVE SMOOTH",
"727 67 LINE SMOOTH",
"728 73 OFFCURVE",
"724 77 OFFCURVE",
"718 77 CURVE SMOOTH",
"444 77 LINE",
"478 296 LINE",
"732 296 LINE SMOOTH",
"738 296 OFFCURVE",
"741 300 OFFCURVE",
"742 306 CURVE SMOOTH",
"750 360 LINE SMOOTH",
"751 367 OFFCURVE",
"748 370 OFFCURVE",
"741 370 CURVE SMOOTH",
"490 370 LINE",
"523 578 LINE",
"800 578 LINE SMOOTH",
"806 578 OFFCURVE",
"809 582 OFFCURVE",
"810 588 CURVE SMOOTH",
"819 645 LINE SMOOTH",
"820 651 OFFCURVE",
"816 655 OFFCURVE",
"810 655 CURVE SMOOTH",
"410 655 LINE SMOOTH",
"402 655 OFFCURVE",
"397 651 OFFCURVE",
"393 645 CURVE SMOOTH",
"-26 12 LINE SMOOTH",
"-31 5 OFFCURVE",
"-28 0 OFFCURVE",
"-21 0 CURVE SMOOTH"
);
},
{
closed = 1;
nodes = (
"385 503 LINE SMOOTH",
"405 533 OFFCURVE",
"423 563 OFFCURVE",
"441 593 CURVE",
"443 593 LINE",
"438 562 OFFCURVE",
"432 531 OFFCURVE",
"427 500 CURVE SMOOTH",
"384 227 LINE",
"204 227 LINE"
);
}
);
width = 817;
}
);
leftKerningGroup = AE;
leftMetricsKey = A;
rightKerningGroup = E;
rightMetricsKey = E;
unicode = 00C6;
},
{
glyphname = B;
lastChange = "2020-01-15 12:57:37 +0000";
layers = (
{
layerId = UUID0;
paths = (
{
closed = 1;
nodes = (
"272 0 LINE SMOOTH",
"482.293 0 OFFCURVE",
"582 68.508 OFFCURVE",
"582 213 CURVE SMOOTH",
"582 284.986 OFFCURVE",
"544.866 330.102 OFFCURVE",
"475 343 CURVE",
"475 347 LINE",
"554.059 366.765 OFFCURVE",
"601 426 OFFCURVE",
"601 506 CURVE SMOOTH",
"601 606.799 OFFCURVE",
"522.067 655 OFFCURVE",
"357 655 CURVE SMOOTH",
"140 655 LINE SMOOTH",
"130.9 655 OFFCURVE",
"123.989 648.902 OFFCURVE",
"123 640 CURVE SMOOTH",
"24 15 LINE SMOOTH",
"22.951 5.561 OFFCURVE",
"27.4 0 OFFCURVE",
"36 0 CURVE SMOOTH"
);
},
{
closed = 1;
nodes = (
"245 263 LINE",
"315 263 LINE SMOOTH",
"376.22 263 OFFCURVE",
"399 249.441 OFFCURVE",
"399 213 CURVE SMOOTH",
"399 167.532 OFFCURVE",
"371.781 149 OFFCURVE",
"305 149 CURVE SMOOTH",
"227 149 LINE"
);
},
{
closed = 1;
nodes = (
"284 506 LINE",
"344 506 LINE SMOOTH",
"393.531 506 OFFCURVE",
"411 493.485 OFFCURVE",
"411 458 CURVE SMOOTH",
"411 417.312 OFFCURVE",
"382.667 395 OFFCURVE",
"331 395 CURVE SMOOTH",
"266 395 LINE"
);
}
);
width = 604;
},
{
layerId = "8E001827-4555-4882-9710-42A9586BB804";
paths = (
{
closed = 1;
nodes = (
"250 0 LINE SMOOTH",
"420.015 0 OFFCURVE",
"504 67.453 OFFCURVE",
"504 203 CURVE SMOOTH",
"504 278 OFFCURVE",
"458 324 OFFCURVE",
"381 339 CURVE",
"381 340 LINE",
"470 359 OFFCURVE",
"524 426.797 OFFCURVE",
"524 519 CURVE SMOOTH",
"524 611.531 OFFCURVE",
"461 655 OFFCURVE",
"331 655 CURVE SMOOTH",
"182 655 LINE SMOOTH",
"179 655 OFFCURVE",
"178 655 OFFCURVE",
"177 651 CURVE SMOOTH",
"74 4 LINE SMOOTH",
"73 0 OFFCURVE",
"75 0 OFFCURVE",
"77 0 CURVE SMOOTH"
);
},
{
closed = 1;
nodes = (
"142 330 LINE",
"325 330 LINE SMOOTH",
"426.438 330 OFFCURVE",
"488 281.279 OFFCURVE",
"488 201 CURVE SMOOTH",
"488 77.638 OFFCURVE",
"409.703 16 OFFCURVE",
"253 16 CURVE SMOOTH",
"92 16 LINE"
);
},
{
closed = 1;
nodes = (
"191 639 LINE",
"331 639 LINE SMOOTH",
"452 639 OFFCURVE",
"508 599.324 OFFCURVE",
"508 517 CURVE SMOOTH",
"508 416.877 OFFCURVE",
"432.149 346 OFFCURVE",
"325 346 CURVE SMOOTH",
"145 346 LINE"
);
}
);
width = 565;
},
{
layerId = "0382B793-66DA-492C-99CF-A998862EA4E0";
paths = (
{
closed = 1;
nodes = (
"240 0 LINE SMOOTH",
"408 0 OFFCURVE",
"519 58 OFFCURVE",
"519 211 CURVE SMOOTH",
"519 281 OFFCURVE",
"484 330 OFFCURVE",
"406 346 CURVE",
"406 347 LINE",
"487 369 OFFCURVE",
"541 424 OFFCURVE",
"541 516 CURVE SMOOTH",
"541 605 OFFCURVE",
"480 655 OFFCURVE",
"341 655 CURVE SMOOTH",
"166 655 LINE SMOOTH",
"159 655 OFFCURVE",
"156 651 OFFCURVE",
"155 645 CURVE SMOOTH",
"55 10 LINE SMOOTH",
"54 4 OFFCURVE",
"57 0 OFFCURVE",
"64 0 CURVE SMOOTH"
);
},
{
closed = 1;
nodes = (
"185 305 LINE",
"290 305 LINE SMOOTH",
"389 305 OFFCURVE",
"433 277 OFFCURVE",
"433 212 CURVE SMOOTH",
"433 106 OFFCURVE",
"362 74 OFFCURVE",
"246 74 CURVE SMOOTH",
"148 74 LINE"
);
},
{
closed = 1;
nodes = (
"229 582 LINE",
"319 582 LINE SMOOTH",
"417 582 OFFCURVE",
"455 560 OFFCURVE",
"455 501 CURVE SMOOTH",
"455 407 OFFCURVE",
"391 374 OFFCURVE",
"293 374 CURVE SMOOTH",
"196 374 LINE"
);
}
);
width = 562;
}
);
leftKerningGroup = H;
leftMetricsKey = H;
rightKerningGroup = B;
unicode = 0042;
},
{
glyphname = C;
lastChange = "2020-01-15 12:57:37 +0000";
layers = (
{
anchors = (
{
name = bottom;
position = "{317, 0}";
},
{
name = top;
position = "{397, 655}";
}
);
layerId = UUID0;
paths = (
{
closed = 1;
nodes = (
"501 -12 OFFCURVE",
"605 72 OFFCURVE",
"616 236 CURVE SMOOTH",
"617 246 OFFCURVE",
"612 251 OFFCURVE",
"601 251 CURVE SMOOTH",
"448 251 LINE SMOOTH",
"439 251 OFFCURVE",
"434 246 OFFCURVE",
"433 236 CURVE SMOOTH",
"428 179 OFFCURVE",
"393 150 OFFCURVE",
"329 150 CURVE SMOOTH",
"251 150 OFFCURVE",
"220 190 OFFCURVE",
"233 275 CURVE SMOOTH",
"252 395 LINE SMOOTH",
"264 470 OFFCURVE",
"300 505 OFFCURVE",
"368 505 CURVE SMOOTH",
"437 505 OFFCURVE",
"469 473 OFFCURVE",
"462 419 CURVE SMOOTH",
"461 409 OFFCURVE",
"465 404 OFFCURVE",
"476 404 CURVE SMOOTH",
"629 404 LINE SMOOTH",
"637 404 OFFCURVE",
"642 409 OFFCURVE",
"644 419 CURVE SMOOTH",
"676 567 OFFCURVE",
"571 667 OFFCURVE",
"384 667 CURVE SMOOTH",
"201 667 OFFCURVE",
"101 585 OFFCURVE",
"73 409 CURVE SMOOTH",
"51 270 LINE SMOOTH",
"23 93 OFFCURVE",
"115 -12 OFFCURVE",
"311 -12 CURVE SMOOTH"
);
}
);
width = 648;
},
{
anchors = (
{
name = bottom;
position = "{282, 0}";
},
{
name = top;
position = "{386, 655}";
}
);
layerId = "8E001827-4555-4882-9710-42A9586BB804";
paths = (
{
closed = 1;
nodes = (
"448.039 -12 OFFCURVE",
"519.007 49.947 OFFCURVE",
"541 194 CURVE SMOOTH",
"541.77 199.041 OFFCURVE",
"540 199 OFFCURVE",
"538 199 CURVE SMOOTH",
"528 199 LINE SMOOTH",
"526 199 OFFCURVE",
"525 198 OFFCURVE",
"525 196 CURVE SMOOTH",
"504.857 61.361 OFFCURVE",
"439.43 4 OFFCURVE",
"306 4 CURVE SMOOTH",
"162.648 4 OFFCURVE",
"87 85 OFFCURVE",
"108 217 CURVE SMOOTH",
"146 461 LINE SMOOTH",
"166 590 OFFCURVE",
"234.7 651 OFFCURVE",
"369 651 CURVE SMOOTH",
"512.401 651 OFFCURVE",
"585.408 580.573 OFFCURVE",
"567 460 CURVE SMOOTH",
"567 457 OFFCURVE",
"567 456 OFFCURVE",
"570 456 CURVE SMOOTH",
"579 456 LINE SMOOTH",
"582 456 OFFCURVE",
"583 457 OFFCURVE",
"583 460 CURVE SMOOTH",
"604 588 OFFCURVE",
"523.456 667 OFFCURVE",
"370 667 CURVE SMOOTH",
"225.947 667 OFFCURVE",
"151 601 OFFCURVE",
"130 462 CURVE SMOOTH",
"92 216 LINE SMOOTH",
"70 76 OFFCURVE",
"153 -12 OFFCURVE",
"305 -12 CURVE SMOOTH"
);
}
);
width = 620;
},
{
anchors = (
{
name = bottom;
position = "{291, 0}";
},
{
name = top;
position = "{378, 655}";
}
);
layerId = "0382B793-66DA-492C-99CF-A998862EA4E0";
paths = (
{
closed = 1;
nodes = (
"449 -12 OFFCURVE",
"552 75 OFFCURVE",
"556 213 CURVE SMOOTH",
"556 221 OFFCURVE",
"553 223 OFFCURVE",
"546 223 CURVE SMOOTH",
"482 223 LINE SMOOTH",
"476 223 OFFCURVE",
"473 219 OFFCURVE",
"473 213 CURVE SMOOTH",
"462 117 OFFCURVE",
"402 63 OFFCURVE",
"296 63 CURVE SMOOTH",
"191 63 OFFCURVE",
"144 120 OFFCURVE",
"162 232 CURVE SMOOTH",
"195 442 LINE SMOOTH",
"211 544 OFFCURVE",
"272 592 OFFCURVE",
"374 592 CURVE SMOOTH",
"486 592 OFFCURVE",
"527 537 OFFCURVE",
"509 442 CURVE SMOOTH",
"508 435 OFFCURVE",
"511 432 OFFCURVE",
"517 432 CURVE SMOOTH",
"580 432 LINE SMOOTH",
"587 432 OFFCURVE",
"589 435 OFFCURVE",
"591 442 CURVE SMOOTH",
"625 585 OFFCURVE",
"534 667 OFFCURVE",
"384 667 CURVE SMOOTH",
"226 667 OFFCURVE",
"135 590 OFFCURVE",
"112 442 CURVE SMOOTH",
"79 233 LINE SMOOTH",
"55 79 OFFCURVE",
"128 -12 OFFCURVE",
"288 -12 CURVE SMOOTH"
);
}
);
width = 620;
}
);
leftKerningGroup = O;
leftMetricsKey = O;
rightKerningGroup = C;
unicode = 0043;
},
{
glyphname = D;
lastChange = "2020-01-15 12:57:37 +0000";
layers = (
{
anchors = (
{
name = bottom;
position = "{267, 0}";
},
{
name = center;
position = "{344, 345}";
},
{
name = top;
position = "{370, 655}";
}
);
layerId = UUID0;
paths = (
{
closed = 1;
nodes = (
"290 0 LINE SMOOTH",
"508 0 OFFCURVE",
"600 98 OFFCURVE",
"632 288 CURVE SMOOTH",
"643 354 LINE SMOOTH",
"676 555 OFFCURVE",
"571 655 OFFCURVE",
"359 655 CURVE SMOOTH",
"138 655 LINE SMOOTH",
"129 655 OFFCURVE",
"124 649 OFFCURVE",
"123 640 CURVE SMOOTH",
"24 15 LINE SMOOTH",
"23 6 OFFCURVE",
"28 0 OFFCURVE",
"38 0 CURVE SMOOTH"
);
},
{
closed = 1;
nodes = (
"282 495 LINE",
"338 495 LINE SMOOTH",
"433 495 OFFCURVE",
"476 450 OFFCURVE",
"462 360 CURVE SMOOTH",
"452 296 LINE SMOOTH",
"438 209 OFFCURVE",
"397 160 OFFCURVE",
"299 160 CURVE SMOOTH",
"229 160 LINE"
);
}
);
width = 651;
},
{
anchors = (
{
name = bottom;
position = "{239, 0}";
},
{
name = center;
position = "{332, 328}";
},
{
name = top;
position = "{347, 655}";
}
);
layerId = "8E001827-4555-4882-9710-42A9586BB804";
paths = (
{
closed = 1;
nodes = (
"242 0 LINE SMOOTH",
"425 0 OFFCURVE",
"531 81 OFFCURVE",
"562 275 CURVE SMOOTH",
"577 370 LINE SMOOTH",
"608 568 OFFCURVE",
"525 655 OFFCURVE",
"330 655 CURVE SMOOTH",
"182 655 LINE SMOOTH",
"179 655 OFFCURVE",
"178 655 OFFCURVE",
"177 651 CURVE SMOOTH",
"74 4 LINE SMOOTH",
"73 0 OFFCURVE",
"75 0 OFFCURVE",
"77 0 CURVE SMOOTH"
);
},
{
closed = 1;
nodes = (
"191 639 LINE",
"328 639 LINE SMOOTH",
"513 639 OFFCURVE",
"592 560 OFFCURVE",
"561 369 CURVE SMOOTH",
"546 276 LINE SMOOTH",
"517 95 OFFCURVE",
"419 16 OFFCURVE",
"245 16 CURVE SMOOTH",
"92 16 LINE"
);
}
);
width = 619;
},
{
anchors = (
{
name = bottom;
position = "{275, 0}";
},
{
name = center;
position = "{340, 328}";
},
{
name = top;
position = "{345, 655}";
}
);
layerId = "0382B793-66DA-492C-99CF-A998862EA4E0";
paths = (
{
closed = 1;
nodes = (
"242 0 LINE SMOOTH",
"443 0 OFFCURVE",
"551 99 OFFCURVE",
"584 310 CURVE SMOOTH",
"592 361 LINE SMOOTH",
"623 558 OFFCURVE",
"537 655 OFFCURVE",
"331 655 CURVE SMOOTH",
"166 655 LINE SMOOTH",
"160 655 OFFCURVE",
"156 651 OFFCURVE",
"155 645 CURVE SMOOTH",
"55 10 LINE SMOOTH",
"54 4 OFFCURVE",
"57 0 OFFCURVE",
"64 0 CURVE SMOOTH"
);
},
{
closed = 1;
nodes = (
"229 583 LINE",
"323 583 LINE SMOOTH",
"481 583 OFFCURVE",
"533 512 OFFCURVE",
"509 366 CURVE SMOOTH",
"499 304 LINE SMOOTH",
"472 139 OFFCURVE",
"394 72 OFFCURVE",
"243 72 CURVE SMOOTH",
"148 72 LINE"
);
}
);
width = 628;
}
);
leftKerningGroup = H;
leftMetricsKey = H;
rightKerningGroup = D;
unicode = 0044;
},
{
glyphname = Eth;
lastChange = "2020-01-15 12:57:37 +0000";
layers = (
{
components = (
{
name = D;
}
);
layerId = UUID0;
paths = (
{
closed = 1;
nodes = (
"310 261 LINE SMOOTH",
"319 261 OFFCURVE",
"324 267 OFFCURVE",
"325 276 CURVE SMOOTH",
"341 379 LINE SMOOTH",
"343 388 OFFCURVE",
"337 394 OFFCURVE",
"328 394 CURVE SMOOTH",
"84 394 LINE",
"41 394 LINE SMOOTH",
"32 394 OFFCURVE",
"27 388 OFFCURVE",
"26 379 CURVE SMOOTH",
"9 276 LINE SMOOTH",
"8 267 OFFCURVE",
"14 261 OFFCURVE",
"23 261 CURVE SMOOTH"
);
}
);
width = 651;
},
{
components = (
{
name = D;
}
);
layerId = "8E001827-4555-4882-9710-42A9586BB804";
paths = (
{
closed = 1;
nodes = (
"334 328 LINE SMOOTH",
"337 328 OFFCURVE",
"338 328 OFFCURVE",
"339 331 CURVE SMOOTH",
"341 340 LINE SMOOTH",
"342 344 OFFCURVE",
"340 344 OFFCURVE",
"338 344 CURVE SMOOTH",
"128 344 LINE",
"40 344 LINE SMOOTH",
"37 344 OFFCURVE",
"36 344 OFFCURVE",
"35 341 CURVE SMOOTH",
"33 332 LINE SMOOTH",
"32 328 OFFCURVE",
"34 328 OFFCURVE",
"36 328 CURVE SMOOTH"
);
}
);
width = 619;
},
{
components = (
{
name = D;
}
);
layerId = "0382B793-66DA-492C-99CF-A998862EA4E0";
paths = (
{
closed = 1;
nodes = (
"329 298 LINE SMOOTH",
"335 298 OFFCURVE",
"338 302 OFFCURVE",
"339 308 CURVE SMOOTH",
"347 358 LINE SMOOTH",
"348 364 OFFCURVE",
"344 368 OFFCURVE",
"338 368 CURVE SMOOTH",
"112 368 LINE",
"42 368 LINE SMOOTH",
"36 368 OFFCURVE",
"33 364 OFFCURVE",
"32 358 CURVE SMOOTH",
"24 308 LINE SMOOTH",
"23 302 OFFCURVE",
"26 298 OFFCURVE",
"33 298 CURVE SMOOTH"
);
}
);
width = 628;
}
);
leftKerningGroup = Eth;
rightKerningGroup = D;
rightMetricsKey = D;
unicode = 00D0;
},
{
glyphname = E;
lastChange = "2020-01-15 12:57:37 +0000";
layers = (
{
anchors = (
{
name = bottom;
position = "{249, 0}";
},
{
name = ogonek;
position = "{447, 10}";
},
{
name = top;
position = "{342, 655}";
},
{
name = topleft;
position = "{108, 655}";
}
);
guideLines = (
{
angle = 90;
position = "{519, 260}";
}
);
layerId = UUID0;
paths = (
{
closed = 1;
nodes = (
"461 0 LINE SMOOTH",
"469 0 OFFCURVE",
"474 6 OFFCURVE",
"476 15 CURVE SMOOTH",
"496 146 LINE SMOOTH",
"497 154 OFFCURVE",
"491 160 OFFCURVE",
"483 160 CURVE SMOOTH",
"229 160 LINE",
"244 253 LINE",
"477 253 LINE SMOOTH",
"485 253 OFFCURVE",
"491 259 OFFCURVE",
"492 268 CURVE SMOOTH",
"511 389 LINE SMOOTH",
"513 399 OFFCURVE",
"507 404 OFFCURVE",
"498 404 CURVE SMOOTH",
"268 404 LINE",
"282 495 LINE",
"539 495 LINE SMOOTH",
"547 495 OFFCURVE",
"553 502 OFFCURVE",
"554 510 CURVE SMOOTH",
"575 640 LINE SMOOTH",
"577 650 OFFCURVE",
"570 655 OFFCURVE",
"561 655 CURVE SMOOTH",
"140 655 LINE SMOOTH",
"131 655 OFFCURVE",
"124 649 OFFCURVE",
"123 640 CURVE SMOOTH",
"24 15 LINE SMOOTH",
"23 6 OFFCURVE",
"27 0 OFFCURVE",
"36 0 CURVE SMOOTH"
);
}
);
width = 542;
},
{
anchors = (
{
name = bottom;
position = "{238, 0}";
},
{
name = ogonek;
position = "{400, 10}";
},
{
name = top;
position = "{342, 655}";
},
{
name = topleft;
position = "{99, 655}";
}
);
guideLines = (
{
angle = 90;
position = "{561, 599}";
}
);
layerId = "8E001827-4555-4882-9710-42A9586BB804";
paths = (
{
closed = 1;
nodes = (
"416 0 LINE SMOOTH",
"419 0 OFFCURVE",
"420 0 OFFCURVE",
"421 3 CURVE SMOOTH",
"423 12 LINE SMOOTH",
"424 16 OFFCURVE",
"422 16 OFFCURVE",
"420 16 CURVE SMOOTH",
"92 16 LINE",
"142 328 LINE",
"446 328 LINE SMOOTH",
"449 328 OFFCURVE",
"450 328 OFFCURVE",
"451 331 CURVE SMOOTH",
"453 340 LINE SMOOTH",
"454 344 OFFCURVE",
"452 344 OFFCURVE",
"450 344 CURVE SMOOTH",
"145 344 LINE",
"191 639 LINE",
"517 639 LINE SMOOTH",
"520 639 OFFCURVE",
"521 639 OFFCURVE",
"522 642 CURVE SMOOTH",
"524 651 LINE SMOOTH",
"525 655 OFFCURVE",
"523 655 OFFCURVE",
"521 655 CURVE SMOOTH",
"182 655 LINE SMOOTH",
"179 655 OFFCURVE",
"178 655 OFFCURVE",
"177 651 CURVE SMOOTH",
"74 4 LINE SMOOTH",
"73 0 OFFCURVE",
"75 0 OFFCURVE",
"77 0 CURVE SMOOTH"
);
}
);
width = 540;
},
{
anchors = (
{
name = bottom;
position = "{244, 0}";
},
{
name = ogonek;
position = "{412, 10}";
},
{
name = top;
position = "{334, 655}";
},
{
name = topleft;
position = "{113, 655}";
}
);
layerId = "0382B793-66DA-492C-99CF-A998862EA4E0";
paths = (
{
closed = 1;
nodes = (
"413 0 LINE SMOOTH",
"419 0 OFFCURVE",
"422 4 OFFCURVE",
"423 10 CURVE SMOOTH",
"432 67 LINE SMOOTH",
"433 73 OFFCURVE",
"430 77 OFFCURVE",
"423 77 CURVE SMOOTH",
"149 77 LINE",
"183 296 LINE",
"437 296 LINE SMOOTH",
"443 296 OFFCURVE",
"446 300 OFFCURVE",
"447 306 CURVE SMOOTH",
"455 360 LINE SMOOTH",
"456 366 OFFCURVE",
"453 370 OFFCURVE",
"446 370 CURVE SMOOTH",
"195 370 LINE",
"228 578 LINE",
"505 578 LINE SMOOTH",
"511 578 OFFCURVE",
"514 582 OFFCURVE",
"515 588 CURVE SMOOTH",
"524 645 LINE SMOOTH",
"525 652 OFFCURVE",
"522 655 OFFCURVE",
"515 655 CURVE SMOOTH",
"166 655 LINE SMOOTH",
"160 655 OFFCURVE",
"156 651 OFFCURVE",
"155 645 CURVE SMOOTH",
"55 10 LINE SMOOTH",
"54 4 OFFCURVE",
"58 0 OFFCURVE",
"64 0 CURVE SMOOTH"
);
}
);
width = 522;
}
);
leftKerningGroup = H;
leftMetricsKey = H;
rightKerningGroup = E;
unicode = 0045;
},
{
glyphname = F;
lastChange = "2020-01-15 12:57:37 +0000";
layers = (
{
layerId = UUID0;
paths = (
{
closed = 1;
nodes = (
"190 0 LINE SMOOTH",
"198 0 OFFCURVE",
"205 6 OFFCURVE",
"206 15 CURVE SMOOTH",
"242 239 LINE",
"461 239 LINE SMOOTH",
"470 239 OFFCURVE",
"475 245 OFFCURVE",
"476 254 CURVE SMOOTH",
"496 380 LINE SMOOTH",
"498 391 OFFCURVE",
"492 395 OFFCURVE",
"483 395 CURVE SMOOTH",
"266 395 LINE",
"282 495 LINE",
"538 495 LINE SMOOTH",
"546 495 OFFCURVE",
"553 502 OFFCURVE",
"554 510 CURVE SMOOTH",
"575 640 LINE SMOOTH",
"577 650 OFFCURVE",
"570 655 OFFCURVE",
"561 655 CURVE SMOOTH",
"140 655 LINE SMOOTH",
"131 655 OFFCURVE",
"124 649 OFFCURVE",
"123 640 CURVE SMOOTH",
"24 15 LINE SMOOTH",
"23 6 OFFCURVE",
"27 0 OFFCURVE",
"36 0 CURVE SMOOTH"
);
}
);
width = 527;
},
{
layerId = "8E001827-4555-4882-9710-42A9586BB804";
paths = (
{
closed = 1;
nodes = (
"85 0 LINE SMOOTH",
"89 0 OFFCURVE",
"89 1 OFFCURVE",
"90 5 CURVE SMOOTH",
"140 320 LINE",
"433 320 LINE SMOOTH",
"436 320 OFFCURVE",
"437 320 OFFCURVE",
"438 323 CURVE SMOOTH",
"440 332 LINE SMOOTH",
"441 336 OFFCURVE",
"439 336 OFFCURVE",
"437 336 CURVE SMOOTH",
"143 336 LINE",
"191 639 LINE",
"517 639 LINE SMOOTH",
"520 639 OFFCURVE",
"521 639 OFFCURVE",
"522 642 CURVE SMOOTH",
"524 651 LINE SMOOTH",
"525 655 OFFCURVE",
"523 655 OFFCURVE",
"521 655 CURVE SMOOTH",
"182 655 LINE SMOOTH",
"179 655 OFFCURVE",
"178 655 OFFCURVE",
"177 651 CURVE SMOOTH",
"74 4 LINE SMOOTH",
"73 0 OFFCURVE",
"76 0 OFFCURVE",
"78 0 CURVE SMOOTH"
);
}
);
width = 509;
},
{
layerId = "0382B793-66DA-492C-99CF-A998862EA4E0";
paths = (
{
closed = 1;
nodes = (
"127 0 LINE SMOOTH",
"133 0 OFFCURVE",
"137 4 OFFCURVE",
"138 10 CURVE SMOOTH",
"183 296 LINE",
"423 296 LINE SMOOTH",
"429 296 OFFCURVE",
"432 300 OFFCURVE",
"433 306 CURVE SMOOTH",
"442 360 LINE SMOOTH",
"443 366 OFFCURVE",
"440 370 OFFCURVE",
"433 370 CURVE SMOOTH",
"195 370 LINE",
"228 578 LINE",
"505 578 LINE SMOOTH",
"511 578 OFFCURVE",
"514 582 OFFCURVE",
"515 588 CURVE SMOOTH",
"524 645 LINE SMOOTH",
"525 651 OFFCURVE",
"521 655 OFFCURVE",
"515 655 CURVE SMOOTH",
"165 655 LINE SMOOTH",
"159 655 OFFCURVE",
"156 651 OFFCURVE",
"155 645 CURVE SMOOTH",
"55 10 LINE SMOOTH",
"54 4 OFFCURVE",
"57 0 OFFCURVE",
"63 0 CURVE SMOOTH"
);
}
);
width = 496;
}
);
leftKerningGroup = H;
leftMetricsKey = H;
rightKerningGroup = F;
unicode = 0046;
},
{
glyphname = G;
lastChange = "2020-01-15 12:57:37 +0000";
layers = (
{
anchors = (
{
name = bottom;
position = "{299, 0}";
},
{
name = top;
position = "{404, 655}";
},
{
name = topleft;
position = "{145, 655}";
}
);
layerId = UUID0;
paths = (
{
closed = 1;
nodes = (
"341 -12 OFFCURVE",
"394 13 OFFCURVE",
"438 75 CURVE",
"440 75 LINE",
"438 55 OFFCURVE",
"436 29 OFFCURVE",
"436 15 CURVE SMOOTH",
"436 6 OFFCURVE",
"442 0 OFFCURVE",
"451 0 CURVE SMOOTH",
"573 0 LINE SMOOTH",
"583 0 OFFCURVE",
"588 6 OFFCURVE",
"588 15 CURVE SMOOTH",
"587 50 OFFCURVE",
"592 107 OFFCURVE",
"604 184 CURVE SMOOTH",
"630 343 LINE SMOOTH",
"631 352 OFFCURVE",
"626 358 OFFCURVE",
"616 358 CURVE SMOOTH",
"359 358 LINE SMOOTH",
"350 358 OFFCURVE",
"345 353 OFFCURVE",
"343 343 CURVE SMOOTH",
"329 253 LINE SMOOTH",
"328 244 OFFCURVE",
"333 238 OFFCURVE",
"343 238 CURVE SMOOTH",
"437 238 LINE",
"434 224 LINE SMOOTH",
"423 174 OFFCURVE",
"388 150 OFFCURVE",
"327 150 CURVE SMOOTH",
"254 150 OFFCURVE",
"220 184 OFFCURVE",
"234 275 CURVE SMOOTH",
"253 395 LINE SMOOTH",
"265 472 OFFCURVE",
"301 507 OFFCURVE",
"368 507 CURVE SMOOTH",
"431 507 OFFCURVE",
"467 482 OFFCURVE",
"463 442 CURVE SMOOTH",
"462 433 OFFCURVE",
"467 427 OFFCURVE",
"477 427 CURVE SMOOTH",
"629 426 LINE SMOOTH",
"638 426 OFFCURVE",
"643 431 OFFCURVE",
"644 441 CURVE SMOOTH",
"666 584 OFFCURVE",
"571 667 OFFCURVE",
"383 667 CURVE SMOOTH",
"201 667 OFFCURVE",
"102 589 OFFCURVE",
"74 413 CURVE SMOOTH",
"51 270 LINE SMOOTH",
"24 103 OFFCURVE",
"109 -12 OFFCURVE",
"260 -12 CURVE SMOOTH"
);
}
);
width = 659;
},
{
anchors = (
{
name = bottom;
position = "{288, 0}";
},
{
name = top;
position = "{394, 655}";
},
{
name = topleft;
position = "{146, 655}";
}
);
guideLines = (
{
position = "{670, 466}";
}
);
layerId = "8E001827-4555-4882-9710-42A9586BB804";
paths = (
{
closed = 1;
nodes = (
"421 -12 OFFCURVE",
"483 62 OFFCURVE",
"516 138 CURVE",
"517 138 LINE",
"510 93 OFFCURVE",
"505 43 OFFCURVE",
"503 5 CURVE SMOOTH",
"503 1 OFFCURVE",
"504 0 OFFCURVE",
"507 0 CURVE SMOOTH",
"515 0 LINE SMOOTH",
"518 0 OFFCURVE",
"519 2 OFFCURVE",
"519 5 CURVE SMOOTH",
"521 47 OFFCURVE",
"524 88 OFFCURVE",
"532 140 CURVE SMOOTH",
"559 312 LINE SMOOTH",
"560 316 OFFCURVE",
"558 317 OFFCURVE",
"555 317 CURVE SMOOTH",
"359 317 LINE SMOOTH",
"356 317 OFFCURVE",
"355 317 OFFCURVE",
"354 314 CURVE SMOOTH",
"352 305 LINE SMOOTH",
"351 301 OFFCURVE",
"353 301 OFFCURVE",
"355 301 CURVE SMOOTH",
"542 301 LINE",
"533 248 LINE SMOOTH",
"505 81 OFFCURVE",
"419 4 OFFCURVE",
"282 4 CURVE SMOOTH",
"159 4 OFFCURVE",
"87 83 OFFCURVE",
"109 221 CURVE SMOOTH",
"148 470 LINE SMOOTH",
"168 598 OFFCURVE",
"235 651 OFFCURVE",
"369 651 CURVE SMOOTH",
"505 651 OFFCURVE",
"583 586 OFFCURVE",
"568 471 CURVE SMOOTH",
"567 467 OFFCURVE",
"569 466 OFFCURVE",
"571 466 CURVE SMOOTH",
"579 466 LINE SMOOTH",
"582 466 OFFCURVE",
"583 466 OFFCURVE",
"584 470 CURVE SMOOTH",
"600 593 OFFCURVE",
"518 667 OFFCURVE",
"370 667 CURVE SMOOTH",
"227 667 OFFCURVE",
"154 610 OFFCURVE",
"132 471 CURVE SMOOTH",
"93 220 LINE SMOOTH",
"70 73 OFFCURVE",
"151 -12 OFFCURVE",
"281 -12 CURVE SMOOTH"
);
}
);
width = 639;
},
{
anchors = (
{
name = bottom;
position = "{289, 0}";
},
{
name = top;
position = "{390, 655}";
},
{
name = topleft;
position = "{146, 655}";
}
);
layerId = "0382B793-66DA-492C-99CF-A998862EA4E0";
paths = (
{
closed = 1;
nodes = (
"359 -12 OFFCURVE",
"421 17 OFFCURVE",
"467 71 CURVE",
"468 71 LINE",
"466 50 OFFCURVE",
"464 25 OFFCURVE",
"464 10 CURVE SMOOTH",
"464 4 OFFCURVE",
"467 0 OFFCURVE",
"474 0 CURVE SMOOTH",
"526 0 LINE SMOOTH",
"533 0 OFFCURVE",
"536 3 OFFCURVE",
"536 10 CURVE SMOOTH",
"537 47 OFFCURVE",
"541 85 OFFCURVE",
"548 127 CURVE SMOOTH",
"579 324 LINE SMOOTH",
"580 330 OFFCURVE",
"576 334 OFFCURVE",
"570 334 CURVE SMOOTH",
"349 334 LINE SMOOTH",
"344 334 OFFCURVE",
"340 330 OFFCURVE",
"339 324 CURVE SMOOTH",
"330 270 LINE SMOOTH",
"329 263 OFFCURVE",
"333 260 OFFCURVE",
"339 260 CURVE SMOOTH",
"491 260 LINE",
"485 222 LINE SMOOTH",
"469 119 OFFCURVE",
"405 63 OFFCURVE",
"296 63 CURVE SMOOTH",
"193 63 OFFCURVE",
"146 120 OFFCURVE",
"163 230 CURVE SMOOTH",
"195 438 LINE SMOOTH",
"211 543 OFFCURVE",
"266 592 OFFCURVE",
"374 592 CURVE SMOOTH",
"480 592 OFFCURVE",
"529 544 OFFCURVE",
"514 452 CURVE SMOOTH",
"513 446 OFFCURVE",
"516 442 OFFCURVE",
"523 442 CURVE SMOOTH",
"586 442 LINE SMOOTH",
"591 442 OFFCURVE",
"595 445 OFFCURVE",
"596 452 CURVE SMOOTH",
"623 584 OFFCURVE",
"538 667 OFFCURVE",
"383 667 CURVE SMOOTH",
"220 667 OFFCURVE",
"134 584 OFFCURVE",
"112 437 CURVE SMOOTH",
"80 226 LINE SMOOTH",
"57 76 OFFCURVE",
"134 -12 OFFCURVE",
"276 -12 CURVE SMOOTH"
);
}
);
width = 641;
}
);
leftKerningGroup = O;
leftMetricsKey = O;
rightKerningGroup = G;
unicode = 0047;
},
{
glyphname = H;
lastChange = "2020-01-15 12:57:37 +0000";
layers = (
{
layerId = UUID0;
paths = (
{
closed = 1;
nodes = (
"190 0 LINE SMOOTH",
"199 0 OFFCURVE",
"204 6 OFFCURVE",
"205 15 CURVE SMOOTH",
"242 247 LINE",
"445 247 LINE",
"408 15 LINE SMOOTH",
"407 6 OFFCURVE",
"412 0 OFFCURVE",
"422 0 CURVE SMOOTH",
"573 0 LINE SMOOTH",
"582 0 OFFCURVE",
"588 6 OFFCURVE",
"589 15 CURVE SMOOTH",
"688 640 LINE SMOOTH",
"689 649 OFFCURVE",
"684 655 OFFCURVE",
"674 655 CURVE SMOOTH",
"522 655 LINE SMOOTH",
"513 655 OFFCURVE",
"508 649 OFFCURVE",
"507 640 CURVE SMOOTH",
"470 407 LINE",
"267 407 LINE",
"304 640 LINE SMOOTH",
"305 649 OFFCURVE",
"300 655 OFFCURVE",
"290 655 CURVE SMOOTH",
"138 655 LINE SMOOTH",
"129 655 OFFCURVE",
"124 649 OFFCURVE",
"123 640 CURVE SMOOTH",
"24 15 LINE SMOOTH",
"23 6 OFFCURVE",
"28 0 OFFCURVE",
"38 0 CURVE SMOOTH"
);
}
);
width = 667;
},
{
guideLines = (
{
angle = 90;
position = "{592, 378}";
}
);
layerId = "8E001827-4555-4882-9710-42A9586BB804";
paths = (
{
closed = 1;
nodes = (
"85 0 LINE SMOOTH",
"88 0 OFFCURVE",
"89 0 OFFCURVE",
"90 5 CURVE SMOOTH",
"142 331 LINE",
"551 331 LINE",
"499 5 LINE SMOOTH",
"498 0 OFFCURVE",
"500 0 OFFCURVE",
"503 0 CURVE SMOOTH",
"510 0 LINE SMOOTH",
"513 0 OFFCURVE",
"514 0 OFFCURVE",
"515 5 CURVE SMOOTH",
"618 651 LINE SMOOTH",
"619 655 OFFCURVE",
"617 655 OFFCURVE",
"614 655 CURVE SMOOTH",
"607 655 LINE SMOOTH",
"604 655 OFFCURVE",
"603 655 OFFCURVE",
"602 651 CURVE SMOOTH",
"554 347 LINE",
"145 347 LINE",
"193 651 LINE SMOOTH",
"194 655 OFFCURVE",
"192 655 OFFCURVE",
"189 655 CURVE SMOOTH",
"182 655 LINE SMOOTH",
"179 655 OFFCURVE",
"178 655 OFFCURVE",
"177 651 CURVE SMOOTH",
"74 5 LINE SMOOTH",
"73 0 OFFCURVE",
"75 0 OFFCURVE",
"78 0 CURVE SMOOTH"
);
}
);
width = 648;
},
{
layerId = "0382B793-66DA-492C-99CF-A998862EA4E0";
paths = (
{
closed = 1;
nodes = (
"128 0 LINE SMOOTH",
"134 0 OFFCURVE",
"137 4 OFFCURVE",
"138 10 CURVE SMOOTH",
"184 301 LINE",
"499 301 LINE",
"453 10 LINE SMOOTH",
"452 4 OFFCURVE",
"455 0 OFFCURVE",
"462 0 CURVE SMOOTH",
"526 0 LINE SMOOTH",
"532 0 OFFCURVE",
"535 4 OFFCURVE",
"536 10 CURVE SMOOTH",
"637 645 LINE SMOOTH",
"638 651 OFFCURVE",
"634 655 OFFCURVE",
"628 655 CURVE SMOOTH",
"565 655 LINE SMOOTH",
"559 655 OFFCURVE",
"555 651 OFFCURVE",
"554 645 CURVE SMOOTH",
"511 375 LINE",
"196 375 LINE",
"238 645 LINE SMOOTH",
"239 651 OFFCURVE",
"235 655 OFFCURVE",
"229 655 CURVE SMOOTH",
"166 655 LINE SMOOTH",
"160 655 OFFCURVE",
"156 652 OFFCURVE",
"155 645 CURVE SMOOTH",
"55 10 LINE SMOOTH",
"54 4 OFFCURVE",
"58 0 OFFCURVE",
"64 0 CURVE SMOOTH"
);
}
);
width = 648;
}
);
leftKerningGroup = H;
rightKerningGroup = H;
unicode = 0048;
},
{
glyphname = Hbar;
lastChange = "2020-01-15 12:57:37 +0000";
layers = (
{
components = (
{
name = H;
}
);
layerId = UUID0;
paths = (
{
closed = 1;
nodes = (
"101 482 LINE",
"661 482 LINE",
"704 482 LINE SMOOTH",
"712 482 OFFCURVE",
"717 488 OFFCURVE",
"719 497 CURVE SMOOTH",
"732 580 LINE SMOOTH",
"733 589 OFFCURVE",
"727 595 OFFCURVE",
"718 595 CURVE SMOOTH",
"76 595 LINE SMOOTH",
"67 595 OFFCURVE",
"61 589 OFFCURVE",
"60 580 CURVE SMOOTH",
"46 497 LINE SMOOTH",
"45 488 OFFCURVE",
"51 482 OFFCURVE",
"60 482 CURVE SMOOTH"
);
}
);
width = 666;
},
{
components = (
{
name = H;
}
);
layerId = "8E001827-4555-4882-9710-42A9586BB804";
paths = (
{
closed = 1;
nodes = (
"163 545 LINE",
"598 545 LINE",
"691 545 LINE SMOOTH",
"693 545 OFFCURVE",
"694 545 OFFCURVE",
"695 548 CURVE SMOOTH",
"697 557 LINE SMOOTH",
"698 561 OFFCURVE",
"697 561 OFFCURVE",
"694 561 CURVE SMOOTH",
"72 561 LINE SMOOTH",
"70 561 OFFCURVE",
"69 561 OFFCURVE",
"68 558 CURVE SMOOTH",
"66 549 LINE SMOOTH",
"65 545 OFFCURVE",
"67 545 OFFCURVE",
"69 545 CURVE SMOOTH"
);
}
);
width = 648;
},
{
components = (
{
name = H;
}
);
layerId = "0382B793-66DA-492C-99CF-A998862EA4E0";
paths = (
{
closed = 1;
nodes = (
"138 516 LINE",
"612 516 LINE",
"661 516 LINE SMOOTH",
"667 516 OFFCURVE",
"672 520 OFFCURVE",
"673 526 CURVE SMOOTH",
"681 576 LINE SMOOTH",
"682 583 OFFCURVE",
"678 587 OFFCURVE",
"672 587 CURVE SMOOTH",
"102 587 LINE SMOOTH",
"96 587 OFFCURVE",
"91 583 OFFCURVE",
"90 577 CURVE SMOOTH",
"82 526 LINE SMOOTH",
"81 520 OFFCURVE",
"84 516 OFFCURVE",
"90 516 CURVE SMOOTH"
);
}
);
width = 648;
}
);
leftKerningGroup = H;
rightKerningGroup = H;
unicode = 0126;
},
{
glyphname = I;
lastChange = "2020-01-15 12:57:37 +0000";
layers = (
{
anchors = (
{
name = bottom;
position = "{113, 0}";
},
{
name = ogonek;
position = "{208, 10}";
},
{
name = top;
position = "{218, 655}";
},
{
name = topleft;
position = "{94, 655}";
}
);
layerId = UUID0;
paths = (
{
closed = 1;
nodes = (
"190 0 LINE SMOOTH",
"199 0 OFFCURVE",
"204 6 OFFCURVE",
"205 15 CURVE SMOOTH",
"304 640 LINE SMOOTH",
"305 649 OFFCURVE",
"300 655 OFFCURVE",
"290 655 CURVE SMOOTH",
"138 655 LINE SMOOTH",
"129 655 OFFCURVE",
"124 649 OFFCURVE",
"123 640 CURVE SMOOTH",
"24 15 LINE SMOOTH",
"23 6 OFFCURVE",
"28 0 OFFCURVE",
"38 0 CURVE SMOOTH"
);
}
);
width = 283;
},
{
anchors = (
{
name = bottom;
position = "{81, 0}";
},
{
name = ogonek;
position = "{97, 10}";
},
{
name = top;
position = "{185, 655}";
},
{
name = topleft;
position = "{116, 655}";
}
);
layerId = "8E001827-4555-4882-9710-42A9586BB804";
paths = (
{
closed = 1;
nodes = (
"85 0 LINE SMOOTH",
"88 0 OFFCURVE",
"89 0 OFFCURVE",
"90 5 CURVE SMOOTH",
"193 651 LINE SMOOTH",
"194 655 OFFCURVE",
"192 655 OFFCURVE",
"189 655 CURVE SMOOTH",
"182 655 LINE SMOOTH",
"179 655 OFFCURVE",
"178 655 OFFCURVE",
"177 651 CURVE SMOOTH",
"74 5 LINE SMOOTH",
"73 0 OFFCURVE",
"75 0 OFFCURVE",
"78 0 CURVE SMOOTH"
);
}
);
width = 223;
},
{
anchors = (
{
name = bottom;
position = "{86, 0}";
},
{
name = ogonek;
position = "{147, 10}";
},
{
name = top;
position = "{199, 655}";
},
{
name = topleft;
position = "{93, 655}";
}
);
layerId = "0382B793-66DA-492C-99CF-A998862EA4E0";
paths = (
{
closed = 1;
nodes = (
"128 0 LINE SMOOTH",
"134 0 OFFCURVE",
"137 4 OFFCURVE",
"138 10 CURVE SMOOTH",
"239 645 LINE SMOOTH",
"240 651 OFFCURVE",
"236 655 OFFCURVE",
"230 655 CURVE SMOOTH",
"166 655 LINE SMOOTH",
"159 655 OFFCURVE",
"156 651 OFFCURVE",
"155 645 CURVE SMOOTH",
"55 10 LINE SMOOTH",
"54 4 OFFCURVE",
"57 0 OFFCURVE",
"64 0 CURVE SMOOTH"
);
}
);
width = 250;
}
);
leftKerningGroup = H;
leftMetricsKey = H;
rightKerningGroup = H;
rightMetricsKey = H;
unicode = 0049;
},
{
glyphname = J;
lastChange = "2020-01-15 12:57:37 +0000";
layers = (
{
anchors = (
{
name = bottom;
position = "{124, 0}";
},
{
name = top;
position = "{228, 655}";
}
);
layerId = UUID0;
paths = (
{
closed = 1;
nodes = (
"132 -158 OFFCURVE",
"203 -67 OFFCURVE",
"234 127 CURVE SMOOTH",
"315 640 LINE SMOOTH",
"316 649 OFFCURVE",
"311 655 OFFCURVE",
"301 655 CURVE SMOOTH",
"149 655 LINE SMOOTH",
"140 655 OFFCURVE",
"135 649 OFFCURVE",
"134 640 CURVE SMOOTH",
"49 112 LINE SMOOTH",
"35 25 OFFCURVE",
"7 -12 OFFCURVE",
"-42 -21 CURVE SMOOTH",
"-51 -23 OFFCURVE",
"-56 -29 OFFCURVE",
"-55 -38 CURVE SMOOTH",
"-37 -162 LINE SMOOTH",
"-36 -171 OFFCURVE",
"-29 -175 OFFCURVE",
"-20 -174 CURVE SMOOTH"
);
}
);
width = 294;
},
{
anchors = (
{
name = bottom;
position = "{81, 0}";
},
{
name = top;
position = "{185, 655}";
}
);
layerId = "8E001827-4555-4882-9710-42A9586BB804";
paths = (
{
closed = 1;
nodes = (
"46 -122 OFFCURVE",
"79 -62 OFFCURVE",
"100 68 CURVE SMOOTH",
"193 651 LINE SMOOTH",
"194 655 OFFCURVE",
"192 655 OFFCURVE",
"189 655 CURVE SMOOTH",
"182 655 LINE SMOOTH",
"179 655 OFFCURVE",
"178 655 OFFCURVE",
"177 651 CURVE SMOOTH",
"84 68 LINE SMOOTH",
"64 -55 OFFCURVE",
"30 -109 OFFCURVE",
"-44 -125 CURVE SMOOTH",
"-49 -126 OFFCURVE",
"-49 -127 OFFCURVE",
"-48 -131 CURVE SMOOTH",
"-47 -136 LINE SMOOTH",
"-46 -140 OFFCURVE",
"-46 -141 OFFCURVE",
"-42 -140 CURVE SMOOTH"
);
}
);
width = 223;
},
{
anchors = (
{
name = bottom;
position = "{92, 0}";
},
{
name = top;
position = "{206, 655}";
}
);
layerId = "0382B793-66DA-492C-99CF-A998862EA4E0";
paths = (
{
closed = 1;
nodes = (
"82 -121 OFFCURVE",
"138 -49 OFFCURVE",
"158 75 CURVE SMOOTH",
"249 644 LINE SMOOTH",
"250 651 OFFCURVE",
"246 655 OFFCURVE",
"239 655 CURVE SMOOTH",
"177 655 LINE SMOOTH",
"171 655 OFFCURVE",
"166 651 OFFCURVE",
"165 645 CURVE SMOOTH",
"74 71 LINE SMOOTH",
"62 -2 OFFCURVE",
"22 -51 OFFCURVE",
"-39 -64 CURVE SMOOTH",
"-47 -66 OFFCURVE",
"-48 -69 OFFCURVE",
"-47 -77 CURVE SMOOTH",
"-40 -135 LINE SMOOTH",
"-39 -142 OFFCURVE",
"-35 -143 OFFCURVE",
"-26 -141 CURVE SMOOTH"
);
}
);
width = 261;
}
);
leftKerningGroup = J;
rightKerningGroup = J;
rightMetricsKey = H;
unicode = 004A;
},
{
glyphname = K;
lastChange = "2020-01-15 12:57:37 +0000";
layers = (
{
anchors = (
{
name = bottom;
position = "{291, 0}";
},
{
name = top;
position = "{394, 655}";
}
);
layerId = UUID0;
paths = (
{
closed = 1;
nodes = (
"190 0 LINE SMOOTH",
"199 0 OFFCURVE",
"204 6 OFFCURVE",
"205 15 CURVE",
"230 174 LINE",
"310 252 LINE",
"399 15 LINE SMOOTH",
"403 5 OFFCURVE",
"407 0 OFFCURVE",
"417 0 CURVE SMOOTH",
"594 0 LINE SMOOTH",
"604 0 OFFCURVE",
"610 7 OFFCURVE",
"607 15 CURVE SMOOTH",
"452 387 LINE",
"679 636 LINE SMOOTH",
"689 647 OFFCURVE",
"685 655 OFFCURVE",
"673 655 CURVE SMOOTH",
"490 655 LINE SMOOTH",
"483 655 OFFCURVE",
"476 652 OFFCURVE",
"471 646 CURVE SMOOTH",
"353 510 LINE SMOOTH",
"324 477 OFFCURVE",
"290 431 OFFCURVE",
"264 392 CURVE",
"261 392 LINE",
"271 431 OFFCURVE",
"277 469 OFFCURVE",
"283 508 CURVE SMOOTH",
"304 640 LINE SMOOTH",
"305 649 OFFCURVE",
"300 655 OFFCURVE",
"290 655 CURVE SMOOTH",
"138 655 LINE SMOOTH",
"129 655 OFFCURVE",
"124 649 OFFCURVE",
"123 640 CURVE SMOOTH",
"24 15 LINE",
"23 6 OFFCURVE",
"28 0 OFFCURVE",
"38 0 CURVE SMOOTH"
);
}
);
width = 640;
},
{
anchors = (
{
name = bottom;
position = "{255, 0}";
},
{
name = top;
position = "{354, 655}";
}
);
layerId = "8E001827-4555-4882-9710-42A9586BB804";
paths = (
{
closed = 1;
nodes = (
"85 0 LINE SMOOTH",
"88 0 OFFCURVE",
"89 0 OFFCURVE",
"90 5 CURVE SMOOTH",
"123 211 LINE",
"289 369 LINE",
"489 3 LINE SMOOTH",
"491 0 OFFCURVE",
"491 0 OFFCURVE",
"494 0 CURVE SMOOTH",
"504 0 LINE SMOOTH",
"507 0 OFFCURVE",
"507 2 OFFCURVE",
"506 4 CURVE SMOOTH",
"301 382 LINE",
"583 651 LINE SMOOTH",
"585 653 OFFCURVE",
"585 655 OFFCURVE",
"582 655 CURVE SMOOTH",
"567 655 LINE SMOOTH",
"565 655 OFFCURVE",
"564 655 OFFCURVE",
"562 653 CURVE SMOOTH",
"282 384 LINE SMOOTH",
"230 334 OFFCURVE",
"180 286 OFFCURVE",
"128 236 CURVE",
"127 236 LINE",
"137 296 OFFCURVE",
"146 352 OFFCURVE",
"155 410 CURVE SMOOTH",
"193 651 LINE SMOOTH",
"194 655 OFFCURVE",
"192 655 OFFCURVE",
"189 655 CURVE SMOOTH",
"182 655 LINE SMOOTH",
"179 655 OFFCURVE",
"178 655 OFFCURVE",
"177 651 CURVE SMOOTH",
"74 5 LINE SMOOTH",
"73 0 OFFCURVE",
"75 0 OFFCURVE",
"78 0 CURVE SMOOTH"
);
}
);
width = 558;
},
{
anchors = (
{
name = bottom;
position = "{271, 0}";
},
{
name = top;
position = "{371, 655}";
}
);
layerId = "0382B793-66DA-492C-99CF-A998862EA4E0";
paths = (
{
closed = 1;
nodes = (
"127 0 LINE SMOOTH",
"133 0 OFFCURVE",
"137 4 OFFCURVE",
"138 10 CURVE SMOOTH",
"171 220 LINE",
"285 327 LINE",
"441 10 LINE SMOOTH",
"444 4 OFFCURVE",
"448 0 OFFCURVE",
"455 0 CURVE SMOOTH",
"531 0 LINE SMOOTH",
"538 0 OFFCURVE",
"541 5 OFFCURVE",
"538 11 CURVE SMOOTH",
"351 389 LINE",
"621 643 LINE SMOOTH",
"626 648 OFFCURVE",
"624 655 OFFCURVE",
"618 655 CURVE SMOOTH",
"531 655 LINE SMOOTH",
"525 655 OFFCURVE",
"521 653 OFFCURVE",
"516 648 CURVE SMOOTH",
"317 457 LINE SMOOTH",
"275 416 OFFCURVE",
"231 374 OFFCURVE",
"189 333 CURVE",
"188 333 LINE",
"196 377 OFFCURVE",
"203 421 OFFCURVE",
"210 465 CURVE SMOOTH",
"239 645 LINE SMOOTH",
"240 651 OFFCURVE",
"236 655 OFFCURVE",
"230 655 CURVE SMOOTH",
"166 655 LINE SMOOTH",
"160 655 OFFCURVE",
"156 651 OFFCURVE",
"155 645 CURVE SMOOTH",
"55 10 LINE SMOOTH",
"54 4 OFFCURVE",
"57 0 OFFCURVE",
"64 0 CURVE SMOOTH"
);
}
);
width = 583;
}
);
leftKerningGroup = H;
leftMetricsKey = H;
rightKerningGroup = K;
unicode = 004B;
},
{
glyphname = L;
lastChange = "2020-01-15 12:57:37 +0000";
layers = (
{
anchors = (
{
name = bottom;
position = "{239, 0}";
},
{
name = center;
position = "{299, 328}";
},
{
name = top;
position = "{218, 655}";
},
{
name = topright;
position = "{568, 655}";
}
);
layerId = UUID0;
paths = (
{
closed = 1;
nodes = (
"442 0 LINE SMOOTH",
"450 0 OFFCURVE",
"456 6 OFFCURVE",
"457 15 CURVE SMOOTH",
"477 146 LINE SMOOTH",
"478 154 OFFCURVE",
"472 160 OFFCURVE",
"464 160 CURVE SMOOTH",
"228 160 LINE",
"304 640 LINE SMOOTH",
"305 649 OFFCURVE",
"300 655 OFFCURVE",
"290 655 CURVE SMOOTH",
"139 655 LINE SMOOTH",
"130 655 OFFCURVE",
"124 649 OFFCURVE",
"123 640 CURVE SMOOTH",
"24 15 LINE SMOOTH",
"23 6 OFFCURVE",
"27 0 OFFCURVE",
"36 0 CURVE SMOOTH"
);
}
);
width = 498;
},
{
anchors = (
{
name = bottom;
position = "{246, 0}";
},
{
name = center;
position = "{287, 328}";
},
{
name = top;
position = "{185, 655}";
},
{
name = topright;
position = "{552, 655}";
}
);
layerId = "8E001827-4555-4882-9710-42A9586BB804";
paths = (
{
closed = 1;
nodes = (
"410 0 LINE SMOOTH",
"413 0 OFFCURVE",
"414 0 OFFCURVE",
"415 3 CURVE SMOOTH",
"417 12 LINE SMOOTH",
"418 16 OFFCURVE",
"416 16 OFFCURVE",
"414 16 CURVE SMOOTH",
"92 16 LINE",
"193 651 LINE SMOOTH",
"194 655 OFFCURVE",
"192 655 OFFCURVE",
"189 655 CURVE SMOOTH",
"182 655 LINE SMOOTH",
"179 655 OFFCURVE",
"178 655 OFFCURVE",
"177 651 CURVE SMOOTH",
"74 4 LINE SMOOTH",
"73 0 OFFCURVE",
"75 0 OFFCURVE",
"78 0 CURVE SMOOTH"
);
}
);
width = 473;
},
{
anchors = (
{
name = bottom;
position = "{235, 0}";
},
{
name = center;
position = "{274, 328}";
},
{
name = top;
position = "{197, 655}";
},
{
name = topright;
position = "{501, 655}";
}
);
layerId = "0382B793-66DA-492C-99CF-A998862EA4E0";
paths = (
{
closed = 1;
nodes = (
"407 0 LINE SMOOTH",
"414 0 OFFCURVE",
"417 4 OFFCURVE",
"418 10 CURVE SMOOTH",
"427 66 LINE SMOOTH",
"428 73 OFFCURVE",
"424 77 OFFCURVE",
"418 77 CURVE SMOOTH",
"149 77 LINE",
"239 645 LINE SMOOTH",
"240 651 OFFCURVE",
"236 655 OFFCURVE",
"230 655 CURVE SMOOTH",
"166 655 LINE SMOOTH",
"160 655 OFFCURVE",
"156 651 OFFCURVE",
"155 645 CURVE SMOOTH",
"55 10 LINE SMOOTH",
"54 4 OFFCURVE",
"58 0 OFFCURVE",
"64 0 CURVE SMOOTH"
);
}
);
width = 466;
}
);
leftKerningGroup = H;
leftMetricsKey = H;
rightKerningGroup = L;
unicode = 004C;
},
{
glyphname = Lslash;
lastChange = "2020-01-15 12:57:37 +0000";
layers = (
{
components = (
{
name = L;
}
);
layerId = UUID0;
rightMetricsKey = "=L";
paths = (
{
closed = 1;
nodes = (
"360 327 LINE SMOOTH",
"369 329 OFFCURVE",
"374 335 OFFCURVE",
"376 344 CURVE SMOOTH",
"393 450 LINE SMOOTH",
"394 460 OFFCURVE",
"388 465 OFFCURVE",
"378 462 CURVE SMOOTH",
"40 370 LINE SMOOTH",
"32 368 OFFCURVE",
"26 362 OFFCURVE",
"25 353 CURVE SMOOTH",
"8 249 LINE SMOOTH",
"6 239 OFFCURVE",
"12 233 OFFCURVE",
"23 236 CURVE SMOOTH"
);
}
);
width = 498;
},
{
components = (
{
name = L;
}
);
layerId = "8E001827-4555-4882-9710-42A9586BB804";
paths = (
{
closed = 1;
nodes = (
"324 403 LINE SMOOTH",
"327 404 OFFCURVE",
"327 404 OFFCURVE",
"328 408 CURVE SMOOTH",
"330 418 LINE SMOOTH",
"331 422 OFFCURVE",
"329 422 OFFCURVE",
"327 421 CURVE SMOOTH",
"21 297 LINE SMOOTH",
"18 296 OFFCURVE",
"18 296 OFFCURVE",
"17 292 CURVE SMOOTH",
"15 282 LINE SMOOTH",
"14 278 OFFCURVE",
"16 278 OFFCURVE",
"18 279 CURVE SMOOTH"
);
}
);
width = 473;
},
{
components = (
{
name = L;
}
);
layerId = "0382B793-66DA-492C-99CF-A998862EA4E0";
paths = (
{
closed = 1;
nodes = (
"327 392 LINE SMOOTH",
"333 394 OFFCURVE",
"337 399 OFFCURVE",
"338 405 CURVE SMOOTH",
"347 459 LINE SMOOTH",
"348 467 OFFCURVE",
"344 471 OFFCURVE",
"337 468 CURVE SMOOTH",
"21 344 LINE SMOOTH",
"16 342 OFFCURVE",
"13 338 OFFCURVE",
"12 332 CURVE SMOOTH",
"4 276 LINE SMOOTH",
"3 269 OFFCURVE",
"7 266 OFFCURVE",
"14 269 CURVE SMOOTH"
);
}
);
width = 466;
}
);
leftKerningGroup = Lslash;
rightKerningGroup = L;
rightMetricsKey = "=L";
unicode = 0141;
},
{
glyphname = M;
lastChange = "2020-01-15 12:57:37 +0000";
layers = (
{
layerId = UUID0;
paths = (
{
closed = 1;
nodes = (
"177 0 LINE SMOOTH",
"186 0 OFFCURVE",
"191 6 OFFCURVE",
"192 15 CURVE SMOOTH",
"223 190 LINE SMOOTH",
"234 252 OFFCURVE",
"242 317 OFFCURVE",
"248 376 CURVE",
"252 376 LINE",
"266 321 OFFCURVE",
"287 256 OFFCURVE",
"307 201 CURVE SMOOTH",
"359 60 LINE SMOOTH",
"362 52 OFFCURVE",
"367 50 OFFCURVE",
"375 50 CURVE SMOOTH",
"383 50 LINE SMOOTH",
"391 50 OFFCURVE",
"396 52 OFFCURVE",
"402 60 CURVE SMOOTH",
"498 201 LINE SMOOTH",
"536 256 OFFCURVE",
"577 321 OFFCURVE",
"609 376 CURVE",
"613 376 LINE",
"600 318 OFFCURVE",
"587 251 OFFCURVE",
"579 191 CURVE SMOOTH",
"555 15 LINE SMOOTH",
"554 6 OFFCURVE",
"559 0 OFFCURVE",
"569 0 CURVE SMOOTH",
"717 0 LINE SMOOTH",
"726 0 OFFCURVE",
"732 6 OFFCURVE",
"733 15 CURVE SMOOTH",
"820 640 LINE SMOOTH",
"821 649 OFFCURVE",
"816 655 OFFCURVE",
"806 655 CURVE SMOOTH",
"637 655 LINE SMOOTH",
"628 655 OFFCURVE",
"621 650 OFFCURVE",
"615 640 CURVE SMOOTH",
"418 333 LINE",
"323 640 LINE SMOOTH",
"320 649 OFFCURVE",
"316 655 OFFCURVE",
"305 655 CURVE SMOOTH",
"139 655 LINE SMOOTH",
"130 655 OFFCURVE",
"125 649 OFFCURVE",
"124 640 CURVE SMOOTH",
"12 15 LINE SMOOTH",
"11 6 OFFCURVE",
"16 0 OFFCURVE",
"26 0 CURVE SMOOTH"
);
}
);
width = 800;
},
{
layerId = "8E001827-4555-4882-9710-42A9586BB804";
paths = (
{
closed = 1;
nodes = (
"69 0 LINE SMOOTH",
"72 0 OFFCURVE",
"73 0 OFFCURVE",
"74 5 CURVE SMOOTH",
"172 535 LINE SMOOTH",
"178 568 OFFCURVE",
"184 600 OFFCURVE",
"190 633 CURVE",
"191 633 LINE",
"201 602 OFFCURVE",
"210 575 OFFCURVE",
"220 545 CURVE SMOOTH",
"365 130 LINE SMOOTH",
"366 128 OFFCURVE",
"366 128 OFFCURVE",
"368 128 CURVE SMOOTH",
"369 128 LINE SMOOTH",
"370 128 OFFCURVE",
"371 128 OFFCURVE",
"372 130 CURVE SMOOTH",
"648 545 LINE SMOOTH",
"667 574 OFFCURVE",
"686 603 OFFCURVE",
"705 633 CURVE",
"706 633 LINE",
"701 596 OFFCURVE",
"697 566 OFFCURVE",
"693 535 CURVE SMOOTH",
"623 5 LINE SMOOTH",
"622 0 OFFCURVE",
"624 0 OFFCURVE",
"627 0 CURVE SMOOTH",
"634 0 LINE SMOOTH",
"637 0 OFFCURVE",
"638 0 OFFCURVE",
"639 5 CURVE SMOOTH",
"725 650 LINE SMOOTH",
"726 655 OFFCURVE",
"724 655 OFFCURVE",
"721 655 CURVE SMOOTH",
"705 655 LINE SMOOTH",
"702 655 OFFCURVE",
"701 655 OFFCURVE",
"699 652 CURVE SMOOTH",
"372 157 LINE",
"201 651 LINE SMOOTH",
"200 655 OFFCURVE",
"199 655 OFFCURVE",
"196 655 CURVE SMOOTH",
"183 655 LINE SMOOTH",
"180 655 OFFCURVE",
"179 655 OFFCURVE",
"178 651 CURVE SMOOTH",
"58 5 LINE SMOOTH",
"57 0 OFFCURVE",
"59 0 OFFCURVE",
"62 0 CURVE SMOOTH"
);
}
);
width = 743;
},
{
layerId = "0382B793-66DA-492C-99CF-A998862EA4E0";
paths = (
{
closed = 1;
nodes = (
"112 0 LINE SMOOTH",
"118 0 OFFCURVE",
"120 3 OFFCURVE",
"122 10 CURVE SMOOTH",
"196 416 LINE SMOOTH",
"204 462 OFFCURVE",
"210 511 OFFCURVE",
"216 558 CURVE",
"218 558 LINE",
"229 511 OFFCURVE",
"241 464 OFFCURVE",
"255 417 CURVE SMOOTH",
"349 91 LINE SMOOTH",
"350 86 OFFCURVE",
"353 84 OFFCURVE",
"358 84 CURVE SMOOTH",
"361 84 LINE SMOOTH",
"366 84 OFFCURVE",
"369 86 OFFCURVE",
"372 91 CURVE SMOOTH",
"569 412 LINE SMOOTH",
"599 461 OFFCURVE",
"626 509 OFFCURVE",
"653 558 CURVE",
"655 558 LINE",
"645 509 OFFCURVE",
"636 461 OFFCURVE",
"629 412 CURVE SMOOTH",
"575 10 LINE SMOOTH",
"574 3 OFFCURVE",
"577 0 OFFCURVE",
"583 0 CURVE SMOOTH",
"647 0 LINE SMOOTH",
"653 0 OFFCURVE",
"656 4 OFFCURVE",
"657 10 CURVE SMOOTH",
"743 645 LINE SMOOTH",
"744 652 OFFCURVE",
"741 655 OFFCURVE",
"734 655 CURVE SMOOTH",
"629 655 LINE SMOOTH",
"622 655 OFFCURVE",
"619 652 OFFCURVE",
"615 645 CURVE SMOOTH",
"385 253 LINE",
"276 645 LINE SMOOTH",
"274 651 OFFCURVE",
"272 655 OFFCURVE",
"265 655 CURVE SMOOTH",
"165 655 LINE SMOOTH",
"159 655 OFFCURVE",
"156 652 OFFCURVE",
"154 645 CURVE SMOOTH",
"40 10 LINE SMOOTH",
"39 3 OFFCURVE",
"43 0 OFFCURVE",
"49 0 CURVE SMOOTH"
);
}
);
width = 754;
}
);
leftKerningGroup = M;
rightKerningGroup = M;
unicode = 004D;
},
{
glyphname = N;
lastChange = "2020-01-15 12:57:37 +0000";
layers = (
{
anchors = (
{
name = bottom;
position = "{306, 0}";
},
{
name = top;
position = "{410, 655}";
}
);
layerId = UUID0;
rightMetricsKey = "=H";
paths = (
{
closed = 1;
nodes = (
"184 0 LINE SMOOTH",
"193 0 OFFCURVE",
"198 6 OFFCURVE",
"199 15 CURVE SMOOTH",
"230 208 LINE SMOOTH",
"240 271 OFFCURVE",
"246 334 OFFCURVE",
"251 397 CURVE",
"255 397 LINE",
"270 337 OFFCURVE",
"293 248 OFFCURVE",
"324 162 CURVE SMOOTH",
"376 15 LINE SMOOTH",
"379 5 OFFCURVE",
"385 0 OFFCURVE",
"393 0 CURVE SMOOTH",
"575 0 LINE SMOOTH",
"584 0 OFFCURVE",
"590 6 OFFCURVE",
"591 15 CURVE SMOOTH",
"690 640 LINE SMOOTH",
"691 649 OFFCURVE",
"686 655 OFFCURVE",
"676 655 CURVE SMOOTH",
"530 655 LINE SMOOTH",
"521 655 OFFCURVE",
"516 649 OFFCURVE",
"515 640 CURVE SMOOTH",
"482 435 LINE SMOOTH",
"472 373 OFFCURVE",
"468 311 OFFCURVE",
"467 249 CURVE",
"463 249 LINE",
"448 308 OFFCURVE",
"427 389 OFFCURVE",
"400 465 CURVE SMOOTH",
"338 640 LINE SMOOTH",
"335 650 OFFCURVE",
"331 655 OFFCURVE",
"319 655 CURVE SMOOTH",
"138 655 LINE SMOOTH",
"129 655 OFFCURVE",
"124 649 OFFCURVE",
"123 640 CURVE SMOOTH",
"24 15 LINE SMOOTH",
"23 6 OFFCURVE",
"28 0 OFFCURVE",
"38 0 CURVE SMOOTH"
);
}
);
width = 669;
},
{
anchors = (
{
name = bottom;
position = "{294, 0}";
},
{
name = top;
position = "{402, 655}";
}
);
guideLines = (
{
position = "{399, 245}";
},
{
position = "{372, 386}";
}
);
layerId = "8E001827-4555-4882-9710-42A9586BB804";
paths = (
{
closed = 1;
nodes = (
"85 0 LINE SMOOTH",
"88 0 OFFCURVE",
"89 0 OFFCURVE",
"90 5 CURVE SMOOTH",
"151 389 LINE SMOOTH",
"164 470 OFFCURVE",
"176 552 OFFCURVE",
"189 633 CURVE",
"190 633 LINE",
"230 551 OFFCURVE",
"271 468 OFFCURVE",
"311 386 CURVE SMOOTH",
"501 2 LINE SMOOTH",
"502 0 OFFCURVE",
"503 0 OFFCURVE",
"505 0 CURVE SMOOTH",
"517 0 LINE SMOOTH",
"520 0 OFFCURVE",
"521 0 OFFCURVE",
"522 4 CURVE SMOOTH",
"625 651 LINE SMOOTH",
"626 655 OFFCURVE",
"624 655 OFFCURVE",
"621 655 CURVE SMOOTH",
"614 655 LINE SMOOTH",
"611 655 OFFCURVE",
"610 655 OFFCURVE",
"609 651 CURVE SMOOTH",
"544 244 LINE SMOOTH",
"532 170 OFFCURVE",
"521 96 OFFCURVE",
"509 22 CURVE",
"508 22 LINE",
"471 96 OFFCURVE",
"435 171 OFFCURVE",
"398 245 CURVE SMOOTH",
"198 651 LINE SMOOTH",
"197 653 OFFCURVE",
"196 655 OFFCURVE",
"193 655 CURVE SMOOTH",
"182 655 LINE SMOOTH",
"179 655 OFFCURVE",
"178 655 OFFCURVE",
"177 651 CURVE SMOOTH",
"74 5 LINE SMOOTH",
"73 0 OFFCURVE",
"75 0 OFFCURVE",
"78 0 CURVE SMOOTH"
);
}
);
width = 655;
},
{
anchors = (
{
name = bottom;
position = "{289, 0}";
},
{
name = top;
position = "{389, 655}";
}
);
guideLines = (
{
position = "{372, 386}";
}
);
layerId = "0382B793-66DA-492C-99CF-A998862EA4E0";
paths = (
{
closed = 1;
nodes = (
"127 0 LINE SMOOTH",
"133 0 OFFCURVE",
"136 4 OFFCURVE",
"137 10 CURVE SMOOTH",
"196 384 LINE SMOOTH",
"206 444 OFFCURVE",
"215 501 OFFCURVE",
"225 563 CURVE",
"226 563 LINE",
"244 508 OFFCURVE",
"262 454 OFFCURVE",
"280 399 CURVE SMOOTH",
"410 10 LINE SMOOTH",
"412 4 OFFCURVE",
"417 0 OFFCURVE",
"423 0 CURVE SMOOTH",
"527 0 LINE SMOOTH",
"533 0 OFFCURVE",
"536 4 OFFCURVE",
"537 10 CURVE SMOOTH",
"638 645 LINE SMOOTH",
"639 651 OFFCURVE",
"635 655 OFFCURVE",
"629 655 CURVE SMOOTH",
"566 655 LINE SMOOTH",
"560 655 OFFCURVE",
"556 651 OFFCURVE",
"555 645 CURVE SMOOTH",
"492 245 LINE SMOOTH",
"484 194 OFFCURVE",
"476 143 OFFCURVE",
"468 92 CURVE",
"467 92 LINE",
"450 144 OFFCURVE",
"434 195 OFFCURVE",
"417 247 CURVE SMOOTH",
"285 645 LINE SMOOTH",
"283 651 OFFCURVE",
"280 655 OFFCURVE",
"274 655 CURVE SMOOTH",
"166 655 LINE SMOOTH",
"160 655 OFFCURVE",
"156 651 OFFCURVE",
"155 645 CURVE SMOOTH",
"55 10 LINE SMOOTH",
"54 4 OFFCURVE",
"58 0 OFFCURVE",
"64 0 CURVE SMOOTH"
);
}
);
width = 649;
}
);
leftKerningGroup = H;
leftMetricsKey = H;
rightKerningGroup = H;
rightMetricsKey = H;
unicode = 004E;
},
{
glyphname = Eng;
lastChange = "2020-01-15 12:57:37 +0000";
layers = (
{
layerId = UUID0;
paths = (
{
closed = 1;
nodes = (
"536 -135 OFFCURVE",
"579 -59 OFFCURVE",
"604 94 CURVE SMOOTH",
"690 640 LINE SMOOTH",
"691 649 OFFCURVE",
"686 655 OFFCURVE",
"676 655 CURVE SMOOTH",
"530 655 LINE SMOOTH",
"521 655 OFFCURVE",
"516 649 OFFCURVE",
"515 640 CURVE SMOOTH",
"482 435 LINE SMOOTH",
"472 373 OFFCURVE",
"468 311 OFFCURVE",
"467 249 CURVE",
"463 249 LINE",
"448 308 OFFCURVE",
"427 389 OFFCURVE",
"400 465 CURVE SMOOTH",
"338 640 LINE SMOOTH",
"335 650 OFFCURVE",
"331 655 OFFCURVE",
"319 655 CURVE SMOOTH",
"138 655 LINE SMOOTH",
"129 655 OFFCURVE",
"124 649 OFFCURVE",
"123 640 CURVE SMOOTH",
"24 15 LINE SMOOTH",
"23 6 OFFCURVE",
"28 0 OFFCURVE",
"38 0 CURVE SMOOTH",
"184 0 LINE SMOOTH",
"193 0 OFFCURVE",
"198 6 OFFCURVE",
"199 15 CURVE SMOOTH",
"230 208 LINE SMOOTH",
"240 271 OFFCURVE",
"246 334 OFFCURVE",
"251 397 CURVE",
"255 397 LINE",
"270 337 OFFCURVE",
"294 248 OFFCURVE",
"324 162 CURVE SMOOTH",
"376 15 LINE SMOOTH",
"379 5 OFFCURVE",
"385 0 OFFCURVE",
"393 0 CURVE SMOOTH",
"400 0 LINE",
"389 -26 OFFCURVE",
"365 -51 OFFCURVE",
"338 -67 CURVE SMOOTH",
"330 -72 OFFCURVE",
"330 -83 OFFCURVE",
"334 -89 CURVE SMOOTH",
"405 -190 LINE SMOOTH",
"409 -195 OFFCURVE",
"415 -196 OFFCURVE",
"421 -193 CURVE SMOOTH"
);
}
);
width = 670;
},
{
layerId = "8E001827-4555-4882-9710-42A9586BB804";
paths = (
{
closed = 1;
nodes = (
"483 -112 OFFCURVE",
"511 -65 OFFCURVE",
"527 36 CURVE SMOOTH",
"625 651 LINE",
"626 655 OFFCURVE",
"624 655 OFFCURVE",
"621 655 CURVE SMOOTH",
"614 655 LINE SMOOTH",
"611 655 OFFCURVE",
"610 655 OFFCURVE",
"609 651 CURVE",
"544 244 LINE SMOOTH",
"532 170 OFFCURVE",
"521 96 OFFCURVE",
"509 22 CURVE",
"508 22 LINE",
"471 97 OFFCURVE",
"435 171 OFFCURVE",
"398 245 CURVE SMOOTH",
"198 651 LINE SMOOTH",
"197 653 OFFCURVE",
"196 655 OFFCURVE",
"193 655 CURVE SMOOTH",
"182 655 LINE SMOOTH",
"179 655 OFFCURVE",
"178 655 OFFCURVE",
"177 651 CURVE",
"74 5 LINE",
"73 0 OFFCURVE",
"75 0 OFFCURVE",
"78 0 CURVE SMOOTH",
"85 0 LINE SMOOTH",
"88 0 OFFCURVE",
"89 0 OFFCURVE",
"90 5 CURVE",
"151 389 LINE SMOOTH",
"164 470 OFFCURVE",
"176 552 OFFCURVE",
"189 633 CURVE",
"190 633 LINE",
"230 551 OFFCURVE",
"271 468 OFFCURVE",
"311 386 CURVE SMOOTH",
"501 2 LINE SMOOTH",
"502 0 OFFCURVE",
"502 0 OFFCURVE",
"504 0 CURVE SMOOTH",
"505 0 LINE",
"488 -69 OFFCURVE",
"458 -110 OFFCURVE",
"396 -155 CURVE",
"394 -156 OFFCURVE",
"394 -157 OFFCURVE",
"395 -159 CURVE",
"400 -168 LINE",
"401 -170 OFFCURVE",
"403 -170 OFFCURVE",
"405 -168 CURVE"
);
}
);
width = 655;
},
{
layerId = "0382B793-66DA-492C-99CF-A998862EA4E0";
paths = (
{
closed = 1;
nodes = (
"493 -152 OFFCURVE",
"530 -45 OFFCURVE",
"544 47 CURVE SMOOTH",
"638 645 LINE",
"639 651 OFFCURVE",
"635 655 OFFCURVE",
"629 655 CURVE SMOOTH",
"566 655 LINE SMOOTH",
"560 655 OFFCURVE",
"556 651 OFFCURVE",
"555 645 CURVE SMOOTH",
"492 245 LINE SMOOTH",
"484 194 OFFCURVE",
"476 143 OFFCURVE",
"468 92 CURVE",
"467 92 LINE",
"450 144 OFFCURVE",
"434 195 OFFCURVE",
"417 247 CURVE SMOOTH",
"285 645 LINE SMOOTH",
"283 651 OFFCURVE",
"280 655 OFFCURVE",
"274 655 CURVE SMOOTH",
"166 655 LINE SMOOTH",
"160 655 OFFCURVE",
"156 651 OFFCURVE",
"155 645 CURVE SMOOTH",
"55 10 LINE SMOOTH",
"54 4 OFFCURVE",
"58 0 OFFCURVE",
"64 0 CURVE SMOOTH",
"127 0 LINE SMOOTH",
"133 0 OFFCURVE",
"136 4 OFFCURVE",
"137 10 CURVE SMOOTH",
"196 384 LINE SMOOTH",
"205 444 OFFCURVE",
"215 503 OFFCURVE",
"225 563 CURVE",
"226 563 LINE",
"244 508 OFFCURVE",
"262 454 OFFCURVE",
"280 399 CURVE SMOOTH",
"410 10 LINE SMOOTH",
"412 4 OFFCURVE",
"417 0 OFFCURVE",
"423 0 CURVE SMOOTH",
"450 0 LINE",
"433 -61 OFFCURVE",
"408 -108 OFFCURVE",
"374 -140 CURVE SMOOTH",
"367 -147 OFFCURVE",
"368 -153 OFFCURVE",
"374 -158 CURVE SMOOTH",
"417 -193 LINE SMOOTH",
"422 -197 OFFCURVE",
"427 -199 OFFCURVE",
"431 -196 CURVE SMOOTH"
);
}
);
width = 650;
}
);
leftKerningGroup = H;
leftMetricsKey = H;
rightKerningGroup = H;
rightMetricsKey = H;
unicode = 014A;
},
{
glyphname = O;
lastChange = "2020-01-15 12:57:37 +0000";
layers = (
{
anchors = (
{
name = bottom;
position = "{298, 0}";
},
{
name = center;
position = "{350, 328}";
},
{
name = ogonek;
position = "{562, 10}";
},
{
name = top;
position = "{402, 655}";
},
{
name = topleft;
position = "{97, 655}";
},
{
name = topright;
position = "{710, 655}";
}
);
layerId = UUID0;
paths = (
{
closed = 1;
nodes = (
"496 -12 OFFCURVE",
"597 68 OFFCURVE",
"625 245 CURVE SMOOTH",
"648 389 LINE SMOOTH",
"677 568 OFFCURVE",
"583 667 OFFCURVE",
"388 667 CURVE SMOOTH",
"202 667 OFFCURVE",
"102 587 OFFCURVE",
"74 410 CURVE SMOOTH",
"51 267 LINE SMOOTH",
"22 88 OFFCURVE",
"115 -12 OFFCURVE",
"310 -12 CURVE SMOOTH"
);
},
{
closed = 1;
nodes = (
"251.256 150.984 OFFCURVE",
"220.789 190.655 OFFCURVE",
"234 275 CURVE SMOOTH",
"253 395 LINE SMOOTH",
"264.984 471.26 OFFCURVE",
"301.538 505.924 OFFCURVE",
"369 505 CURVE SMOOTH",
"447.744 504.016 OFFCURVE",
"478.211 464.345 OFFCURVE",
"465 380 CURVE SMOOTH",
"446 260 LINE SMOOTH",
"434.016 183.74 OFFCURVE",
"397.462 149.076 OFFCURVE",
"330 150 CURVE SMOOTH"
);
}
);
width = 655;
},
{
anchors = (
{
name = bottom;
position = "{286, 0}";
},
{
name = center;
position = "{338, 328}";
},
{
name = ogonek;
position = "{541, 10}";
},
{
name = top;
position = "{389, 655}";
},
{
name = topleft;
position = "{94, 655}";
},
{
name = topright;
position = "{686, 655}";
}
);
layerId = "8E001827-4555-4882-9710-42A9586BB804";
paths = (
{
closed = 1;
nodes = (
"442 -12 OFFCURVE",
"522.226 49.438 OFFCURVE",
"544 188 CURVE SMOOTH",
"583 438 LINE SMOOTH",
"605 580 OFFCURVE",
"533 667 OFFCURVE",
"378 667 CURVE SMOOTH",
"234 667 OFFCURVE",
"152.774 605.562 OFFCURVE",
"131 467 CURVE SMOOTH",
"92 216 LINE SMOOTH",
"69.872 76.194 OFFCURVE",
"145 -12 OFFCURVE",
"297 -12 CURVE SMOOTH"
);
},
{
closed = 1;
nodes = (
"155 4 OFFCURVE",
"86.864 85.152 OFFCURVE",
"108 217 CURVE SMOOTH",
"147 466 LINE SMOOTH",
"166.729 594.239 OFFCURVE",
"242 651 OFFCURVE",
"377 651 CURVE SMOOTH",
"523 651 OFFCURVE",
"588.136 569.848 OFFCURVE",
"567 438 CURVE SMOOTH",
"528 189 LINE SMOOTH",
"508.271 60.761 OFFCURVE",
"433 4 OFFCURVE",
"298 4 CURVE SMOOTH"
);
}
);
width = 629;
},
{
anchors = (
{
name = bottom;
position = "{276, 0}";
},
{
name = center;
position = "{328, 328}";
},
{
name = ogonek;
position = "{527, 10}";
},
{
name = top;
position = "{384, 655}";
},
{
name = topleft;
position = "{143, 655}";
},
{
name = topright;
position = "{674, 655}";
}
);
layerId = "0382B793-66DA-492C-99CF-A998862EA4E0";
paths = (
{
closed = 1;
nodes = (
"449 -12 OFFCURVE",
"537 64 OFFCURVE",
"561 214 CURVE SMOOTH",
"594 423 LINE SMOOTH",
"618 573 OFFCURVE",
"548 667 OFFCURVE",
"384 667 CURVE SMOOTH",
"224 667 OFFCURVE",
"136 591 OFFCURVE",
"112 441 CURVE SMOOTH",
"79 232 LINE SMOOTH",
"55 82 OFFCURVE",
"125 -12 OFFCURVE",
"289 -12 CURVE SMOOTH"
);
},
{
closed = 1;
nodes = (
"194 63 OFFCURVE",
"144 119 OFFCURVE",
"162 231 CURVE SMOOTH",
"195 440 LINE SMOOTH",
"212 546 OFFCURVE",
"271 592 OFFCURVE",
"375 592 CURVE SMOOTH",
"479 592 OFFCURVE",
"529 536 OFFCURVE",
"511 424 CURVE SMOOTH",
"478 215 LINE SMOOTH",
"461 109 OFFCURVE",
"401 63 OFFCURVE",
"298 63 CURVE SMOOTH"
);
}
);
width = 629;
}
);
leftKerningGroup = O;
rightKerningGroup = O;
unicode = 004F;
},
{
glyphname = Oslash;
lastChange = "2020-01-15 12:57:37 +0000";
layers = (
{
anchors = (
{
name = top;
position = "{403, 655}";
}
);
components = (
{
name = O;
}
);
layerId = UUID0;
paths = (
{
closed = 1;
nodes = (
"149 -50 LINE SMOOTH",
"159 -50 OFFCURVE",
"164 -46 OFFCURVE",
"172 -35 CURVE SMOOTH",
"205 13 LINE",
"281 148 LINE",
"486 446 LINE",
"600 579 LINE",
"677 690 LINE SMOOTH",
"682 698 OFFCURVE",
"679 705 OFFCURVE",
"669 705 CURVE SMOOTH",
"550 705 LINE SMOOTH",
"541 705 OFFCURVE",
"535 700 OFFCURVE",
"529 690 CURVE SMOOTH",
"494 637 LINE",
"422 505 LINE",
"205 191 LINE",
"106 81 LINE",
"24 -34 LINE SMOOTH",
"19 -41 OFFCURVE",
"22 -50 OFFCURVE",
"30 -50 CURVE SMOOTH"
);
}
);
width = 655;
},
{
anchors = (
{
name = top;
position = "{338, 655}";
}
);
components = (
{
name = O;
}
);
layerId = "8E001827-4555-4882-9710-42A9586BB804";
paths = (
{
closed = 1;
nodes = (
"45 -48 LINE SMOOTH",
"48 -48 OFFCURVE",
"49 -47 OFFCURVE",
"51 -44 CURVE SMOOTH",
"133 58 LINE",
"138 65 LINE",
"548 580 LINE",
"552 585 LINE",
"642 698 LINE SMOOTH",
"644 701 OFFCURVE",
"643 703 OFFCURVE",
"640 703 CURVE SMOOTH",
"629 703 LINE SMOOTH",
"627 703 OFFCURVE",
"626 703 OFFCURVE",
"624 700 CURVE SMOOTH",
"544 599 LINE",
"538 592 LINE",
"128 76 LINE",
"124 71 LINE",
"33 -43 LINE SMOOTH",
"31 -45 OFFCURVE",
"31 -48 OFFCURVE",
"34 -48 CURVE SMOOTH"
);
}
);
width = 629;
},
{
anchors = (
{
name = top;
position = "{378, 655}";
}
);
components = (
{
name = O;
}
);
layerId = "0382B793-66DA-492C-99CF-A998862EA4E0";
paths = (
{
closed = 1;
nodes = (
"74 -50 LINE SMOOTH",
"80 -50 OFFCURVE",
"84 -48 OFFCURVE",
"88 -43 CURVE SMOOTH",
"158 47 LINE",
"179 73 LINE",
"536 530 LINE",
"558 558 LINE",
"666 695 LINE SMOOTH",
"670 701 OFFCURVE",
"667 705 OFFCURVE",
"660 705 CURVE SMOOTH",
"597 705 LINE SMOOTH",
"591 705 OFFCURVE",
"586 701 OFFCURVE",
"582 695 CURVE SMOOTH",
"512 606 LINE",
"493 582 LINE",
"143 134 LINE",
"118 101 LINE",
"9 -38 LINE SMOOTH",
"4 -45 OFFCURVE",
"5 -50 OFFCURVE",
"13 -50 CURVE SMOOTH"
);
}
);
width = 629;
}
);
leftKerningGroup = O;
rightKerningGroup = O;
unicode = 00D8;
},
{
glyphname = OE;
lastChange = "2020-01-15 12:57:37 +0000";
layers = (
{
layerId = UUID0;
paths = (
{
closed = 1;
nodes = (
"334 -12 OFFCURVE",
"371 -6 OFFCURVE",
"392 0 CURVE",
"803 0 LINE SMOOTH",
"811 0 OFFCURVE",
"817 6 OFFCURVE",
"818 15 CURVE SMOOTH",
"838 146 LINE SMOOTH",
"839 154 OFFCURVE",
"833 160 OFFCURVE",
"825 160 CURVE SMOOTH",
"571 160 LINE",
"586 253 LINE",
"819 253 LINE SMOOTH",
"827 253 OFFCURVE",
"833 259 OFFCURVE",
"834 268 CURVE SMOOTH",
"853 389 LINE SMOOTH",
"855 399 OFFCURVE",
"849 404 OFFCURVE",
"840 404 CURVE SMOOTH",
"610 404 LINE",
"624 495 LINE",
"881 495 LINE SMOOTH",
"889 495 OFFCURVE",
"895 502 OFFCURVE",
"896 510 CURVE SMOOTH",
"917 640 LINE SMOOTH",
"919 650 OFFCURVE",
"912 655 OFFCURVE",
"903 655 CURVE SMOOTH",
"491 655 LINE",
"466 661 OFFCURVE",
"422 667 OFFCURVE",
"379 667 CURVE SMOOTH",
"202 667 OFFCURVE",
"101 585 OFFCURVE",
"73 408 CURVE SMOOTH",
"50 265 LINE SMOOTH",
"21 86 OFFCURVE",
"124 -12 OFFCURVE",
"282 -12 CURVE SMOOTH"
);
},
{
closed = 1;
nodes = (
"250 148 OFFCURVE",
"220 191 OFFCURVE",
"233 275 CURVE SMOOTH",
"252 395 LINE SMOOTH",
"264 471 OFFCURVE",
"302 507 OFFCURVE",
"369 507 CURVE SMOOTH",
"396 507 OFFCURVE",
"426 501 OFFCURVE",
"442 495 CURVE",
"388 156 LINE",
"373 151 OFFCURVE",
"358 148 OFFCURVE",
"329 148 CURVE SMOOTH"
);
}
);
width = 884;
},
{
layerId = "8E001827-4555-4882-9710-42A9586BB804";
paths = (
{
closed = 1;
nodes = (
"339 -12 OFFCURVE",
"375 -6 OFFCURVE",
"398 0 CURVE",
"739 0 LINE SMOOTH",
"742 0 OFFCURVE",
"743 0 OFFCURVE",
"744 3 CURVE SMOOTH",
"746 12 LINE SMOOTH",
"747 16 OFFCURVE",
"745 16 OFFCURVE",
"743 16 CURVE SMOOTH",
"415 16 LINE",
"465 328 LINE",
"769 328 LINE SMOOTH",
"772 328 OFFCURVE",
"773 328 OFFCURVE",
"774 331 CURVE SMOOTH",
"776 340 LINE SMOOTH",
"777 344 OFFCURVE",
"775 344 OFFCURVE",
"773 344 CURVE SMOOTH",
"468 344 LINE",
"514 639 LINE",
"840 639 LINE SMOOTH",
"843 639 OFFCURVE",
"844 639 OFFCURVE",
"845 642 CURVE SMOOTH",
"847 651 LINE SMOOTH",
"848 655 OFFCURVE",
"846 655 OFFCURVE",
"844 655 CURVE SMOOTH",
"503 655 LINE",
"471 661 OFFCURVE",
"426 667 OFFCURVE",
"370 667 CURVE SMOOTH",
"226 667 OFFCURVE",
"153 606 OFFCURVE",
"131 467 CURVE SMOOTH",
"92 216 LINE SMOOTH",
"70 76 OFFCURVE",
"153 -12 OFFCURVE",
"305 -12 CURVE SMOOTH"
);
},
{
closed = 1;
nodes = (
"163 4 OFFCURVE",
"87 85 OFFCURVE",
"108 217 CURVE SMOOTH",
"147 466 LINE SMOOTH",
"167 594 OFFCURVE",
"234 651 OFFCURVE",
"369 651 CURVE SMOOTH",
"427 651 OFFCURVE",
"470 646 OFFCURVE",
"498 640 CURVE",
"399 16 LINE",
"371 9 OFFCURVE",
"337 4 OFFCURVE",
"306 4 CURVE SMOOTH"
);
}
);
width = 863;
},
{
layerId = "0382B793-66DA-492C-99CF-A998862EA4E0";
paths = (
{
closed = 1;
nodes = (
"320 -12 OFFCURVE",
"360 -8 OFFCURVE",
"388 0 CURVE",
"747 0 LINE SMOOTH",
"753 0 OFFCURVE",
"758 4 OFFCURVE",
"759 10 CURVE SMOOTH",
"768 67 LINE SMOOTH",
"769 73 OFFCURVE",
"765 77 OFFCURVE",
"759 77 CURVE SMOOTH",
"484 77 LINE",
"519 296 LINE",
"771 296 LINE SMOOTH",
"776 296 OFFCURVE",
"781 300 OFFCURVE",
"782 306 CURVE SMOOTH",
"790 360 LINE SMOOTH",
"791 366 OFFCURVE",
"788 370 OFFCURVE",
"782 370 CURVE SMOOTH",
"530 370 LINE",
"563 578 LINE",
"839 578 LINE SMOOTH",
"845 578 OFFCURVE",
"849 582 OFFCURVE",
"850 588 CURVE SMOOTH",
"859 645 LINE SMOOTH",
"860 651 OFFCURVE",
"857 655 OFFCURVE",
"851 655 CURVE SMOOTH",
"492 655 LINE",
"466 662 OFFCURVE",
"416 667 OFFCURVE",
"381 667 CURVE SMOOTH",
"219 667 OFFCURVE",
"135 585 OFFCURVE",
"112 437 CURVE SMOOTH",
"80 228 LINE SMOOTH",
"58 83 OFFCURVE",
"128 -12 OFFCURVE",
"286 -12 CURVE SMOOTH"
);
},
{
closed = 1;
nodes = (
"192 63 OFFCURVE",
"146 123 OFFCURVE",
"162 226 CURVE SMOOTH",
"195 436 LINE SMOOTH",
"211 538 OFFCURVE",
"265 592 OFFCURVE",
"369 592 CURVE SMOOTH",
"407 592 OFFCURVE",
"457 589 OFFCURVE",
"481 583 CURVE",
"400 72 LINE",
"374 66 OFFCURVE",
"333 63 OFFCURVE",
"296 63 CURVE SMOOTH"
);
}
);
width = 857;
}
);
leftKerningGroup = O;
leftMetricsKey = O;
rightKerningGroup = E;
rightMetricsKey = E;
unicode = 0152;
},
{
glyphname = P;
lastChange = "2020-01-15 12:57:37 +0000";
layers = (
{
layerId = UUID0;
paths = (
{
closed = 1;
nodes = (
"190 0 LINE SMOOTH",
"199 0 OFFCURVE",
"204 6 OFFCURVE",
"205 15 CURVE SMOOTH",
"234 195 LINE",
"306 195 LINE SMOOTH",
"488 195 OFFCURVE",
"591 298 OFFCURVE",
"591 453 CURVE SMOOTH",
"591 593 OFFCURVE",
"512 655 OFFCURVE",
"343 655 CURVE SMOOTH",
"138 655 LINE SMOOTH",
"129 655 OFFCURVE",
"124 649 OFFCURVE",
"123 640 CURVE SMOOTH",
"24 15 LINE SMOOTH",
"23 6 OFFCURVE",
"28 0 OFFCURVE",
"38 0 CURVE SMOOTH"
);
},
{
closed = 1;
nodes = (
"281 495 LINE",
"330 495 LINE SMOOTH",
"379 495 OFFCURVE",
"405 477 OFFCURVE",
"405 436 CURVE SMOOTH",
"405 378 OFFCURVE",
"374 353 OFFCURVE",
"312 353 CURVE SMOOTH",
"259 353 LINE"
);
}
);
width = 571;
},
{
layerId = "8E001827-4555-4882-9710-42A9586BB804";
paths = (
{
closed = 1;
nodes = (
"85 0 LINE SMOOTH",
"88 0 OFFCURVE",
"89 0 OFFCURVE",
"90 5 CURVE SMOOTH",
"133 277 LINE",
"276 277 LINE SMOOTH",
"442 277 OFFCURVE",
"527 356 OFFCURVE",
"527 503 CURVE SMOOTH",
"527 610 OFFCURVE",
"447 655 OFFCURVE",
"313 655 CURVE SMOOTH",
"182 655 LINE SMOOTH",
"179 655 OFFCURVE",
"178 655 OFFCURVE",
"177 651 CURVE SMOOTH",
"74 5 LINE SMOOTH",
"73 0 OFFCURVE",
"75 0 OFFCURVE",
"78 0 CURVE SMOOTH"
);
},
{
closed = 1;
nodes = (
"191 639 LINE",
"313 639 LINE SMOOTH",
"435 639 OFFCURVE",
"511 600 OFFCURVE",
"511 502 CURVE SMOOTH",
"511 365 OFFCURVE",
"435 293 OFFCURVE",
"276 293 CURVE SMOOTH",
"136 293 LINE"
);
}
);
width = 538;
},
{
layerId = "0382B793-66DA-492C-99CF-A998862EA4E0";
paths = (
{
closed = 1;
nodes = (
"127 0 LINE SMOOTH",
"133 0 OFFCURVE",
"137 4 OFFCURVE",
"138 10 CURVE SMOOTH",
"176 247 LINE",
"264 247 LINE SMOOTH",
"434 247 OFFCURVE",
"540 327 OFFCURVE",
"540 485 CURVE SMOOTH",
"540 590 OFFCURVE",
"482 655 OFFCURVE",
"334 655 CURVE SMOOTH",
"167 655 LINE SMOOTH",
"161 655 OFFCURVE",
"156 651 OFFCURVE",
"155 645 CURVE SMOOTH",
"55 10 LINE SMOOTH",
"54 4 OFFCURVE",
"57 0 OFFCURVE",
"64 0 CURVE SMOOTH"
);
},
{
closed = 1;
nodes = (
"229 583 LINE",
"324 583 LINE SMOOTH",
"413 583 OFFCURVE",
"456 553 OFFCURVE",
"456 478 CURVE SMOOTH",
"456 371 OFFCURVE",
"392 319 OFFCURVE",
"274 319 CURVE SMOOTH",
"187 319 LINE"
);
}
);
width = 534;
}
);
leftKerningGroup = H;
leftMetricsKey = H;
rightKerningGroup = P;
unicode = 0050;
},
{
glyphname = Thorn;
lastChange = "2020-01-15 12:57:37 +0000";
layers = (
{
layerId = UUID0;
paths = (
{
closed = 1;
nodes = (
"190 0 LINE SMOOTH",
"199 0 OFFCURVE",
"204 6 OFFCURVE",
"205 15 CURVE SMOOTH",
"220 107 LINE",
"292 107 LINE SMOOTH",
"474 107 OFFCURVE",
"577 210 OFFCURVE",
"577 365 CURVE SMOOTH",
"577 505 OFFCURVE",
"498 567 OFFCURVE",
"329 567 CURVE SMOOTH",
"292 567 LINE",
"304 640 LINE SMOOTH",
"305 649 OFFCURVE",
"300 655 OFFCURVE",
"290 655 CURVE SMOOTH",
"138 655 LINE SMOOTH",
"129 655 OFFCURVE",
"124 649 OFFCURVE",
"123 640 CURVE SMOOTH",
"24 15 LINE SMOOTH",
"23 6 OFFCURVE",
"28 0 OFFCURVE",
"38 0 CURVE SMOOTH"
);
},
{
closed = 1;
nodes = (
"267 407 LINE",
"316 407 LINE SMOOTH",
"365 407 OFFCURVE",
"391 389 OFFCURVE",
"391 348 CURVE SMOOTH",
"391 290 OFFCURVE",
"360 265 OFFCURVE",
"298 265 CURVE SMOOTH",
"245 265 LINE"
);
}
);
width = 571;
},
{
layerId = "8E001827-4555-4882-9710-42A9586BB804";
paths = (
{
closed = 1;
nodes = (
"85 0 LINE SMOOTH",
"88 0 OFFCURVE",
"89 0 OFFCURVE",
"90 5 CURVE SMOOTH",
"113 150 LINE",
"256 150 LINE SMOOTH",
"422 150 OFFCURVE",
"507 229 OFFCURVE",
"507 376 CURVE SMOOTH",
"507 483 OFFCURVE",
"427 528 OFFCURVE",
"293 528 CURVE SMOOTH",
"173 528 LINE",
"193 651 LINE SMOOTH",
"194 655 OFFCURVE",
"192 655 OFFCURVE",
"189 655 CURVE SMOOTH",
"182 655 LINE SMOOTH",
"179 655 OFFCURVE",
"178 655 OFFCURVE",
"177 651 CURVE SMOOTH",
"74 5 LINE SMOOTH",
"73 0 OFFCURVE",
"75 0 OFFCURVE",
"78 0 CURVE SMOOTH"
);
},
{
closed = 1;
nodes = (
"171 512 LINE",
"293 512 LINE SMOOTH",
"415 512 OFFCURVE",
"491 473 OFFCURVE",
"491 375 CURVE SMOOTH",
"491 238 OFFCURVE",
"415 166 OFFCURVE",
"256 166 CURVE SMOOTH",
"116 166 LINE"
);
}
);
width = 539;
},
{
layerId = "0382B793-66DA-492C-99CF-A998862EA4E0";
paths = (
{
closed = 1;
nodes = (
"127 0 LINE SMOOTH",
"133 0 OFFCURVE",
"137 4 OFFCURVE",
"138 10 CURVE SMOOTH",
"158 136 LINE",
"247 136 LINE SMOOTH",
"417 136 OFFCURVE",
"523 216 OFFCURVE",
"523 374 CURVE SMOOTH",
"523 479 OFFCURVE",
"465 544 OFFCURVE",
"317 544 CURVE SMOOTH",
"223 544 LINE",
"239 645 LINE SMOOTH",
"240 651 OFFCURVE",
"237 655 OFFCURVE",
"231 655 CURVE SMOOTH",
"166 655 LINE SMOOTH",
"160 655 OFFCURVE",
"156 651 OFFCURVE",
"155 645 CURVE SMOOTH",
"55 10 LINE SMOOTH",
"54 4 OFFCURVE",
"57 0 OFFCURVE",
"64 0 CURVE SMOOTH"
);
},
{
closed = 1;
nodes = (
"211 472 LINE",
"307 472 LINE SMOOTH",
"396 472 OFFCURVE",
"439 442 OFFCURVE",
"439 367 CURVE SMOOTH",
"439 260 OFFCURVE",
"375 208 OFFCURVE",
"257 208 CURVE SMOOTH",
"169 208 LINE"
);
}
);
width = 534;
}
);
leftKerningGroup = H;
leftMetricsKey = H;
rightKerningGroup = Thorn;
rightMetricsKey = P;
unicode = 00DE;
},
{
glyphname = Q;
lastChange = "2020-01-15 12:57:37 +0000";
layers = (
{
components = (
{
name = O;
}
);
layerId = UUID0;
paths = (
{
closed = 1;
nodes = (
"452 -185 OFFCURVE",
"479 -178 OFFCURVE",
"498 -167 CURVE SMOOTH",
"505 -163 OFFCURVE",
"510 -157 OFFCURVE",
"511 -150 CURVE SMOOTH",
"525 -57 LINE SMOOTH",
"527 -47 OFFCURVE",
"519 -43 OFFCURVE",
"510 -46 CURVE SMOOTH",
"499 -50 OFFCURVE",
"485 -53 OFFCURVE",
"469 -53 CURVE SMOOTH",
"428 -53 OFFCURVE",
"427 -11 OFFCURVE",
"437 46 CURVE SMOOTH",
"438 56 OFFCURVE",
"433 61 OFFCURVE",
"425 61 CURVE SMOOTH",
"305 59 LINE SMOOTH",
"296 59 OFFCURVE",
"290 54 OFFCURVE",
"288 44 CURVE SMOOTH",
"260 -112 OFFCURVE",
"312 -185 OFFCURVE",
"415 -185 CURVE SMOOTH"
);
}
);
width = 655;
},
{
components = (
{
name = O;
}
);
layerId = "8E001827-4555-4882-9710-42A9586BB804";
paths = (
{
closed = 1;
nodes = (
"396 -172 OFFCURVE",
"410 -170 OFFCURVE",
"422 -165 CURVE SMOOTH",
"424 -164 OFFCURVE",
"425 -164 OFFCURVE",
"426 -159 CURVE SMOOTH",
"427 -152 LINE SMOOTH",
"428 -147 OFFCURVE",
"425 -148 OFFCURVE",
"422 -149 CURVE SMOOTH",
"413 -153 OFFCURVE",
"396 -156 OFFCURVE",
"379 -156 CURVE SMOOTH",
"322 -156 OFFCURVE",
"314 -94 OFFCURVE",
"328 -3 CURVE SMOOTH",
"328 -1 OFFCURVE",
"327 0 OFFCURVE",
"325 0 CURVE SMOOTH",
"316 0 LINE SMOOTH",
"314 0 OFFCURVE",
"312 -1 OFFCURVE",
"312 -3 CURVE SMOOTH",
"297 -102 OFFCURVE",
"305 -172 OFFCURVE",
"379 -172 CURVE SMOOTH"
);
}
);
width = 629;
},
{
components = (
{
name = O;
}
);
guideLines = (
{
angle = 90;
position = "{137, -145}";
}
);
layerId = "0382B793-66DA-492C-99CF-A998862EA4E0";
paths = (
{
closed = 1;
nodes = (
"387 -182 OFFCURVE",
"405 -179 OFFCURVE",
"417 -175 CURVE",
"425 -172 OFFCURVE",
"428 -168 OFFCURVE",
"429 -162 CURVE SMOOTH",
"438 -108 LINE SMOOTH",
"439 -101 OFFCURVE",
"435 -97 OFFCURVE",
"428 -99 CURVE SMOOTH",
"416 -102 OFFCURVE",
"406 -104 OFFCURVE",
"397 -104 CURVE SMOOTH",
"356 -104 OFFCURVE",
"348 -74 OFFCURVE",
"359 11 CURVE SMOOTH",
"360 18 OFFCURVE",
"357 23 OFFCURVE",
"350 22 CURVE SMOOTH",
"290 15 LINE SMOOTH",
"284 14 OFFCURVE",
"281 11 OFFCURVE",
"280 5 CURVE SMOOTH",
"262 -124 OFFCURVE",
"291 -182 OFFCURVE",
"369 -182 CURVE SMOOTH"
);
}
);
width = 629;
}
);
leftKerningGroup = O;
leftMetricsKey = O;
rightKerningGroup = O;
rightMetricsKey = O;
unicode = 0051;
},
{
glyphname = R;
lastChange = "2020-01-15 12:57:37 +0000";
layers = (
{
anchors = (
{
name = bottom;
position = "{287, 0}";
},
{
name = top;
position = "{350, 655}";
}
);
guideLines = (
{
angle = 90;
position = "{588, 275}";
}
);
layerId = UUID0;
paths = (
{
closed = 1;
nodes = (
"190 0 LINE SMOOTH",
"199 0 OFFCURVE",
"204 6 OFFCURVE",
"205 15 CURVE SMOOTH",
"239 228 LINE",
"293 228 LINE",
"383 15 LINE SMOOTH",
"387 6 OFFCURVE",
"392 0 OFFCURVE",
"401 0 CURVE SMOOTH",
"568 0 LINE SMOOTH",
"578 0 OFFCURVE",
"582 9 OFFCURVE",
"579 15 CURVE SMOOTH",
"468 255 LINE",
"468 257 LINE",
"563 289 OFFCURVE",
"612 365 OFFCURVE",
"612 474 CURVE SMOOTH",
"612 589 OFFCURVE",
"538 655 OFFCURVE",
"356 655 CURVE SMOOTH",
"138 655 LINE SMOOTH",
"129 655 OFFCURVE",
"124 649 OFFCURVE",
"123 640 CURVE SMOOTH",
"24 15 LINE SMOOTH",
"23 6 OFFCURVE",
"28 0 OFFCURVE",
"38 0 CURVE SMOOTH"
);
},
{
closed = 1;
nodes = (
"281 497 LINE",
"348 497 LINE SMOOTH",
"402 497 OFFCURVE",
"427 483 OFFCURVE",
"427 447 CURVE SMOOTH",
"427 396 OFFCURVE",
"396 374 OFFCURVE",
"336 374 CURVE SMOOTH",
"262 374 LINE"
);
}
);
width = 615;
},
{
anchors = (
{
name = bottom;
position = "{260, 0}";
},
{
name = top;
position = "{344, 655}";
}
);
layerId = "8E001827-4555-4882-9710-42A9586BB804";
paths = (
{
closed = 1;
nodes = (
"85 0 LINE SMOOTH",
"88 0 OFFCURVE",
"89 0 OFFCURVE",
"90 5 CURVE SMOOTH",
"137 303 LINE",
"337 303 LINE",
"475 4 LINE SMOOTH",
"476 1 OFFCURVE",
"477 0 OFFCURVE",
"480 0 CURVE SMOOTH",
"488 0 LINE SMOOTH",
"491 0 OFFCURVE",
"493 2 OFFCURVE",
"491 6 CURVE SMOOTH",
"354 305 LINE",
"354 306 LINE",
"477 326 OFFCURVE",
"541 395 OFFCURVE",
"541 512 CURVE SMOOTH",
"541 607 OFFCURVE",
"473 655 OFFCURVE",
"352 655 CURVE SMOOTH",
"182 655 LINE SMOOTH",
"179 655 OFFCURVE",
"178 655 OFFCURVE",
"177 651 CURVE SMOOTH",
"74 5 LINE SMOOTH",
"73 0 OFFCURVE",
"75 0 OFFCURVE",
"78 0 CURVE SMOOTH"
);
},
{
closed = 1;
nodes = (
"191 639 LINE",
"351 639 LINE SMOOTH",
"459 639 OFFCURVE",
"525 598 OFFCURVE",
"525 512 CURVE SMOOTH",
"525 388 OFFCURVE",
"442 319 OFFCURVE",
"303 319 CURVE SMOOTH",
"140 319 LINE"
);
}
);
width = 582;
},
{
anchors = (
{
name = bottom;
position = "{265, 0}";
},
{
name = top;
position = "{339, 655}";
}
);
layerId = "0382B793-66DA-492C-99CF-A998862EA4E0";
paths = (
{
closed = 1;
nodes = (
"127 0 LINE SMOOTH",
"133 0 OFFCURVE",
"137 4 OFFCURVE",
"138 10 CURVE SMOOTH",
"181 279 LINE",
"307 279 LINE",
"422 7 LINE SMOOTH",
"424 2 OFFCURVE",
"428 0 OFFCURVE",
"434 0 CURVE SMOOTH",
"509 0 LINE SMOOTH",
"517 0 OFFCURVE",
"521 6 OFFCURVE",
"518 12 CURVE SMOOTH",
"398 288 LINE",
"398 289 LINE",
"498 316 OFFCURVE",
"560 393 OFFCURVE",
"560 501 CURVE SMOOTH",
"560 599 OFFCURVE",
"491 655 OFFCURVE",
"354 655 CURVE SMOOTH",
"167 655 LINE SMOOTH",
"161 655 OFFCURVE",
"156 651 OFFCURVE",
"155 645 CURVE SMOOTH",
"55 10 LINE SMOOTH",
"54 4 OFFCURVE",
"57 0 OFFCURVE",
"63 0 CURVE SMOOTH"
);
},
{
closed = 1;
nodes = (
"229 583 LINE",
"345 583 LINE SMOOTH",
"434 583 OFFCURVE",
"475 559 OFFCURVE",
"475 496 CURVE SMOOTH",
"475 386 OFFCURVE",
"406 347 OFFCURVE",
"296 347 CURVE SMOOTH",
"192 347 LINE"
);
}
);
width = 592;
}
);
leftKerningGroup = H;
leftMetricsKey = H;
rightKerningGroup = R;
unicode = 0052;
},
{
glyphname = S;
lastChange = "2020-01-15 12:57:37 +0000";
layers = (
{
anchors = (
{
name = bottom;
position = "{258, 0}";
},
{
name = top;
position = "{354, 655}";
}
);
layerId = UUID0;
paths = (
{
closed = 1;
nodes = (
"446.244 -12 OFFCURVE",
"538 59 OFFCURVE",
"538 199 CURVE SMOOTH",
"538 278 OFFCURVE",
"507 324 OFFCURVE",
"431 364 CURVE SMOOTH",
"306 429 LINE SMOOTH",
"270 448 OFFCURVE",
"260 458.261 OFFCURVE",
"260 478 CURVE SMOOTH",
"260 500.814 OFFCURVE",
"281.611 514 OFFCURVE",
"319 514 CURVE SMOOTH",
"368.538 514 OFFCURVE",
"391.534 496.336 OFFCURVE",
"388 461 CURVE SMOOTH",
"387.016 451.161 OFFCURVE",
"391.833 446 OFFCURVE",
"402 446 CURVE SMOOTH",
"551 446 LINE SMOOTH",
"560 446 OFFCURVE",
"564 450 OFFCURVE",
"566 461 CURVE SMOOTH",
"589 595 OFFCURVE",
"511 667 OFFCURVE",
"326 667 CURVE SMOOTH",
"168 667 OFFCURVE",
"75 587 OFFCURVE",
"75 462 CURVE SMOOTH",
"75 377 OFFCURVE",
"111 328 OFFCURVE",
"195 286 CURVE SMOOTH",
"307 230 LINE SMOOTH",
"340 213 OFFCURVE",
"352 199.5 OFFCURVE",
"352 181 CURVE SMOOTH",
"352 156 OFFCURVE",
"330 145 OFFCURVE",
"280 145 CURVE SMOOTH",
"226.815 145 OFFCURVE",
"203.158 162.5 OFFCURVE",
"207 199 CURVE SMOOTH",
"207.936 208.355 OFFCURVE",
"202.667 214 OFFCURVE",
"193 214 CURVE SMOOTH",
"44 214 LINE SMOOTH",
"36 214 OFFCURVE",
"31 209 OFFCURVE",
"29 199 CURVE SMOOTH",
"1 56 OFFCURVE",
"77.742 -12 OFFCURVE",
"264 -12 CURVE SMOOTH"
);
}
);
width = 567;
},
{
anchors = (
{
name = bottom;
position = "{236, 0}";
},
{
name = top;
position = "{339, 655}";
}
);
layerId = "8E001827-4555-4882-9710-42A9586BB804";
paths = (
{
closed = 1;
nodes = (
"401.466 -12 OFFCURVE",
"472 39 OFFCURVE",
"472 160 CURVE SMOOTH",
"472 230 OFFCURVE",
"446 265 OFFCURVE",
"346 322 CURVE SMOOTH",
"244 380 LINE SMOOTH",
"161.409 426.843 OFFCURVE",
"141 455 OFFCURVE",
"141 516 CURVE SMOOTH",
"141 605 OFFCURVE",
"204.603 651 OFFCURVE",
"324 651 CURVE SMOOTH",
"455.475 651 OFFCURVE",
"509 603 OFFCURVE",
"498 493 CURVE SMOOTH",
"498 490 OFFCURVE",
"498 489 OFFCURVE",
"501 489 CURVE SMOOTH",
"510 489 LINE SMOOTH",
"513 489 OFFCURVE",
"514 490 OFFCURVE",
"514 493 CURVE SMOOTH",
"525 613 OFFCURVE",
"465.747 667 OFFCURVE",
"324 667 CURVE SMOOTH",
"194.667 667 OFFCURVE",
"125 614 OFFCURVE",
"125 515 CURVE SMOOTH",
"125 447 OFFCURVE",
"147.358 415.249 OFFCURVE",
"233 367 CURVE SMOOTH",
"335 309 LINE SMOOTH",
"432.825 252.562 OFFCURVE",
"456 222 OFFCURVE",
"456 158 CURVE SMOOTH",
"456 51 OFFCURVE",
"388.135 4 OFFCURVE",
"242 4 CURVE SMOOTH",
"106 4 OFFCURVE",
"58 47 OFFCURVE",
"74 166 CURVE SMOOTH",
"75 170 OFFCURVE",
"73 170 OFFCURVE",
"71 170 CURVE SMOOTH",
"64 170 LINE SMOOTH",
"61 170 OFFCURVE",
"59.583 170.082 OFFCURVE",
"59 166 CURVE SMOOTH",
"41.041 40.289 OFFCURVE",
"94.506 -12 OFFCURVE",
"241 -12 CURVE SMOOTH"
);
}
);
width = 541;
},
{
anchors = (
{
name = bottom;
position = "{252, 0}";
},
{
name = top;
position = "{338, 655}";
}
);
guideLines = (
{
position = "{854, 592}";
}
);
layerId = "0382B793-66DA-492C-99CF-A998862EA4E0";
paths = (
{
closed = 1;
nodes = (
"414 -12 OFFCURVE",
"505 61 OFFCURVE",
"505 177 CURVE SMOOTH",
"505 255 OFFCURVE",
"467 306 OFFCURVE",
"381 345 CURVE SMOOTH",
"270 396 LINE SMOOTH",
"216 421 OFFCURVE",
"192 450.832 OFFCURVE",
"192 492.323 CURVE SMOOTH",
"192 554.514 OFFCURVE",
"244 592 OFFCURVE",
"331 592 CURVE SMOOTH",
"412 592 OFFCURVE",
"467 562 OFFCURVE",
"457 479 CURVE SMOOTH",
"456 471 OFFCURVE",
"459 467 OFFCURVE",
"465 467 CURVE SMOOTH",
"528 467 LINE SMOOTH",
"535 467 OFFCURVE",
"537 470 OFFCURVE",
"539 478 CURVE SMOOTH",
"565 608 OFFCURVE",
"470 666 OFFCURVE",
"340 666 CURVE SMOOTH",
"197 666 OFFCURVE",
"107 602 OFFCURVE",
"107 485 CURVE SMOOTH",
"107 412 OFFCURVE",
"141 366 OFFCURVE",
"211 333 CURVE SMOOTH",
"329 277 LINE SMOOTH",
"395 246 OFFCURVE",
"418 221 OFFCURVE",
"418 172 CURVE SMOOTH",
"418 101 OFFCURVE",
"365 62 OFFCURVE",
"265 62 CURVE SMOOTH",
"177 62 OFFCURVE",
"114 90 OFFCURVE",
"133 180 CURVE SMOOTH",
"135 187 OFFCURVE",
"130 192 OFFCURVE",
"123 192 CURVE SMOOTH",
"66 192 LINE SMOOTH",
"59 192 OFFCURVE",
"54 189 OFFCURVE",
"52 181 CURVE SMOOTH",
"22 45 OFFCURVE",
"115 -12 OFFCURVE",
"258 -12 CURVE SMOOTH"
);
}
);
width = 556;
}
);
leftKerningGroup = S;
rightKerningGroup = S;
unicode = 0053;
},
{
glyphname = Germandbls;
lastChange = "2020-01-15 12:57:37 +0000";
layers = (
{
layerId = UUID0;
paths = (
{
closed = 1;
nodes = (
"585.041 -12 OFFCURVE",
"663 71.747 OFFCURVE",
"663 234 CURVE SMOOTH",
"663 325.586 OFFCURVE",
"624.714 379.714 OFFCURVE",
"547 398 CURVE",
"683 631 LINE SMOOTH",
"691.174 644.283 OFFCURVE",
"686.708 655 OFFCURVE",
"673 655 CURVE SMOOTH",
"138 655 LINE SMOOTH",
"129.5 655 OFFCURVE",
"124.062 649.562 OFFCURVE",
"123 640 CURVE SMOOTH",
"24 15 LINE SMOOTH",
"22.968 5.713 OFFCURVE",
"28.3 0 OFFCURVE",
"38 0 CURVE SMOOTH",
"190 0 LINE SMOOTH",
"198.5 0 OFFCURVE",
"203.938 5.438 OFFCURVE",
"205 15 CURVE SMOOTH",
"280 491 LINE",
"421 491 LINE",
"343 356 LINE SMOOTH",
"339.235 350.353 OFFCURVE",
"337.067 344.467 OFFCURVE",
"336 337 CURVE SMOOTH",
"328 287 LINE SMOOTH",
"326.062 277.312 OFFCURVE",
"330.667 272 OFFCURVE",
"341 272 CURVE SMOOTH",
"412 272 LINE SMOOTH",
"459.434 272 OFFCURVE",
"481 255.435 OFFCURVE",
"481 219 CURVE SMOOTH",
"481 170.319 OFFCURVE",
"469.683 148 OFFCURVE",
"445 148 CURVE SMOOTH",
"429.315 148 OFFCURVE",
"422.464 157.249 OFFCURVE",
"425 175 CURVE SMOOTH",
"425.984 184.839 OFFCURVE",
"421.167 190 OFFCURVE",
"411 190 CURVE SMOOTH",
"275 193 LINE SMOOTH",
"266.5 193 OFFCURVE",
"261.7 188.2 OFFCURVE",
"260 178 CURVE SMOOTH",
"238.19 44.718 OFFCURVE",
"290.132 -12 OFFCURVE",
"434 -12 CURVE SMOOTH"
);
}
);
width = 674;
},
{
layerId = "8E001827-4555-4882-9710-42A9586BB804";
paths = (
{
closed = 1;
nodes = (
"499.065 -12 OFFCURVE",
"578 71.821 OFFCURVE",
"578 211 CURVE SMOOTH",
"578 326.21 OFFCURVE",
"514 375 OFFCURVE",
"364 375 CURVE",
"578 648 LINE SMOOTH",
"581 652 OFFCURVE",
"580.071 655 OFFCURVE",
"576 655 CURVE SMOOTH",
"182 655 LINE SMOOTH",
"179 655 OFFCURVE",
"178 655 OFFCURVE",
"177 651 CURVE SMOOTH",
"74 5 LINE SMOOTH",
"73 0 OFFCURVE",
"75 0 OFFCURVE",
"78 0 CURVE SMOOTH",
"85 0 LINE SMOOTH",
"88 0 OFFCURVE",
"89 0 OFFCURVE",
"90 5 CURVE SMOOTH",
"191 639 LINE",
"550 639 LINE",
"340 369 LINE SMOOTH",
"339 368 OFFCURVE",
"338 367 OFFCURVE",
"338 365 CURVE SMOOTH",
"338 362 LINE SMOOTH",
"338 360 OFFCURVE",
"339 359 OFFCURVE",
"341 359 CURVE SMOOTH",
"369 359 LINE SMOOTH",
"502.963 359 OFFCURVE",
"562 313.728 OFFCURVE",
"562 211 CURVE SMOOTH",
"562 83.039 OFFCURVE",
"488.688 4 OFFCURVE",
"370 4 CURVE SMOOTH",
"271.846 4 OFFCURVE",
"229 41 OFFCURVE",
"241 121 CURVE SMOOTH",
"242 125 OFFCURVE",
"240 125 OFFCURVE",
"237 125 CURVE SMOOTH",
"229 125 LINE SMOOTH",
"227 125 OFFCURVE",
"225.576 125.083 OFFCURVE",
"225 121 CURVE SMOOTH",
"212.732 34.105 OFFCURVE",
"262.305 -12 OFFCURVE",
"368 -12 CURVE SMOOTH"
);
}
);
width = 638;
},
{
layerId = "0382B793-66DA-492C-99CF-A998862EA4E0";
paths = (
{
closed = 1;
nodes = (
"516 -12 OFFCURVE",
"599 84 OFFCURVE",
"599 233 CURVE SMOOTH",
"599 329 OFFCURVE",
"542 389 OFFCURVE",
"431 395 CURVE",
"618 631 LINE SMOOTH",
"626 641 OFFCURVE",
"626 655 OFFCURVE",
"616 655 CURVE SMOOTH",
"167 655 LINE SMOOTH",
"161 655 OFFCURVE",
"156 651 OFFCURVE",
"155 645 CURVE SMOOTH",
"55 10 LINE SMOOTH",
"54 4 OFFCURVE",
"58 0 OFFCURVE",
"64 0 CURVE SMOOTH",
"127 0 LINE SMOOTH",
"133 0 OFFCURVE",
"137 4 OFFCURVE",
"138 10 CURVE SMOOTH",
"228 578 LINE",
"482 578 LINE",
"335 387 LINE SMOOTH",
"331 382 OFFCURVE",
"329 377 OFFCURVE",
"328 370 CURVE SMOOTH",
"323 337 LINE SMOOTH",
"322 331 OFFCURVE",
"326 327 OFFCURVE",
"331 327 CURVE SMOOTH",
"378 327 LINE SMOOTH",
"472 327 OFFCURVE",
"514 296 OFFCURVE",
"514 226 CURVE SMOOTH",
"514 129 OFFCURVE",
"474 62 OFFCURVE",
"372 62 CURVE SMOOTH",
"320 62 OFFCURVE",
"283 81 OFFCURVE",
"291 129 CURVE SMOOTH",
"292 137 OFFCURVE",
"289 142 OFFCURVE",
"282 142 CURVE SMOOTH",
"224 142 LINE SMOOTH",
"217 142 OFFCURVE",
"213 140 OFFCURVE",
"211 130 CURVE SMOOTH",
"191 34 OFFCURVE",
"263 -12 OFFCURVE",
"363 -12 CURVE SMOOTH"
);
}
);
width = 643;
}
);
leftKerningGroup = H;
leftMetricsKey = H;
rightKerningGroup = S;
unicode = 1E9E;
},
{
glyphname = T;
lastChange = "2020-01-15 12:57:37 +0000";
layers = (
{
anchors = (
{
name = bottom;
position = "{247, 0}";
},
{
name = center;
position = "{302, 328}";
},
{
name = top;
position = "{354, 655}";
}
);
layerId = UUID0;
paths = (
{
closed = 1;
nodes = (
"324 0 LINE SMOOTH",
"333 0 OFFCURVE",
"338 6 OFFCURVE",
"339 15 CURVE SMOOTH",
"417 495 LINE",
"572 495 LINE SMOOTH",
"580 495 OFFCURVE",
"587 502 OFFCURVE",
"588 510 CURVE SMOOTH",
"609 640 LINE SMOOTH",
"611 650 OFFCURVE",
"604 655 OFFCURVE",
"595 655 CURVE SMOOTH",
"103 655 LINE SMOOTH",
"95 655 OFFCURVE",
"88 648 OFFCURVE",
"87 640 CURVE SMOOTH",
"66 510 LINE SMOOTH",
"64 500 OFFCURVE",
"71 495 OFFCURVE",
"80 495 CURVE SMOOTH",
"234 495 LINE",
"158 15 LINE SMOOTH",
"157 6 OFFCURVE",
"162 0 OFFCURVE",
"172 0 CURVE SMOOTH"
);
}
);
width = 552;
},
{
anchors = (
{
name = bottom;
position = "{240, 0}";
},
{
name = center;
position = "{290, 328}";
},
{
name = top;
position = "{339, 655}";
}
);
layerId = "8E001827-4555-4882-9710-42A9586BB804";
paths = (
{
closed = 1;
nodes = (
"241 0 LINE SMOOTH",
"244 0 OFFCURVE",
"245 0 OFFCURVE",
"246 5 CURVE SMOOTH",
"347 639 LINE",
"557 639 LINE SMOOTH",
"560 639 OFFCURVE",
"561 639 OFFCURVE",
"562 642 CURVE SMOOTH",
"564 651 LINE SMOOTH",
"565 655 OFFCURVE",
"563 655 OFFCURVE",
"561 655 CURVE SMOOTH",
"124 655 LINE SMOOTH",
"121 655 OFFCURVE",
"120 655 OFFCURVE",
"119 652 CURVE SMOOTH",
"117 643 LINE SMOOTH",
"116 639 OFFCURVE",
"118 639 OFFCURVE",
"120 639 CURVE SMOOTH",
"331 639 LINE",
"230 5 LINE SMOOTH",
"229 0 OFFCURVE",
"231 0 OFFCURVE",
"234 0 CURVE SMOOTH"
);
}
);
width = 535;
},
{
anchors = (
{
name = bottom;
position = "{236, 0}";
},
{
name = center;
position = "{285, 328}";
},
{
name = top;
position = "{336, 655}";
}
);
layerId = "0382B793-66DA-492C-99CF-A998862EA4E0";
paths = (
{
closed = 1;
nodes = (
"264 0 LINE SMOOTH",
"270 0 OFFCURVE",
"274 4 OFFCURVE",
"275 10 CURVE SMOOTH",
"365 578 LINE",
"542 578 LINE SMOOTH",
"548 578 OFFCURVE",
"552 582 OFFCURVE",
"553 588 CURVE SMOOTH",
"562 645 LINE SMOOTH",
"563 651 OFFCURVE",
"560 655 OFFCURVE",
"554 655 CURVE SMOOTH",
"118 655 LINE SMOOTH",
"112 655 OFFCURVE",
"107 651 OFFCURVE",
"106 645 CURVE SMOOTH",
"97 588 LINE SMOOTH",
"96 582 OFFCURVE",
"100 578 OFFCURVE",
"106 578 CURVE SMOOTH",
"282 578 LINE",
"192 11 LINE SMOOTH",
"191 4 OFFCURVE",
"194 0 OFFCURVE",
"201 0 CURVE SMOOTH"
);
}
);
width = 524;
}
);
leftKerningGroup = T;
rightKerningGroup = T;
unicode = 0054;
},
{
glyphname = Tbar;
lastChange = "2020-01-15 12:57:37 +0000";
layers = (
{
components = (
{
name = T;
}
);
layerId = UUID0;
leftMetricsKey = "=T";
rightMetricsKey = "=T";
paths = (
{
closed = 1;
nodes = (
"195 246 LINE",
"376 246 LINE",
"449 246 LINE SMOOTH",
"457 246 OFFCURVE",
"464 252 OFFCURVE",
"465 261 CURVE SMOOTH",
"481 364 LINE SMOOTH",
"483 374 OFFCURVE",
"476 379 OFFCURVE",
"467 379 CURVE SMOOTH",
"144 379 LINE SMOOTH",
"135 379 OFFCURVE",
"129 373 OFFCURVE",
"128 364 CURVE SMOOTH",
"112 261 LINE SMOOTH",
"111 252 OFFCURVE",
"116 246 OFFCURVE",
"125 246 CURVE SMOOTH"
);
}
);
width = 552;
},
{
components = (
{
name = T;
}
);
layerId = "8E001827-4555-4882-9710-42A9586BB804";
paths = (
{
closed = 1;
nodes = (
"282 328 LINE",
"297 328 LINE",
"430 328 LINE SMOOTH",
"433 328 OFFCURVE",
"434 328 OFFCURVE",
"435 331 CURVE SMOOTH",
"437 340 LINE SMOOTH",
"438 344 OFFCURVE",
"436 344 OFFCURVE",
"434 344 CURVE SMOOTH",
"152 344 LINE SMOOTH",
"149 344 OFFCURVE",
"148 344 OFFCURVE",
"147 341 CURVE SMOOTH",
"145 332 LINE SMOOTH",
"144 328 OFFCURVE",
"146 328 OFFCURVE",
"148 328 CURVE SMOOTH"
);
}
);
width = 535;
},
{
components = (
{
name = T;
}
);
layerId = "0382B793-66DA-492C-99CF-A998862EA4E0";
paths = (
{
closed = 1;
nodes = (
"238 297 LINE",
"320 297 LINE",
"423 297 LINE SMOOTH",
"429 297 OFFCURVE",
"434 301 OFFCURVE",
"435 307 CURVE SMOOTH",
"442 351 LINE SMOOTH",
"443 357 OFFCURVE",
"439 361 OFFCURVE",
"433 361 CURVE SMOOTH",
"149 361 LINE SMOOTH",
"143 361 OFFCURVE",
"139 357 OFFCURVE",
"138 351 CURVE SMOOTH",
"131 307 LINE SMOOTH",
"130 301 OFFCURVE",
"133 297 OFFCURVE",
"139 297 CURVE SMOOTH"
);
}
);
width = 524;
}
);
leftKerningGroup = T;
leftMetricsKey = "=T";
rightKerningGroup = T;
rightMetricsKey = "=T";
unicode = 0166;
},
{
glyphname = U;
lastChange = "2020-01-15 12:57:37 +0000";
layers = (
{
anchors = (
{
name = bottom;
position = "{298, 0}";
},
{
name = ogonek;
position = "{442, 10}";
},
{
name = top;
position = "{402, 655}";
},
{
name = topleft;
position = "{146, 655}";
},
{
name = topright;
position = "{706, 655}";
}
);
layerId = UUID0;
paths = (
{
closed = 1;
nodes = (
"497 -12 OFFCURVE",
"586 63 OFFCURVE",
"616 253 CURVE SMOOTH",
"678 640 LINE SMOOTH",
"679 649 OFFCURVE",
"674 655 OFFCURVE",
"664 655 CURVE SMOOTH",
"512 655 LINE SMOOTH",
"503 655 OFFCURVE",
"498 649 OFFCURVE",
"497 640 CURVE SMOOTH",
"437 264 LINE SMOOTH",
"425 189 OFFCURVE",
"398 148 OFFCURVE",
"323 148 CURVE SMOOTH",
"256 148 OFFCURVE",
"226 185 OFFCURVE",
"239 264 CURVE SMOOTH",
"299 640 LINE SMOOTH",
"300 649 OFFCURVE",
"295 655 OFFCURVE",
"285 655 CURVE SMOOTH",
"133 655 LINE SMOOTH",
"124 655 OFFCURVE",
"119 649 OFFCURVE",
"118 640 CURVE SMOOTH",
"59 265 LINE SMOOTH",
"29 73 OFFCURVE",
"120 -12 OFFCURVE",
"309 -12 CURVE SMOOTH"
);
}
);
width = 652;
},
{
anchors = (
{
name = bottom;
position = "{288, 0}";
},
{
name = ogonek;
position = "{389, 10}";
},
{
name = top;
position = "{392, 655}";
},
{
name = topleft;
position = "{145, 655}";
},
{
name = topright;
position = "{690, 655}";
}
);
layerId = "8E001827-4555-4882-9710-42A9586BB804";
paths = (
{
closed = 1;
nodes = (
"443 -12 OFFCURVE",
"516 57 OFFCURVE",
"544 230 CURVE SMOOTH",
"611 651 LINE SMOOTH",
"612 655 OFFCURVE",
"610 655 OFFCURVE",
"607 655 CURVE SMOOTH",
"600 655 LINE SMOOTH",
"597 655 OFFCURVE",
"596 655 OFFCURVE",
"595 651 CURVE SMOOTH",
"528 232 LINE SMOOTH",
"502 68 OFFCURVE",
"432 4 OFFCURVE",
"293 4 CURVE SMOOTH",
"153 4 OFFCURVE",
"96 75 OFFCURVE",
"121 230 CURVE SMOOTH",
"188 651 LINE SMOOTH",
"189 655 OFFCURVE",
"187 655 OFFCURVE",
"184 655 CURVE SMOOTH",
"177 655 LINE SMOOTH",
"174 655 OFFCURVE",
"173 655 OFFCURVE",
"172 651 CURVE SMOOTH",
"105 230 LINE SMOOTH",
"79 66 OFFCURVE",
"143 -12 OFFCURVE",
"292 -12 CURVE SMOOTH"
);
}
);
width = 635;
},
{
anchors = (
{
name = bottom;
position = "{277, 0}";
},
{
name = ogonek;
position = "{404, 10}";
},
{
name = top;
position = "{389, 655}";
},
{
name = topleft;
position = "{144, 655}";
},
{
name = topright;
position = "{676, 655}";
}
);
layerId = "0382B793-66DA-492C-99CF-A998862EA4E0";
paths = (
{
closed = 1;
nodes = (
"440 -12 OFFCURVE",
"535 77 OFFCURVE",
"558 223 CURVE SMOOTH",
"625 644 LINE SMOOTH",
"626 651 OFFCURVE",
"623 655 OFFCURVE",
"617 655 CURVE SMOOTH",
"553 655 LINE SMOOTH",
"547 655 OFFCURVE",
"543 651 OFFCURVE",
"542 645 CURVE SMOOTH",
"477 232 LINE SMOOTH",
"459 120 OFFCURVE",
"396 63 OFFCURVE",
"296 63 CURVE SMOOTH",
"185 63 OFFCURVE",
"152 124 OFFCURVE",
"168 227 CURVE SMOOTH",
"234 644 LINE SMOOTH",
"235 651 OFFCURVE",
"232 655 OFFCURVE",
"226 655 CURVE SMOOTH",
"162 655 LINE SMOOTH",
"156 655 OFFCURVE",
"152 651 OFFCURVE",
"151 645 CURVE SMOOTH",
"85 230 LINE SMOOTH",
"60 73 OFFCURVE",
"141 -12 OFFCURVE",
"292 -12 CURVE SMOOTH"
);
}
);
width = 631;
}
);
leftKerningGroup = U;
rightKerningGroup = U;
unicode = 0055;
},
{
glyphname = V;
lastChange = "2020-01-15 12:57:37 +0000";
layers = (
{
layerId = UUID0;
paths = (
{
closed = 1;
nodes = (
"390 0 LINE SMOOTH",
"398 0 OFFCURVE",
"404 6 OFFCURVE",
"408 15 CURVE SMOOTH",
"703 640 LINE SMOOTH",
"707 648 OFFCURVE",
"704 655 OFFCURVE",
"696 655 CURVE SMOOTH",
"521 655 LINE SMOOTH",
"512 655 OFFCURVE",
"505 649 OFFCURVE",
"501 640 CURVE SMOOTH",
"368 307 LINE SMOOTH",
"348 256 OFFCURVE",
"330 206 OFFCURVE",
"314 155 CURVE",
"311 155 LINE",
"308 205 OFFCURVE",
"305 255 OFFCURVE",
"300 305 CURVE SMOOTH",
"269 640 LINE SMOOTH",
"268 649 OFFCURVE",
"264 655 OFFCURVE",
"254 655 CURVE SMOOTH",
"91 655 LINE SMOOTH",
"82 655 OFFCURVE",
"76 649 OFFCURVE",
"78 639 CURVE SMOOTH",
"176 15 LINE SMOOTH",
"178 5 OFFCURVE",
"183 0 OFFCURVE",
"192 0 CURVE SMOOTH"
);
}
);
width = 636;
},
{
layerId = "8E001827-4555-4882-9710-42A9586BB804";
paths = (
{
closed = 1;
nodes = (
"253 0 LINE SMOOTH",
"255 0 OFFCURVE",
"256 0 OFFCURVE",
"258 4 CURVE SMOOTH",
"598 652 LINE SMOOTH",
"599 654 OFFCURVE",
"598 655 OFFCURVE",
"596 655 CURVE SMOOTH",
"585 655 LINE SMOOTH",
"583 655 OFFCURVE",
"582 655 OFFCURVE",
"581 653 CURVE SMOOTH",
"295 109 LINE SMOOTH",
"279 78 OFFCURVE",
"262 46 OFFCURVE",
"248 15 CURVE",
"247 15 LINE",
"242 45 OFFCURVE",
"235 76 OFFCURVE",
"229 106 CURVE SMOOTH",
"113 652 LINE SMOOTH",
"112 655 OFFCURVE",
"111 655 OFFCURVE",
"109 655 CURVE SMOOTH",
"101 655 LINE SMOOTH",
"98 655 OFFCURVE",
"96 655 OFFCURVE",
"97 651 CURVE SMOOTH",
"234 3 LINE SMOOTH",
"235 0 OFFCURVE",
"236 0 OFFCURVE",
"238 0 CURVE SMOOTH"
);
}
);
width = 547;
},
{
layerId = "0382B793-66DA-492C-99CF-A998862EA4E0";
paths = (
{
closed = 1;
nodes = (
"300 0 LINE SMOOTH",
"305 0 OFFCURVE",
"311 3 OFFCURVE",
"313 8 CURVE SMOOTH",
"629 644 LINE SMOOTH",
"632 651 OFFCURVE",
"629 655 OFFCURVE",
"623 655 CURVE SMOOTH",
"554 655 LINE SMOOTH",
"549 655 OFFCURVE",
"544 652 OFFCURVE",
"541 647 CURVE SMOOTH",
"349 253 LINE SMOOTH",
"321 196 OFFCURVE",
"293 139 OFFCURVE",
"267 82 CURVE",
"265 82 LINE",
"257 140 OFFCURVE",
"247 198 OFFCURVE",
"238 256 CURVE SMOOTH",
"175 647 LINE SMOOTH",
"174 652 OFFCURVE",
"170 655 OFFCURVE",
"165 655 CURVE SMOOTH",
"97 655 LINE SMOOTH",
"90 655 OFFCURVE",
"87 651 OFFCURVE",
"88 644 CURVE SMOOTH",
"197 8 LINE SMOOTH",
"198 3 OFFCURVE",
"202 0 OFFCURVE",
"207 0 CURVE SMOOTH"
);
}
);
width = 572;
}
);
leftKerningGroup = V;
rightKerningGroup = V;
unicode = 0056;
},
{
glyphname = W;
lastChange = "2020-01-15 12:57:37 +0000";
layers = (
{
anchors = (
{
name = bottom;
position = "{421, 0}";
},
{
name = top;
position = "{525, 655}";
}
);
layerId = UUID0;
paths = (
{
closed = 1;
nodes = (
"320 0 LINE SMOOTH",
"328 0 OFFCURVE",
"334 6 OFFCURVE",
"338 15 CURVE SMOOTH",
"407 164 LINE SMOOTH",
"431 215 OFFCURVE",
"451 264 OFFCURVE",
"472 315 CURVE",
"475 315 LINE",
"479 265 OFFCURVE",
"484 214 OFFCURVE",
"489 164 CURVE SMOOTH",
"505 15 LINE SMOOTH",
"506 5 OFFCURVE",
"512 0 OFFCURVE",
"521 0 CURVE SMOOTH",
"691 0 LINE SMOOTH",
"699 0 OFFCURVE",
"705 6 OFFCURVE",
"709 15 CURVE SMOOTH",
"964 640 LINE SMOOTH",
"967 648 OFFCURVE",
"965 655 OFFCURVE",
"957 655 CURVE SMOOTH",
"797 655 LINE SMOOTH",
"788 655 OFFCURVE",
"780 649 OFFCURVE",
"777 640 CURVE SMOOTH",
"705 448 LINE SMOOTH",
"678 377 OFFCURVE",
"645 252 OFFCURVE",
"626 181 CURVE",
"624 181 LINE",
"623 233 OFFCURVE",
"621 285 OFFCURVE",
"616 337 CURVE SMOOTH",
"586 621 LINE SMOOTH",
"585 631 OFFCURVE",
"580 636 OFFCURVE",
"571 636 CURVE SMOOTH",
"422 636 LINE SMOOTH",
"412 636 OFFCURVE",
"407 632 OFFCURVE",
"409 621 CURVE SMOOTH",
"429 504 LINE",
"341 325 LINE SMOOTH",
"318 278 OFFCURVE",
"297 229 OFFCURVE",
"277 181 CURVE",
"274 181 LINE",
"278 250 OFFCURVE",
"278 319 OFFCURVE",
"274 388 CURVE SMOOTH",
"259 640 LINE SMOOTH",
"258 650 OFFCURVE",
"254 655 OFFCURVE",
"244 655 CURVE SMOOTH",
"94 655 LINE SMOOTH",
"85 655 OFFCURVE",
"80 650 OFFCURVE",
"81 640 CURVE SMOOTH",
"145 15 LINE SMOOTH",
"146 5 OFFCURVE",
"152 0 OFFCURVE",
"161 0 CURVE SMOOTH"
);
}
);
width = 902;
},
{
anchors = (
{
name = bottom;
position = "{406, 0}";
},
{
name = top;
position = "{483, 655}";
}
);
layerId = "8E001827-4555-4882-9710-42A9586BB804";
paths = (
{
closed = 1;
nodes = (
"234 0 LINE SMOOTH",
"237 0 OFFCURVE",
"238 0 OFFCURVE",
"240 4 CURVE SMOOTH",
"432 399 LINE SMOOTH",
"446 427 OFFCURVE",
"459 454 OFFCURVE",
"472 482 CURVE",
"473 482 LINE",
"477 450 OFFCURVE",
"480 425 OFFCURVE",
"484 396 CURVE SMOOTH",
"538 4 LINE SMOOTH",
"539 0 OFFCURVE",
"540 0 OFFCURVE",
"543 0 CURVE",
"557 0 LINE SMOOTH",
"560 0 OFFCURVE",
"561 0 OFFCURVE",
"563 4 CURVE SMOOTH",
"870 652 LINE SMOOTH",
"871 654 OFFCURVE",
"870 655 OFFCURVE",
"868 655 CURVE SMOOTH",
"856 655 LINE SMOOTH",
"854 655 OFFCURVE",
"853 655 OFFCURVE",
"852 652 CURVE SMOOTH",
"607 132 LINE SMOOTH",
"589 93 OFFCURVE",
"570 54 OFFCURVE",
"552 15 CURVE",
"551 15 LINE",
"546 57 OFFCURVE",
"541 98 OFFCURVE",
"535 140 CURVE SMOOTH",
"466 641 LINE SMOOTH",
"465 645 OFFCURVE",
"464 645 OFFCURVE",
"461 645 CURVE SMOOTH",
"454 645 LINE SMOOTH",
"451 645 OFFCURVE",
"451 644 OFFCURVE",
"451 641 CURVE SMOOTH",
"469 508 LINE",
"286 133 LINE SMOOTH",
"267 94 OFFCURVE",
"249 54 OFFCURVE",
"230 15 CURVE",
"229 15 LINE",
"223 55 OFFCURVE",
"217 95 OFFCURVE",
"211 135 CURVE SMOOTH",
"129 651 LINE SMOOTH",
"128 655 OFFCURVE",
"127 655 OFFCURVE",
"124 655 CURVE SMOOTH",
"116 655 LINE SMOOTH",
"114 655 OFFCURVE",
"113 654 OFFCURVE",
"113 652 CURVE SMOOTH",
"216 4 LINE SMOOTH",
"217 0 OFFCURVE",
"218 0 OFFCURVE",
"221 0 CURVE SMOOTH"
);
}
);
width = 835;
},
{
anchors = (
{
name = bottom;
position = "{376, 0}";
},
{
name = top;
position = "{470, 655}";
}
);
layerId = "0382B793-66DA-492C-99CF-A998862EA4E0";
paths = (
{
closed = 1;
nodes = (
"270 0 LINE SMOOTH",
"276 0 OFFCURVE",
"279 3 OFFCURVE",
"282 8 CURVE",
"395 258 LINE SMOOTH",
"412 297 OFFCURVE",
"430 336 OFFCURVE",
"447 375 CURVE",
"448 375 LINE",
"453 337 OFFCURVE",
"457 298 OFFCURVE",
"462 260 CURVE SMOOTH",
"494 8 LINE",
"494 3 OFFCURVE",
"497 0 OFFCURVE",
"503 0 CURVE SMOOTH",
"596 0 LINE SMOOTH",
"602 0 OFFCURVE",
"606 3 OFFCURVE",
"608 8 CURVE SMOOTH",
"881 644 LINE SMOOTH",
"885 651 OFFCURVE",
"881 655 OFFCURVE",
"874 655 CURVE SMOOTH",
"807 655 LINE SMOOTH",
"801 655 OFFCURVE",
"796 652 OFFCURVE",
"794 646 CURVE SMOOTH",
"615 223 LINE SMOOTH",
"597 180 OFFCURVE",
"579 137 OFFCURVE",
"561 93 CURVE",
"560 93 LINE",
"556 137 OFFCURVE",
"551 182 OFFCURVE",
"547 226 CURVE SMOOTH",
"502 636 LINE SMOOTH",
"502 641 OFFCURVE",
"498 645 OFFCURVE",
"493 645 CURVE SMOOTH",
"427 645 LINE SMOOTH",
"420 645 OFFCURVE",
"415 641 OFFCURVE",
"416 634 CURVE SMOOTH",
"431 510 LINE",
"301 226 LINE SMOOTH",
"281 182 OFFCURVE",
"261 137 OFFCURVE",
"241 93 CURVE",
"240 93 LINE",
"235 139 OFFCURVE",
"230 184 OFFCURVE",
"225 230 CURVE SMOOTH",
"177 646 LINE SMOOTH",
"176 652 OFFCURVE",
"174 655 OFFCURVE",
"168 655 CURVE SMOOTH",
"103 655 LINE SMOOTH",
"96 655 OFFCURVE",
"92 651 OFFCURVE",
"93 644 CURVE SMOOTH",
"171 8 LINE",
"171 3 OFFCURVE",
"175 0 OFFCURVE",
"181 0 CURVE SMOOTH"
);
}
);
width = 830;
}
);
leftKerningGroup = W;
rightKerningGroup = W;
unicode = 0057;
},
{
glyphname = X;
lastChange = "2020-01-15 12:57:37 +0000";
layers = (
{
layerId = UUID0;
paths = (
{
closed = 1;
nodes = (
"166 0 LINE SMOOTH",
"175 0 OFFCURVE",
"182 7 OFFCURVE",
"188 15 CURVE SMOOTH",
"256 113 LINE SMOOTH",
"275 140 OFFCURVE",
"294 170 OFFCURVE",
"312 198 CURVE",
"315 198 LINE",
"325 169 OFFCURVE",
"334 139 OFFCURVE",
"345 110 CURVE SMOOTH",
"381 15 LINE SMOOTH",
"384 6 OFFCURVE",
"388 0 OFFCURVE",
"398 0 CURVE SMOOTH",
"572 0 LINE SMOOTH",
"581 0 OFFCURVE",
"589 6 OFFCURVE",
"585 15 CURVE SMOOTH",
"434 335 LINE",
"673 640 LINE SMOOTH",
"677 648 OFFCURVE",
"674 655 OFFCURVE",
"666 655 CURVE SMOOTH",
"484 655 LINE SMOOTH",
"475 655 OFFCURVE",
"470 648 OFFCURVE",
"464 640 CURVE SMOOTH",
"407 555 LINE SMOOTH",
"389 528 OFFCURVE",
"369 498 OFFCURVE",
"352 470 CURVE",
"349 470 LINE",
"340 497 OFFCURVE",
"331 525 OFFCURVE",
"321 552 CURVE SMOOTH",
"287 640 LINE SMOOTH",
"284 649 OFFCURVE",
"281 655 OFFCURVE",
"271 655 CURVE SMOOTH",
"98 655 LINE SMOOTH",
"89 655 OFFCURVE",
"81 649 OFFCURVE",
"85 640 CURVE SMOOTH",
"228 334 LINE",
"-26 15 LINE SMOOTH",
"-30 7 OFFCURVE",
"-27 0 OFFCURVE",
"-19 0 CURVE SMOOTH"
);
}
);
width = 613;
},
{
layerId = "8E001827-4555-4882-9710-42A9586BB804";
paths = (
{
closed = 1;
nodes = (
"-2 0 LINE SMOOTH",
"1 0 OFFCURVE",
"2 1 OFFCURVE",
"4 3 CURVE SMOOTH",
"170 195 LINE SMOOTH",
"207 238 OFFCURVE",
"245 281 OFFCURVE",
"282 324 CURVE",
"283 324 LINE",
"306 282 OFFCURVE",
"329 241 OFFCURVE",
"352 199 CURVE SMOOTH",
"462 2 LINE SMOOTH",
"463 0 OFFCURVE",
"465 0 OFFCURVE",
"467 0 CURVE SMOOTH",
"476 0 LINE SMOOTH",
"479 0 OFFCURVE",
"480 2 OFFCURVE",
"479 4 CURVE SMOOTH",
"296 336 LINE",
"570 651 LINE SMOOTH",
"572 653 OFFCURVE",
"571 655 OFFCURVE",
"569 655 CURVE SMOOTH",
"556 655 LINE SMOOTH",
"554 655 OFFCURVE",
"553 655 OFFCURVE",
"551 653 CURVE SMOOTH",
"375 451 LINE SMOOTH",
"345 417 OFFCURVE",
"316 383 OFFCURVE",
"286 349 CURVE",
"285 349 LINE",
"267 382 OFFCURVE",
"248 415 OFFCURVE",
"230 448 CURVE SMOOTH",
"115 653 LINE SMOOTH",
"114 655 OFFCURVE",
"113 655 OFFCURVE",
"111 655 CURVE SMOOTH",
"100 655 LINE SMOOTH",
"98 655 OFFCURVE",
"97 653 OFFCURVE",
"98 651 CURVE SMOOTH",
"272 337 LINE",
"-15 5 LINE SMOOTH",
"-18 2 OFFCURVE",
"-17 0 OFFCURVE",
"-14 0 CURVE SMOOTH"
);
}
);
width = 520;
},
{
layerId = "0382B793-66DA-492C-99CF-A998862EA4E0";
paths = (
{
closed = 1;
nodes = (
"64 0 LINE SMOOTH",
"69 0 OFFCURVE",
"73 3 OFFCURVE",
"77 7 CURVE SMOOTH",
"230 198 LINE SMOOTH",
"249 222 OFFCURVE",
"268 246 OFFCURVE",
"287 270 CURVE",
"288 270 LINE",
"300 245 OFFCURVE",
"311 220 OFFCURVE",
"323 195 CURVE SMOOTH",
"412 6 LINE SMOOTH",
"414 1 OFFCURVE",
"418 0 OFFCURVE",
"423 0 CURVE SMOOTH",
"497 0 LINE SMOOTH",
"505 0 OFFCURVE",
"508 5 OFFCURVE",
"505 12 CURVE SMOOTH",
"350 336 LINE",
"593 643 LINE SMOOTH",
"598 650 OFFCURVE",
"595 655 OFFCURVE",
"588 655 CURVE SMOOTH",
"513 655 LINE SMOOTH",
"507 655 OFFCURVE",
"503 653 OFFCURVE",
"499 649 CURVE SMOOTH",
"366 483 LINE SMOOTH",
"345 456 OFFCURVE",
"325 430 OFFCURVE",
"304 403 CURVE",
"303 403 LINE",
"290 430 OFFCURVE",
"278 456 OFFCURVE",
"265 483 CURVE SMOOTH",
"187 648 LINE SMOOTH",
"185 653 OFFCURVE",
"181 655 OFFCURVE",
"176 655 CURVE SMOOTH",
"100 655 LINE SMOOTH",
"92 655 OFFCURVE",
"90 650 OFFCURVE",
"92 643 CURVE SMOOTH",
"240 338 LINE",
"-21 12 LINE SMOOTH",
"-26 5 OFFCURVE",
"-25 0 OFFCURVE",
"-17 0 CURVE SMOOTH"
);
}
);
width = 540;
}
);
leftKerningGroup = X;
rightKerningGroup = X;
unicode = 0058;
},
{
glyphname = Y;
lastChange = "2020-01-15 12:57:37 +0000";
layers = (
{
anchors = (
{
name = bottom;
position = "{272, 0}";
},
{
name = top;
position = "{366, 655}";
},
{
name = topleft;
position = "{84, 655}";
}
);
layerId = UUID0;
paths = (
{
closed = 1;
nodes = (
"350 0 LINE SMOOTH",
"359 0 OFFCURVE",
"364 6 OFFCURVE",
"365 15 CURVE SMOOTH",
"399 227 LINE",
"675 640 LINE SMOOTH",
"680 647 OFFCURVE",
"676 655 OFFCURVE",
"668 655 CURVE SMOOTH",
"487 655 LINE SMOOTH",
"478 655 OFFCURVE",
"472 649 OFFCURVE",
"467 640 CURVE SMOOTH",
"402 524 LINE SMOOTH",
"376 477 OFFCURVE",
"352 431 OFFCURVE",
"327 384 CURVE",
"325 384 LINE",
"315 431 OFFCURVE",
"305 479 OFFCURVE",
"294 526 CURVE SMOOTH",
"267 640 LINE SMOOTH",
"265 649 OFFCURVE",
"261 655 OFFCURVE",
"251 655 CURVE SMOOTH",
"86 655 LINE SMOOTH",
"77 655 OFFCURVE",
"70 649 OFFCURVE",
"73 640 CURVE SMOOTH",
"217 227 LINE",
"184 15 LINE SMOOTH",
"183 6 OFFCURVE",
"188 0 OFFCURVE",
"198 0 CURVE SMOOTH"
);
}
);
width = 604;
},
{
anchors = (
{
name = bottom;
position = "{221, 0}";
},
{
name = top;
position = "{316, 655}";
},
{
name = topleft;
position = "{94, 655}";
}
);
layerId = "8E001827-4555-4882-9710-42A9586BB804";
paths = (
{
closed = 1;
nodes = (
"224 0 LINE SMOOTH",
"227 0 OFFCURVE",
"228 0 OFFCURVE",
"229 5 CURVE SMOOTH",
"264 225 LINE",
"557 651 LINE SMOOTH",
"559 654 OFFCURVE",
"557 655 OFFCURVE",
"555 655 CURVE SMOOTH",
"545 655 LINE SMOOTH",
"543 655 OFFCURVE",
"542 655 OFFCURVE",
"540 652 CURVE SMOOTH",
"345 370 LINE SMOOTH",
"316 328 OFFCURVE",
"288 286 OFFCURVE",
"259 244 CURVE",
"258 244 LINE",
"243 286 OFFCURVE",
"227 327 OFFCURVE",
"212 369 CURVE SMOOTH",
"108 651 LINE SMOOTH",
"107 654 OFFCURVE",
"106 655 OFFCURVE",
"104 655 CURVE SMOOTH",
"94 655 LINE SMOOTH",
"92 655 OFFCURVE",
"90 654 OFFCURVE",
"91 651 CURVE SMOOTH",
"248 225 LINE",
"213 5 LINE SMOOTH",
"212 0 OFFCURVE",
"214 0 OFFCURVE",
"217 0 CURVE SMOOTH"
);
}
);
width = 501;
},
{
anchors = (
{
name = bottom;
position = "{223, 0}";
},
{
name = top;
position = "{328, 655}";
},
{
name = topleft;
position = "{85, 655}";
}
);
layerId = "0382B793-66DA-492C-99CF-A998862EA4E0";
paths = (
{
closed = 1;
nodes = (
"264 0 LINE SMOOTH",
"270 0 OFFCURVE",
"274 4 OFFCURVE",
"275 10 CURVE SMOOTH",
"309 225 LINE",
"585 643 LINE SMOOTH",
"589 650 OFFCURVE",
"587 655 OFFCURVE",
"580 655 CURVE SMOOTH",
"504 655 LINE SMOOTH",
"498 655 OFFCURVE",
"494 652 OFFCURVE",
"491 647 CURVE SMOOTH",
"360 443 LINE SMOOTH",
"332 400 OFFCURVE",
"306 358 OFFCURVE",
"280 315 CURVE",
"279 315 LINE",
"266 358 OFFCURVE",
"252 401 OFFCURVE",
"238 444 CURVE SMOOTH",
"174 646 LINE SMOOTH",
"172 652 OFFCURVE",
"168 655 OFFCURVE",
"162 655 CURVE SMOOTH",
"91 655 LINE SMOOTH",
"85 655 OFFCURVE",
"81 650 OFFCURVE",
"83 643 CURVE SMOOTH",
"226 225 LINE",
"192 10 LINE SMOOTH",
"191 4 OFFCURVE",
"194 0 OFFCURVE",
"200 0 CURVE SMOOTH"
);
}
);
width = 524;
}
);
leftKerningGroup = Y;
rightKerningGroup = Y;
unicode = 0059;
},
{
glyphname = Z;
lastChange = "2020-01-15 12:57:37 +0000";
layers = (
{
anchors = (
{
name = bottom;
position = "{252, 0}";
},
{
name = top;
position = "{370, 655}";
}
);
layerId = UUID0;
paths = (
{
closed = 1;
nodes = (
"487 0 LINE SMOOTH",
"495 0 OFFCURVE",
"502 7 OFFCURVE",
"503 15 CURVE SMOOTH",
"524 145 LINE SMOOTH",
"526 155 OFFCURVE",
"519 160 OFFCURVE",
"510 160 CURVE SMOOTH",
"381 160 LINE SMOOTH",
"343 160 OFFCURVE",
"310 160 OFFCURVE",
"275 158 CURVE",
"275 161 LINE",
"302 194 OFFCURVE",
"329 228 OFFCURVE",
"354 262 CURVE SMOOTH",
"616 611 LINE SMOOTH",
"620 617 OFFCURVE",
"623 623 OFFCURVE",
"624 630 CURVE SMOOTH",
"626 640 LINE SMOOTH",
"627 649 OFFCURVE",
"622 655 OFFCURVE",
"613 655 CURVE SMOOTH",
"124 655 LINE SMOOTH",
"116 655 OFFCURVE",
"109 648 OFFCURVE",
"108 640 CURVE SMOOTH",
"87 510 LINE SMOOTH",
"85 500 OFFCURVE",
"92 495 OFFCURVE",
"101 495 CURVE SMOOTH",
"222 495 LINE SMOOTH",
"258 495 OFFCURVE",
"292 495 OFFCURVE",
"326 496 CURVE",
"326 493 LINE",
"302 463 OFFCURVE",
"280 435 OFFCURVE",
"258 405 CURVE SMOOTH",
"-8 44 LINE SMOOTH",
"-13 38 OFFCURVE",
"-15 32 OFFCURVE",
"-16 25 CURVE SMOOTH",
"-17 15 LINE SMOOTH",
"-19 6 OFFCURVE",
"-14 0 OFFCURVE",
"-5 0 CURVE SMOOTH"
);
}
);
width = 566;
},
{
anchors = (
{
name = bottom;
position = "{233, 0}";
},
{
name = top;
position = "{340, 655}";
}
);
layerId = "8E001827-4555-4882-9710-42A9586BB804";
paths = (
{
closed = 1;
nodes = (
"434 0 LINE SMOOTH",
"437 0 OFFCURVE",
"438 0 OFFCURVE",
"439 3 CURVE SMOOTH",
"441 12 LINE SMOOTH",
"442 16 OFFCURVE",
"440 16 OFFCURVE",
"438 16 CURVE SMOOTH",
"146 16 LINE SMOOTH",
"109 16 OFFCURVE",
"71 16 OFFCURVE",
"34 16 CURVE",
"34 17 LINE",
"62 51 OFFCURVE",
"90 84 OFFCURVE",
"118 118 CURVE SMOOTH",
"555 642 LINE SMOOTH",
"557 644 OFFCURVE",
"558 645 OFFCURVE",
"559 648 CURVE SMOOTH",
"560 652 LINE SMOOTH",
"561 655 OFFCURVE",
"559 655 OFFCURVE",
"557 655 CURVE SMOOTH",
"147 655 LINE SMOOTH",
"144 655 OFFCURVE",
"143 655 OFFCURVE",
"142 652 CURVE SMOOTH",
"140 643 LINE SMOOTH",
"139 639 OFFCURVE",
"141 639 OFFCURVE",
"143 639 CURVE SMOOTH",
"405 639 LINE SMOOTH",
"448 639 OFFCURVE",
"489 639 OFFCURVE",
"531 639 CURVE",
"531 638 LINE",
"507 609 OFFCURVE",
"483 580 OFFCURVE",
"459 551 CURVE SMOOTH",
"12 15 LINE SMOOTH",
"9 12 OFFCURVE",
"8 11 OFFCURVE",
"7 7 CURVE SMOOTH",
"6 4 LINE SMOOTH",
"5 1 OFFCURVE",
"6 0 OFFCURVE",
"9 0 CURVE SMOOTH"
);
}
);
width = 525;
},
{
anchors = (
{
name = bottom;
position = "{228, 0}";
},
{
name = top;
position = "{340, 655}";
}
);
layerId = "0382B793-66DA-492C-99CF-A998862EA4E0";
paths = (
{
closed = 1;
nodes = (
"449 0 LINE SMOOTH",
"455 0 OFFCURVE",
"460 4 OFFCURVE",
"461 10 CURVE SMOOTH",
"470 67 LINE SMOOTH",
"471 73 OFFCURVE",
"467 77 OFFCURVE",
"461 77 CURVE SMOOTH",
"256 77 LINE SMOOTH",
"216 77 OFFCURVE",
"176 77 OFFCURVE",
"136 77 CURVE",
"136 78 LINE",
"162 110 OFFCURVE",
"189 142 OFFCURVE",
"215 174 CURVE SMOOTH",
"578 631 LINE SMOOTH",
"582 636 OFFCURVE",
"584 640 OFFCURVE",
"584 644 CURVE SMOOTH",
"584 646 LINE SMOOTH",
"584 652 OFFCURVE",
"581 655 OFFCURVE",
"576 655 CURVE SMOOTH",
"135 655 LINE SMOOTH",
"130 655 OFFCURVE",
"125 651 OFFCURVE",
"124 645 CURVE SMOOTH",
"115 588 LINE SMOOTH",
"114 582 OFFCURVE",
"117 578 OFFCURVE",
"123 578 CURVE SMOOTH",
"326 578 LINE SMOOTH",
"363 578 OFFCURVE",
"399 578 OFFCURVE",
"436 578 CURVE",
"436 577 LINE",
"411 545 OFFCURVE",
"384 513 OFFCURVE",
"359 481 CURVE SMOOTH",
"-3 24 LINE SMOOTH",
"-7 19 OFFCURVE",
"-9 15 OFFCURVE",
"-9 10 CURVE SMOOTH",
"-9 8 LINE SMOOTH",
"-9 2 OFFCURVE",
"-6 0 OFFCURVE",
"-1 0 CURVE SMOOTH"
);
}
);
width = 534;
}
);
leftKerningGroup = Z;
rightKerningGroup = Z;
unicode = 005A;
},
{
glyphname = a;
lastChange = "2020-01-15 12:57:37 +0000";
layers = (
{
anchors = (
{
name = bottom;
position = "{229, 0}";
},
{
name = ogonek;
position = "{479, 10}";
},
{
name = top;
position = "{322, 500}";
}
);
layerId = UUID0;
paths = (
{
closed = 1;
nodes = (
"197 -12 OFFCURVE",
"265 17 OFFCURVE",
"320 69 CURVE",
"319 50 OFFCURVE",
"318 31 OFFCURVE",
"320 15 CURVE SMOOTH",
"321 6 OFFCURVE",
"326 0 OFFCURVE",
"335 0 CURVE SMOOTH",
"460 0 LINE SMOOTH",
"469 0 OFFCURVE",
"474 5 OFFCURVE",
"475 15 CURVE SMOOTH",
"477 50 OFFCURVE",
"481 87 OFFCURVE",
"488 131 CURVE SMOOTH",
"546 490 LINE",
"466 495 OFFCURVE",
"395 512 OFFCURVE",
"298 512 CURVE SMOOTH",
"144 512 OFFCURVE",
"73 450 OFFCURVE",
"50 309 CURVE SMOOTH",
"26 160 LINE SMOOTH",
"8 49 OFFCURVE",
"43 -12 OFFCURVE",
"137 -12 CURVE SMOOTH"
);
},
{
closed = 1;
nodes = (
"215 142 OFFCURVE",
"203 160 OFFCURVE",
"209 198 CURVE SMOOTH",
"224 297 LINE SMOOTH",
"231 345 OFFCURVE",
"250 368 OFFCURVE",
"289 368 CURVE SMOOTH",
"315 368 OFFCURVE",
"334 365 OFFCURVE",
"349 362 CURVE",
"319 172 LINE",
"295 154 OFFCURVE",
"273 142 OFFCURVE",
"246 142 CURVE SMOOTH"
);
}
);
width = 538;
},
{
anchors = (
{
name = bottom;
position = "{221, 0}";
},
{
name = ogonek;
position = "{408, 10}";
},
{
name = top;
position = "{297, 478}";
}
);
layerId = "8E001827-4555-4882-9710-42A9586BB804";
paths = (
{
closed = 1;
nodes = (
"248 -12 OFFCURVE",
"313 24 OFFCURVE",
"395 103 CURVE",
"389 69 OFFCURVE",
"386 34 OFFCURVE",
"384 3 CURVE SMOOTH",
"384 0 OFFCURVE",
"385 0 OFFCURVE",
"387 0 CURVE SMOOTH",
"397 0 LINE SMOOTH",
"399 0 OFFCURVE",
"400 1 OFFCURVE",
"400 3 CURVE SMOOTH",
"402 30 OFFCURVE",
"404 59 OFFCURVE",
"412 110 CURVE SMOOTH",
"468 462 LINE",
"405 474 OFFCURVE",
"354 490 OFFCURVE",
"297 490 CURVE SMOOTH",
"190 490 OFFCURVE",
"112 445 OFFCURVE",
"94 328 CURVE SMOOTH",
"67 156 LINE SMOOTH",
"49 43 OFFCURVE",
"88 -12 OFFCURVE",
"180 -12 CURVE SMOOTH"
);
},
{
closed = 1;
nodes = (
"97 4 OFFCURVE",
"67 54 OFFCURVE",
"83 157 CURVE SMOOTH",
"110 326 LINE SMOOTH",
"127 435 OFFCURVE",
"202 474 OFFCURVE",
"297 474 CURVE SMOOTH",
"342 474 OFFCURVE",
"396 462 OFFCURVE",
"450 449 CURVE",
"399 125 LINE",
"312 43 OFFCURVE",
"247 4 OFFCURVE",
"181 4 CURVE SMOOTH"
);
}
);
width = 517;
},
{
anchors = (
{
name = bottom;
position = "{225, 0}";
},
{
name = ogonek;
position = "{443, 10}";
},
{
name = top;
position = "{305, 488}";
}
);
layerId = "0382B793-66DA-492C-99CF-A998862EA4E0";
paths = (
{
closed = 1;
nodes = (
"231 -12 OFFCURVE",
"297 18 OFFCURVE",
"359 77 CURVE",
"357 54 OFFCURVE",
"356 31 OFFCURVE",
"356 10 CURVE SMOOTH",
"356 3 OFFCURVE",
"359 0 OFFCURVE",
"366 0 CURVE SMOOTH",
"421 0 LINE SMOOTH",
"429 0 OFFCURVE",
"433 4 OFFCURVE",
"433 10 CURVE SMOOTH",
"433 47 OFFCURVE",
"438 86 OFFCURVE",
"444 122 CURVE SMOOTH",
"500 475 LINE",
"423 480 OFFCURVE",
"370 500 OFFCURVE",
"301 500 CURVE SMOOTH",
"168 500 OFFCURVE",
"102 446 OFFCURVE",
"80 308 CURVE SMOOTH",
"60 182 LINE SMOOTH",
"42 69 OFFCURVE",
"69 -12 OFFCURVE",
"172 -12 CURVE SMOOTH"
);
},
{
closed = 1;
nodes = (
"142 63 OFFCURVE",
"131 109 OFFCURVE",
"142 179 CURVE SMOOTH",
"162 301 LINE SMOOTH",
"176 386 OFFCURVE",
"212 425 OFFCURVE",
"301 425 CURVE SMOOTH",
"330 425 OFFCURVE",
"375 421 OFFCURVE",
"407 414 CURVE",
"365 148 LINE",
"295 86 OFFCURVE",
"249 63 OFFCURVE",
"204 63 CURVE SMOOTH"
);
}
);
width = 528;
}
);
leftKerningGroup = o;
leftMetricsKey = o;
rightKerningGroup = u;
rightMetricsKey = u;
unicode = 0061;
},
{
glyphname = ae;
lastChange = "2020-01-15 12:57:37 +0000";
layers = (
{
layerId = UUID0;
paths = (
{
closed = 1;
nodes = (
"194 -12 OFFCURVE",
"251 14 OFFCURVE",
"318 77 CURVE",
"351 17 OFFCURVE",
"413 -12 OFFCURVE",
"510 -12 CURVE SMOOTH",
"659 -12 OFFCURVE",
"738 42 OFFCURVE",
"749 151 CURVE SMOOTH",
"750 161 OFFCURVE",
"745 166 OFFCURVE",
"735 166 CURVE SMOOTH",
"595 166 LINE SMOOTH",
"587 166 OFFCURVE",
"581 160 OFFCURVE",
"580 151 CURVE SMOOTH",
"578 130 OFFCURVE",
"558 118 OFFCURVE",
"523 118 CURVE SMOOTH",
"479 118 OFFCURVE",
"462 141 OFFCURVE",
"470 190 CURVE SMOOTH",
"473 208 LINE",
"584 211 LINE SMOOTH",
"729 215 OFFCURVE",
"791 265 OFFCURVE",
"791 378 CURVE SMOOTH",
"791 462 OFFCURVE",
"723 512 OFFCURVE",
"611 512 CURVE SMOOTH",
"540 512 OFFCURVE",
"485 494 OFFCURVE",
"436 457 CURVE",
"398 497 OFFCURVE",
"354 512 OFFCURVE",
"279 512 CURVE SMOOTH",
"147 512 OFFCURVE",
"76 457 OFFCURVE",
"66 343 CURVE SMOOTH",
"65 334 OFFCURVE",
"70 328 OFFCURVE",
"80 328 CURVE SMOOTH",
"214 328 LINE SMOOTH",
"222 328 OFFCURVE",
"228 334 OFFCURVE",
"229 343 CURVE SMOOTH",
"230 373 OFFCURVE",
"246 386 OFFCURVE",
"280 386 CURVE SMOOTH",
"313 386 OFFCURVE",
"326 369 OFFCURVE",
"320 335 CURVE SMOOTH",
"313 295 LINE",
"225 292 LINE SMOOTH",
"77 286 OFFCURVE",
"8 228 OFFCURVE",
"8 109 CURVE SMOOTH",
"8 32 OFFCURVE",
"51 -12 OFFCURVE",
"125 -12 CURVE SMOOTH"
);
},
{
closed = 1;
nodes = (
"193 115 OFFCURVE",
"181 128 OFFCURVE",
"181 151 CURVE SMOOTH",
"181 187 OFFCURVE",
"202 204 OFFCURVE",
"250 207 CURVE SMOOTH",
"299 210 LINE",
"297 199 LINE SMOOTH",
"294 183 OFFCURVE",
"293 169 OFFCURVE",
"295 156 CURVE",
"266 129 OFFCURVE",
"238 115 OFFCURVE",
"215 115 CURVE SMOOTH"
);
},
{
closed = 1;
nodes = (
"489 312 LINE SMOOTH",
"496 358 OFFCURVE",
"522 381 OFFCURVE",
"565 381 CURVE SMOOTH",
"596 381 OFFCURVE",
"611 370 OFFCURVE",
"611 347 CURVE SMOOTH",
"611 315 OFFCURVE",
"594 302 OFFCURVE",
"545 300 CURVE SMOOTH",
"487 298 LINE"
);
}
);
width = 796;
},
{
layerId = "8E001827-4555-4882-9710-42A9586BB804";
paths = (
{
closed = 1;
nodes = (
"216 -12 OFFCURVE",
"269 15 OFFCURVE",
"361 109 CURVE",
"371 30 OFFCURVE",
"425 -12 OFFCURVE",
"516 -12 CURVE SMOOTH",
"627 -12 OFFCURVE",
"685 30 OFFCURVE",
"696 118 CURVE SMOOTH",
"696 120 OFFCURVE",
"696 122 OFFCURVE",
"693 122 CURVE SMOOTH",
"684 122 LINE SMOOTH",
"681 122 OFFCURVE",
"680 121 OFFCURVE",
"680 118 CURVE SMOOTH",
"671 42 OFFCURVE",
"618 4 OFFCURVE",
"520 4 CURVE SMOOTH",
"411 4 OFFCURVE",
"362 62 OFFCURVE",
"379 173 CURVE SMOOTH",
"390 245 LINE",
"551 254 LINE SMOOTH",
"695 262 OFFCURVE",
"733 304 OFFCURVE",
"733 380 CURVE SMOOTH",
"733 450 OFFCURVE",
"677 490 OFFCURVE",
"581 490 CURVE SMOOTH",
"497 490 OFFCURVE",
"436 456 OFFCURVE",
"406 391 CURVE",
"402 455 OFFCURVE",
"356 490 OFFCURVE",
"278 490 CURVE SMOOTH",
"179 490 OFFCURVE",
"129 452 OFFCURVE",
"122 368 CURVE SMOOTH",
"122 364 OFFCURVE",
"122 363 OFFCURVE",
"125 363 CURVE SMOOTH",
"135 363 LINE SMOOTH",
"138 363 OFFCURVE",
"138 365 OFFCURVE",
"138 368 CURVE SMOOTH",
"145 441 OFFCURVE",
"188 474 OFFCURVE",
"276 474 CURVE SMOOTH",
"365 474 OFFCURVE",
"402 429 OFFCURVE",
"388 339 CURVE SMOOTH",
"376 260 LINE",
"217 249 LINE SMOOTH",
"108 241 OFFCURVE",
"50 190 OFFCURVE",
"50 89 CURVE SMOOTH",
"50 26 OFFCURVE",
"86 -12 OFFCURVE",
"145 -12 CURVE SMOOTH"
);
},
{
closed = 1;
nodes = (
"95.724 4 OFFCURVE",
"66 35.926 OFFCURVE",
"66 91 CURVE SMOOTH",
"66 177.804 OFFCURVE",
"118 226 OFFCURVE",
"215 233 CURVE SMOOTH",
"374 244 LINE",
"366 188 LINE SMOOTH",
"362 162 OFFCURVE",
"361 148 OFFCURVE",
"360 131 CURVE",
"273 39 OFFCURVE",
"213.425 4 OFFCURVE",
"147 4 CURVE SMOOTH"
);
},
{
closed = 1;
nodes = (
"402 323 LINE SMOOTH",
"418.297 421.803 OFFCURVE",
"479.828 474 OFFCURVE",
"580 474 CURVE SMOOTH",
"667 474 OFFCURVE",
"717 439 OFFCURVE",
"717 378 CURVE SMOOTH",
"717 303 OFFCURVE",
"672 277 OFFCURVE",
"550 270 CURVE SMOOTH",
"393 261 LINE"
);
}
);
width = 787;
},
{
guideLines = (
{
position = "{593, 296}";
}
);
layerId = "0382B793-66DA-492C-99CF-A998862EA4E0";
paths = (
{
closed = 1;
nodes = (
"229 -12 OFFCURVE",
"287 15 OFFCURVE",
"354 83 CURVE",
"374 17 OFFCURVE",
"427 -12 OFFCURVE",
"513 -12 CURVE SMOOTH",
"628 -12 OFFCURVE",
"710 44 OFFCURVE",
"710 124 CURVE SMOOTH",
"710 131 OFFCURVE",
"708 135 OFFCURVE",
"700 135 CURVE SMOOTH",
"636 135 LINE SMOOTH",
"630 135 OFFCURVE",
"626 132 OFFCURVE",
"625 124 CURVE SMOOTH",
"618 84 OFFCURVE",
"578 63 OFFCURVE",
"524 63 CURVE SMOOTH",
"452 63 OFFCURVE",
"415 99 OFFCURVE",
"425 168 CURVE SMOOTH",
"433 221 LINE",
"577 222 LINE SMOOTH",
"688 223 OFFCURVE",
"751 275 OFFCURVE",
"751 366 CURVE SMOOTH",
"751 453 OFFCURVE",
"694 500 OFFCURVE",
"590 500 CURVE SMOOTH",
"525 500 OFFCURVE",
"476 479 OFFCURVE",
"431 433 CURVE",
"409 477 OFFCURVE",
"362 500 OFFCURVE",
"294 500 CURVE SMOOTH",
"188 500 OFFCURVE",
"114 449 OFFCURVE",
"114 364 CURVE SMOOTH",
"114 357 OFFCURVE",
"118 353 OFFCURVE",
"124 353 CURVE SMOOTH",
"185 353 LINE SMOOTH",
"192 353 OFFCURVE",
"196 356 OFFCURVE",
"197 365 CURVE SMOOTH",
"203 405 OFFCURVE",
"237 425 OFFCURVE",
"296 425 CURVE SMOOTH",
"361 425 OFFCURVE",
"381 396 OFFCURVE",
"367 320 CURVE SMOOTH",
"361 287 LINE",
"286 287 LINE SMOOTH",
"131 287 OFFCURVE",
"53 230 OFFCURVE",
"53 116 CURVE SMOOTH",
"53 33 OFFCURVE",
"93 -12 OFFCURVE",
"168 -12 CURVE SMOOTH"
);
},
{
closed = 1;
nodes = (
"154 63 OFFCURVE",
"138 80 OFFCURVE",
"138 119 CURVE SMOOTH",
"138 189 OFFCURVE",
"184 221 OFFCURVE",
"283 221 CURVE SMOOTH",
"350 221 LINE",
"348 206 LINE SMOOTH",
"345 187 OFFCURVE",
"344 168 OFFCURVE",
"344 150 CURVE",
"279 87 OFFCURVE",
"237 63 OFFCURVE",
"192 63 CURVE SMOOTH"
);
},
{
closed = 1;
nodes = (
"448 312 LINE SMOOTH",
"460 388 OFFCURVE",
"502 425 OFFCURVE",
"575 425 CURVE SMOOTH",
"634 425 OFFCURVE",
"664 402 OFFCURVE",
"664 359 CURVE SMOOTH",
"664 309 OFFCURVE",
"632 287 OFFCURVE",
"566 287 CURVE SMOOTH",
"444 287 LINE"
);
}
);
width = 784;
}
);
leftKerningGroup = ae;
rightKerningGroup = e;
rightMetricsKey = e;
unicode = 00E6;
},
{
glyphname = b;
lastChange = "2020-01-15 12:57:37 +0000";
layers = (
{
layerId = UUID0;
paths = (
{
closed = 1;
nodes = (
"411 -12 OFFCURVE",
"481 51 OFFCURVE",
"504 191 CURVE SMOOTH",
"529 346 LINE SMOOTH",
"547 459 OFFCURVE",
"503 512 OFFCURVE",
"415 512 CURVE SMOOTH",
"354 512 OFFCURVE",
"299 486 OFFCURVE",
"244 440 CURVE",
"222 320 LINE",
"253 345 OFFCURVE",
"281 358 OFFCURVE",
"308 358 CURVE SMOOTH",
"336 358 OFFCURVE",
"351 342 OFFCURVE",
"345 302 CURVE SMOOTH",
"330 204 LINE SMOOTH",
"322 152 OFFCURVE",
"300 132 OFFCURVE",
"263 132 CURVE SMOOTH",
"242 132 OFFCURVE",
"225 135 OFFCURVE",
"209 138 CURVE",
"293 668 LINE SMOOTH",
"294 677 OFFCURVE",
"289 683 OFFCURVE",
"281 683 CURVE SMOOTH",
"134 683 LINE SMOOTH",
"125 683 OFFCURVE",
"118 677 OFFCURVE",
"117 668 CURVE SMOOTH",
"13 13 LINE",
"92 6 OFFCURVE",
"159 -12 OFFCURVE",
"253 -12 CURVE SMOOTH"
);
}
);
width = 536;
},
{
layerId = "8E001827-4555-4882-9710-42A9586BB804";
paths = (
{
closed = 1;
nodes = (
"345 -12 OFFCURVE",
"427 31 OFFCURVE",
"446 156 CURVE SMOOTH",
"472 323 LINE SMOOTH",
"490 438 OFFCURVE",
"450 490 OFFCURVE",
"360 490 CURVE SMOOTH",
"281 490 OFFCURVE",
"209 439 OFFCURVE",
"133 371 CURVE",
"130 349 LINE",
"212 422 OFFCURVE",
"284 474 OFFCURVE",
"360 474 CURVE SMOOTH",
"439 474 OFFCURVE",
"472 426 OFFCURVE",
"456 323 CURVE SMOOTH",
"430 153 LINE SMOOTH",
"413 44 OFFCURVE",
"337 4 OFFCURVE",
"242 4 CURVE SMOOTH",
"192 4 OFFCURVE",
"138 16 OFFCURVE",
"84 29 CURVE",
"187 679 LINE SMOOTH",
"188 683 OFFCURVE",
"186 683 OFFCURVE",
"183 683 CURVE SMOOTH",
"176 683 LINE SMOOTH",
"173 683 OFFCURVE",
"172 683 OFFCURVE",
"171 679 CURVE SMOOTH",
"66 16 LINE",
"129 3 OFFCURVE",
"183 -12 OFFCURVE",
"240 -12 CURVE SMOOTH"
);
}
);
width = 524;
},
{
layerId = "0382B793-66DA-492C-99CF-A998862EA4E0";
paths = (
{
closed = 1;
nodes = (
"372 -12 OFFCURVE",
"441 58 OFFCURVE",
"462 191 CURVE SMOOTH",
"482 318 LINE SMOOTH",
"501 441 OFFCURVE",
"458 500 OFFCURVE",
"362 500 CURVE SMOOTH",
"301 500 OFFCURVE",
"244 474 OFFCURVE",
"179 417 CURVE",
"162 334 LINE",
"240 397 OFFCURVE",
"288 425 OFFCURVE",
"334 425 CURVE SMOOTH",
"387 425 OFFCURVE",
"411 389 OFFCURVE",
"398 309 CURVE SMOOTH",
"381 199 LINE SMOOTH",
"366 108 OFFCURVE",
"323 63 OFFCURVE",
"233 63 CURVE SMOOTH",
"206 63 OFFCURVE",
"167 67 OFFCURVE",
"138 73 CURVE",
"233 671 LINE SMOOTH",
"234 678 OFFCURVE",
"231 683 OFFCURVE",
"224 683 CURVE SMOOTH",
"162 683 LINE SMOOTH",
"156 683 OFFCURVE",
"151 679 OFFCURVE",
"150 673 CURVE SMOOTH",
"45 8 LINE",
"124 3 OFFCURVE",
"170 -12 OFFCURVE",
"233 -12 CURVE SMOOTH"
);
}
);
width = 524;
}
);
leftKerningGroup = h;
leftMetricsKey = h;
rightKerningGroup = o;
rightMetricsKey = "=o+2";
unicode = 0062;
},
{
glyphname = c;
lastChange = "2020-01-15 12:57:37 +0000";
layers = (
{
anchors = (
{
name = bottom;
position = "{258, 0}";
},
{
name = top;
position = "{309, 500}";
}
);
layerId = UUID0;
paths = (
{
closed = 1;
nodes = (
"398 -12 OFFCURVE",
"490 60 OFFCURVE",
"502 193 CURVE SMOOTH",
"503 202 OFFCURVE",
"496 208 OFFCURVE",
"487 208 CURVE SMOOTH",
"353 208 LINE SMOOTH",
"345 208 OFFCURVE",
"339 202 OFFCURVE",
"338 193 CURVE SMOOTH",
"333 159 OFFCURVE",
"314 139 OFFCURVE",
"271 139 CURVE SMOOTH",
"221 139 OFFCURVE",
"203 163 OFFCURVE",
"212 220 CURVE SMOOTH",
"222 282 LINE SMOOTH",
"232 340 OFFCURVE",
"251 361 OFFCURVE",
"296 361 CURVE SMOOTH",
"337 361 OFFCURVE",
"361 343 OFFCURVE",
"357 308 CURVE SMOOTH",
"356 299 OFFCURVE",
"361 293 OFFCURVE",
"371 293 CURVE SMOOTH",
"505 293 LINE SMOOTH",
"514 293 OFFCURVE",
"518 299 OFFCURVE",
"520 308 CURVE SMOOTH",
"543 421 OFFCURVE",
"469 512 OFFCURVE",
"308 512 CURVE SMOOTH",
"157 512 OFFCURVE",
"73 447 OFFCURVE",
"49 304 CURVE SMOOTH",
"34 213 LINE SMOOTH",
"11 74 OFFCURVE",
"91 -12 OFFCURVE",
"258 -12 CURVE SMOOTH"
);
}
);
width = 533;
},
{
anchors = (
{
name = bottom;
position = "{206, 0}";
},
{
name = top;
position = "{291, 478}";
}
);
layerId = "8E001827-4555-4882-9710-42A9586BB804";
paths = (
{
closed = 1;
nodes = (
"336.215 -11.025 OFFCURVE",
"393.585 35.433 OFFCURVE",
"410 137 CURVE SMOOTH",
"410.814 142.034 OFFCURVE",
"409 142 OFFCURVE",
"407 142 CURVE SMOOTH",
"397 142 LINE SMOOTH",
"394.875 142 OFFCURVE",
"394 140.833 OFFCURVE",
"394 138 CURVE SMOOTH",
"379.509 45.881 OFFCURVE",
"327.627 4 OFFCURVE",
"228 4 CURVE SMOOTH",
"120.127 4 OFFCURVE",
"70 67 OFFCURVE",
"86 173 CURVE SMOOTH",
"109 323 LINE SMOOTH",
"123.727 420.198 OFFCURVE",
"187.149 474 OFFCURVE",
"287 474 CURVE SMOOTH",
"382.5 474 OFFCURVE",
"438.938 423.609 OFFCURVE",
"427 349 CURVE SMOOTH",
"427 346 OFFCURVE",
"427 345 OFFCURVE",
"430 345 CURVE SMOOTH",
"439 345 LINE SMOOTH",
"442 345 OFFCURVE",
"443 346 OFFCURVE",
"443 349 CURVE SMOOTH",
"455.698 433.978 OFFCURVE",
"394.511 490 OFFCURVE",
"289 490 CURVE SMOOTH",
"177.275 490 OFFCURVE",
"109.595 432.334 OFFCURVE",
"93 323 CURVE SMOOTH",
"70 173 LINE SMOOTH",
"51.998 56.986 OFFCURVE",
"111.013 -13 OFFCURVE",
"226 -12 CURVE SMOOTH"
);
}
);
width = 488;
},
{
anchors = (
{
name = bottom;
position = "{232, 0}";
},
{
name = top;
position = "{303, 488}";
}
);
layerId = "0382B793-66DA-492C-99CF-A998862EA4E0";
paths = (
{
closed = 1;
nodes = (
"355 -12 OFFCURVE",
"429 45 OFFCURVE",
"439 141 CURVE SMOOTH",
"440 148 OFFCURVE",
"437 152 OFFCURVE",
"431 152 CURVE SMOOTH",
"368 152 LINE SMOOTH",
"362 152 OFFCURVE",
"358 149 OFFCURVE",
"357 141 CURVE SMOOTH",
"349 94 OFFCURVE",
"315 63 OFFCURVE",
"245 63 CURVE SMOOTH",
"165 63 OFFCURVE",
"131 103 OFFCURVE",
"145 190 CURVE SMOOTH",
"162 298 LINE SMOOTH",
"176 384 OFFCURVE",
"211 425 OFFCURVE",
"296 425 CURVE SMOOTH",
"359 425 OFFCURVE",
"399 399 OFFCURVE",
"391 346 CURVE SMOOTH",
"390 340 OFFCURVE",
"392 335 OFFCURVE",
"399 335 CURVE SMOOTH",
"461 335 LINE SMOOTH",
"468 335 OFFCURVE",
"471 339 OFFCURVE",
"473 346 CURVE SMOOTH",
"495 445 OFFCURVE",
"420 500 OFFCURVE",
"306 500 CURVE SMOOTH",
"169 500 OFFCURVE",
"102 435 OFFCURVE",
"81 308 CURVE SMOOTH",
"61 185 LINE SMOOTH",
"41 60 OFFCURVE",
"103 -12 OFFCURVE",
"236 -12 CURVE SMOOTH"
);
}
);
width = 508;
}
);
leftKerningGroup = o;
leftMetricsKey = o;
rightKerningGroup = c;
unicode = 0063;
},
{
glyphname = d;
lastChange = "2020-01-15 12:57:37 +0000";
layers = (
{
layerId = UUID0;
paths = (
{
closed = 1;
nodes = (
"236 -12 OFFCURVE",
"295 44 OFFCURVE",
"343 89 CURVE",
"345 192 LINE",
"314.271 161.271 OFFCURVE",
"276.5 142 OFFCURVE",
"247 142 CURVE SMOOTH",
"214.887 142 OFFCURVE",
"203.563 161.503 OFFCURVE",
"211 204 CURVE SMOOTH",
"227 300 LINE SMOOTH",
"234.738 347.536 OFFCURVE",
"253.397 368 OFFCURVE",
"289 368 CURVE SMOOTH",
"314.909 368 OFFCURVE",
"344.322 359.486 OFFCURVE",
"365 346 CURVE",
"386 480 LINE",
"351.628 499.096 OFFCURVE",
"297.188 512 OFFCURVE",
"251 512 CURVE SMOOTH",
"135 512 OFFCURVE",
"76.008 453.008 OFFCURVE",
"53 314 CURVE SMOOTH",
"28 163 LINE SMOOTH",
"9.057 47.347 OFFCURVE",
"47.717 -12 OFFCURVE",
"142 -12 CURVE SMOOTH"
);
},
{
closed = 1;
nodes = (
"463 0 LINE SMOOTH",
"472 0 OFFCURVE",
"477 5 OFFCURVE",
"478 15 CURVE SMOOTH",
"481 50 OFFCURVE",
"484 87 OFFCURVE",
"491 131 CURVE SMOOTH",
"576 668 LINE SMOOTH",
"577 677 OFFCURVE",
"572 683 OFFCURVE",
"563 683 CURVE SMOOTH",
"415 683 LINE SMOOTH",
"406 683 OFFCURVE",
"401 677 OFFCURVE",
"400 668 CURVE SMOOTH",
"319 155 LINE",
"325 88 LINE",
"322 61 OFFCURVE",
"321 36 OFFCURVE",
"323 15 CURVE SMOOTH",
"324 6 OFFCURVE",
"329 0 OFFCURVE",
"338 0 CURVE SMOOTH"
);
}
);
width = 541;
},
{
layerId = "8E001827-4555-4882-9710-42A9586BB804";
paths = (
{
closed = 1;
nodes = (
"251 -12 OFFCURVE",
"319 26 OFFCURVE",
"404 109 CURVE",
"407 130 LINE",
"318 44 OFFCURVE",
"249 4 OFFCURVE",
"184 4 CURVE SMOOTH",
"100 4 OFFCURVE",
"69 53 OFFCURVE",
"85 156 CURVE SMOOTH",
"111 323 LINE SMOOTH",
"126 421 OFFCURVE",
"187 474 OFFCURVE",
"283 474 CURVE SMOOTH",
"344 474 OFFCURVE",
"392 459 OFFCURVE",
"458 419 CURVE",
"461 435 LINE",
"399 473 OFFCURVE",
"346 490 OFFCURVE",
"284 490 CURVE SMOOTH",
"177 490 OFFCURVE",
"112 432 OFFCURVE",
"95 322 CURVE SMOOTH",
"69 156 LINE SMOOTH",
"52 43 OFFCURVE",
"89 -12 OFFCURVE",
"183 -12 CURVE SMOOTH"
);
},
{
closed = 1;
nodes = (
"401 0 LINE SMOOTH",
"403 0 OFFCURVE",
"404 1 OFFCURVE",
"404 3 CURVE SMOOTH",
"405 30 OFFCURVE",
"407 59 OFFCURVE",
"415 110 CURVE SMOOTH",
"506 679 LINE SMOOTH",
"507 683 OFFCURVE",
"505 683 OFFCURVE",
"502 683 CURVE SMOOTH",
"495 683 LINE SMOOTH",
"492 683 OFFCURVE",
"491 683 OFFCURVE",
"490 679 CURVE SMOOTH",
"401 119 LINE",
"400 110 LINE",
"394 74 OFFCURVE",
"389 36 OFFCURVE",
"388 3 CURVE SMOOTH",
"388 0 OFFCURVE",
"389 0 OFFCURVE",
"391 0 CURVE SMOOTH"
);
}
);
width = 520;
},
{
layerId = "0382B793-66DA-492C-99CF-A998862EA4E0";
paths = (
{
closed = 1;
nodes = (
"244 -12 OFFCURVE",
"299 19 OFFCURVE",
"376 88 CURVE",
"390 166 LINE",
"301 88 OFFCURVE",
"261 63 OFFCURVE",
"208 63 CURVE SMOOTH",
"154 63 OFFCURVE",
"134 103 OFFCURVE",
"145 173 CURVE SMOOTH",
"167 307 LINE SMOOTH",
"179 383 OFFCURVE",
"216 425 OFFCURVE",
"290 425 CURVE SMOOTH",
"328 425 OFFCURVE",
"383 412 OFFCURVE",
"422 390 CURVE",
"428 463 LINE",
"402 481 OFFCURVE",
"340 500 OFFCURVE",
"286 500 CURVE SMOOTH",
"175 500 OFFCURVE",
"105 436 OFFCURVE",
"87 327 CURVE SMOOTH",
"61 174 LINE SMOOTH",
"41 55 OFFCURVE",
"82 -12 OFFCURVE",
"175 -12 CURVE SMOOTH"
);
},
{
closed = 1;
nodes = (
"428 0 LINE SMOOTH",
"436 0 OFFCURVE",
"438 3 OFFCURVE",
"438 12 CURVE SMOOTH",
"438 31 OFFCURVE",
"441 77 OFFCURVE",
"447 113 CURVE SMOOTH",
"535 673 LINE SMOOTH",
"536 679 OFFCURVE",
"532 683 OFFCURVE",
"526 683 CURVE SMOOTH",
"463 683 LINE SMOOTH",
"457 683 OFFCURVE",
"453 679 OFFCURVE",
"452 673 CURVE SMOOTH",
"366 132 LINE",
"361 87 LINE",
"358 67 OFFCURVE",
"355 31 OFFCURVE",
"356 11 CURVE SMOOTH",
"356 3 OFFCURVE",
"359 0 OFFCURVE",
"366 0 CURVE SMOOTH"
);
}
);
width = 533;
}
);
leftKerningGroup = o;
leftMetricsKey = "=o+2";
rightKerningGroup = d;
unicode = 0064;
},
{
glyphname = eth;
lastChange = "2020-01-15 12:57:37 +0000";
layers = (
{
layerId = UUID0;
paths = (
{
closed = 1;
nodes = (
"389 -12 OFFCURVE",
"475 58 OFFCURVE",
"499 199 CURVE SMOOTH",
"526 371 LINE SMOOTH",
"550 526 OFFCURVE",
"494 639 OFFCURVE",
"290 693 CURVE SMOOTH",
"280 696 OFFCURVE",
"275 695 OFFCURVE",
"267 684 CURVE SMOOTH",
"204 597 LINE SMOOTH",
"196 588 OFFCURVE",
"199 579 OFFCURVE",
"209 576 CURVE SMOOTH",
"363 536 OFFCURVE",
"376 485 OFFCURVE",
"343 328 CURVE",
"326 217 LINE SMOOTH",
"317 159 OFFCURVE",
"297 139 OFFCURVE",
"262 139 CURVE SMOOTH",
"212 139 OFFCURVE",
"202 163 OFFCURVE",
"211 220 CURVE SMOOTH",
"216 251 LINE SMOOTH",
"222 290 OFFCURVE",
"237 314 OFFCURVE",
"276 314 CURVE SMOOTH",
"299 314 OFFCURVE",
"333 303 OFFCURVE",
"353 281 CURVE",
"370 415 LINE",
"337 441 OFFCURVE",
"285 458 OFFCURVE",
"230 458 CURVE SMOOTH",
"122 458 OFFCURVE",
"64 404 OFFCURVE",
"42 263 CURVE SMOOTH",
"33 206 LINE SMOOTH",
"12 69 OFFCURVE",
"93 -12 OFFCURVE",
"249 -12 CURVE SMOOTH"
);
},
{
closed = 1;
nodes = (
"519 635 LINE SMOOTH",
"524 638 OFFCURVE",
"529 642 OFFCURVE",
"527 647 CURVE SMOOTH",
"514 682 LINE SMOOTH",
"511 690 OFFCURVE",
"509 693 OFFCURVE",
"502 690 CURVE SMOOTH",
"219 535 LINE SMOOTH",
"214 532 OFFCURVE",
"209 528 OFFCURVE",
"211 523 CURVE SMOOTH",
"225 488 LINE SMOOTH",
"229 480 OFFCURVE",
"231 478 OFFCURVE",
"237 481 CURVE SMOOTH"
);
}
);
width = 527;
},
{
layerId = "8E001827-4555-4882-9710-42A9586BB804";
paths = (
{
closed = 1;
nodes = (
"343.68 -12 OFFCURVE",
"414.952 48.687 OFFCURVE",
"432 160 CURVE SMOOTH",
"464 363 LINE SMOOTH",
"489.921 527.5 OFFCURVE",
"428.433 641.842 OFFCURVE",
"286 694 CURVE SMOOTH",
"284.111 694.944 OFFCURVE",
"282.062 694.125 OFFCURVE",
"281 692 CURVE SMOOTH",
"277 685 LINE SMOOTH",
"274.867 681.8 OFFCURVE",
"275.177 679.941 OFFCURVE",
"278 679 CURVE SMOOTH",
"415.123 632.966 OFFCURVE",
"473.536 524.386 OFFCURVE",
"448 363 CURVE SMOOTH",
"416 160 LINE SMOOTH",
"400.862 60.087 OFFCURVE",
"335.067 4 OFFCURVE",
"233 4 CURVE SMOOTH",
"121.122 4 OFFCURVE",
"67.981 62.885 OFFCURVE",
"85 168 CURVE SMOOTH",
"102 276 LINE SMOOTH",
"116.388 370 OFFCURVE",
"167.444 419 OFFCURVE",
"251 419 CURVE SMOOTH",
"315.076 419 OFFCURVE",
"373.595 390.033 OFFCURVE",
"451 320 CURVE",
"453 340 LINE",
"375.454 406.85 OFFCURVE",
"315.895 435 OFFCURVE",
"252 435 CURVE SMOOTH",
"159 435 OFFCURVE",
"101.354 379.76 OFFCURVE",
"86 279 CURVE SMOOTH",
"69 168 LINE SMOOTH",
"51.933 54.556 OFFCURVE",
"111.464 -12 OFFCURVE",
"230 -12 CURVE SMOOTH"
);
},
{
closed = 1;
nodes = (
"507 652 LINE SMOOTH",
"509.375 653.188 OFFCURVE",
"509.864 654.409 OFFCURVE",
"509 657 CURVE SMOOTH",
"506 665 LINE SMOOTH",
"505 668 OFFCURVE",
"503 667 OFFCURVE",
"501 666 CURVE SMOOTH",
"233 549 LINE SMOOTH",
"230.625 547.812 OFFCURVE",
"230.136 546.591 OFFCURVE",
"231 544 CURVE SMOOTH",
"234 536 LINE SMOOTH",
"235 533 OFFCURVE",
"237 534 OFFCURVE",
"239 535 CURVE SMOOTH"
);
}
);
width = 508;
},
{
layerId = "0382B793-66DA-492C-99CF-A998862EA4E0";
paths = (
{
closed = 1;
nodes = (
"369 -12 OFFCURVE",
"441 46 OFFCURVE",
"462 179 CURVE SMOOTH",
"487 341 LINE SMOOTH",
"512 505 OFFCURVE",
"441 660 OFFCURVE",
"283 693 CURVE SMOOTH",
"275 695 OFFCURVE",
"270 693 OFFCURVE",
"266 688 CURVE SMOOTH",
"232 647 LINE SMOOTH",
"227 640 OFFCURVE",
"228 635 OFFCURVE",
"236 633 CURVE SMOOTH",
"372 599 OFFCURVE",
"443 474 OFFCURVE",
"400 306 CURVE",
"381 188 LINE SMOOTH",
"368 107 OFFCURVE",
"332 63 OFFCURVE",
"248 63 CURVE SMOOTH",
"167 63 OFFCURVE",
"130 101 OFFCURVE",
"145 192 CURVE SMOOTH",
"161 290 LINE SMOOTH",
"172 358 OFFCURVE",
"202 391 OFFCURVE",
"264 391 CURVE SMOOTH",
"320 391 OFFCURVE",
"375 354 OFFCURVE",
"403 296 CURVE",
"417 382 LINE",
"383 436 OFFCURVE",
"324 466 OFFCURVE",
"256 466 CURVE SMOOTH",
"161 466 OFFCURVE",
"98 410 OFFCURVE",
"82 312 CURVE SMOOTH",
"61 186 LINE SMOOTH",
"40 58 OFFCURVE",
"107 -12 OFFCURVE",
"240 -12 CURVE SMOOTH"
);
},
{
closed = 1;
nodes = (
"523 634 LINE SMOOTH",
"529 637 OFFCURVE",
"531 640 OFFCURVE",
"530 645 CURVE SMOOTH",
"518 687 LINE SMOOTH",
"516 694 OFFCURVE",
"513 695 OFFCURVE",
"507 692 CURVE SMOOTH",
"225 571 LINE SMOOTH",
"220 569 OFFCURVE",
"218 566 OFFCURVE",
"219 561 CURVE SMOOTH",
"232 517 LINE SMOOTH",
"234 510 OFFCURVE",
"237 510 OFFCURVE",
"244 513 CURVE SMOOTH"
);
}
);
width = 524;
}
);
leftKerningGroup = o;
leftMetricsKey = o;
rightKerningGroup = o;
rightMetricsKey = o;
unicode = 00F0;
},
{
glyphname = dcroat;
lastChange = "2020-01-15 12:57:37 +0000";
layers = (
{
components = (
{
name = d;
}
);
layerId = UUID0;
paths = (
{
closed = 1;
nodes = (
"557 547 LINE",
"598 547 LINE SMOOTH",
"607 547 OFFCURVE",
"612 553 OFFCURVE",
"613 562 CURVE SMOOTH",
"625 636 LINE SMOOTH",
"626 645 OFFCURVE",
"621 651 OFFCURVE",
"611 651 CURVE SMOOTH",
"332 651 LINE SMOOTH",
"323 651 OFFCURVE",
"318 646 OFFCURVE",
"317 636 CURVE SMOOTH",
"306 562 LINE SMOOTH",
"305 553 OFFCURVE",
"309 547 OFFCURVE",
"319 547 CURVE SMOOTH"
);
}
);
width = 551;
},
{
components = (
{
name = d;
}
);
layerId = "8E001827-4555-4882-9710-42A9586BB804";
paths = (
{
closed = 1;
nodes = (
"490 584 LINE",
"592 584 LINE SMOOTH",
"595 584 OFFCURVE",
"596 584 OFFCURVE",
"597 587 CURVE SMOOTH",
"599 596 LINE SMOOTH",
"600 600 OFFCURVE",
"598 600 OFFCURVE",
"596 600 CURVE SMOOTH",
"335 600 LINE SMOOTH",
"332 600 OFFCURVE",
"331 600 OFFCURVE",
"330 597 CURVE SMOOTH",
"328 588 LINE SMOOTH",
"327 584 OFFCURVE",
"329 584 OFFCURVE",
"331 584 CURVE SMOOTH"
);
}
);
width = 521;
},
{
components = (
{
name = d;
}
);
layerId = "0382B793-66DA-492C-99CF-A998862EA4E0";
paths = (
{
closed = 1;
nodes = (
"516 553 LINE",
"587 553 LINE SMOOTH",
"593 553 OFFCURVE",
"596 557 OFFCURVE",
"597 563 CURVE SMOOTH",
"605 613 LINE SMOOTH",
"606 620 OFFCURVE",
"604 623 OFFCURVE",
"598 623 CURVE SMOOTH",
"340 623 LINE SMOOTH",
"334 623 OFFCURVE",
"331 619 OFFCURVE",
"330 613 CURVE SMOOTH",
"322 563 LINE SMOOTH",
"321 557 OFFCURVE",
"323 553 OFFCURVE",
"329 553 CURVE SMOOTH"
);
}
);
width = 532;
}
);
leftKerningGroup = o;
leftMetricsKey = "=o+2";
rightKerningGroup = dcroat;
unicode = 0111;
},
{
glyphname = e;
lastChange = "2020-01-15 12:57:37 +0000";
layers = (
{
anchors = (
{
name = bottom;
position = "{243, 0}";
},
{
name = ogonek;
position = "{387, 10}";
},
{
name = top;
position = "{318, 500}";
}
);
layerId = UUID0;
paths = (
{
closed = 1;
nodes = (
"394 -12 OFFCURVE",
"474 41 OFFCURVE",
"490 151 CURVE",
"491 161 OFFCURVE",
"486 166 OFFCURVE",
"476 166 CURVE SMOOTH",
"336 166 LINE SMOOTH",
"328 166 OFFCURVE",
"322 160 OFFCURVE",
"321 151 CURVE SMOOTH",
"319 130 OFFCURVE",
"295 118 OFFCURVE",
"258 118 CURVE SMOOTH",
"215 118 OFFCURVE",
"197 141 OFFCURVE",
"205 190 CURVE SMOOTH",
"206 196 LINE",
"319 207 LINE SMOOTH",
"475 222 OFFCURVE",
"532 269 OFFCURVE",
"532 378 CURVE SMOOTH",
"532 463 OFFCURVE",
"451 512 OFFCURVE",
"310 512 CURVE SMOOTH",
"160 512 OFFCURVE",
"74 446 OFFCURVE",
"51 312 CURVE SMOOTH",
"35 220 LINE SMOOTH",
"9 73 OFFCURVE",
"88 -12 OFFCURVE",
"245 -12 CURVE SMOOTH"
);
},
{
closed = 1;
nodes = (
"224 313 LINE SMOOTH",
"231 359 OFFCURVE",
"256 381 OFFCURVE",
"302 381 CURVE SMOOTH",
"338 381 OFFCURVE",
"352 371 OFFCURVE",
"352 347 CURVE SMOOTH",
"352 320 OFFCURVE",
"334 306 OFFCURVE",
"290 301 CURVE SMOOTH",
"221 294 LINE"
);
}
);
width = 537;
},
{
anchors = (
{
name = bottom;
position = "{218, 0}";
},
{
name = ogonek;
position = "{311, 10}";
},
{
name = top;
position = "{293, 478}";
}
);
layerId = "8E001827-4555-4882-9710-42A9586BB804";
paths = (
{
closed = 1;
nodes = (
"334 -12 OFFCURVE",
"391.943 29.542 OFFCURVE",
"403 118 CURVE SMOOTH",
"403 120 OFFCURVE",
"403 122 OFFCURVE",
"400 122 CURVE SMOOTH",
"391 122 LINE SMOOTH",
"388 122 OFFCURVE",
"387 121 OFFCURVE",
"387 118 CURVE SMOOTH",
"377.985 41.87 OFFCURVE",
"325 4 OFFCURVE",
"226 4 CURVE SMOOTH",
"119 4 OFFCURVE",
"69.933 64.545 OFFCURVE",
"86 173 CURVE SMOOTH",
"94 227 LINE",
"270 244 LINE SMOOTH",
"397 256 OFFCURVE",
"440 299 OFFCURVE",
"440 379 CURVE SMOOTH",
"440 449.188 OFFCURVE",
"384.113 490 OFFCURVE",
"288 490 CURVE SMOOTH",
"177.778 490 OFFCURVE",
"109.814 431.794 OFFCURVE",
"93 323 CURVE SMOOTH",
"70 173 LINE SMOOTH",
"52.982 55.878 OFFCURVE",
"110 -12 OFFCURVE",
"224 -12 CURVE SMOOTH"
);
},
{
closed = 1;
nodes = (
"109 323 LINE SMOOTH",
"125.297 421.803 OFFCURVE",
"186.828 474 OFFCURVE",
"287 474 CURVE SMOOTH",
"374.099 474 OFFCURVE",
"424 439.033 OFFCURVE",
"424 378 CURVE SMOOTH",
"424 303.214 OFFCURVE",
"381 270 OFFCURVE",
"268 259 CURVE SMOOTH",
"97 243 LINE"
);
}
);
width = 494;
},
{
anchors = (
{
name = bottom;
position = "{227, 0}";
},
{
name = ogonek;
position = "{340, 10}";
},
{
name = top;
position = "{301, 488}";
}
);
guideLines = (
{
angle = 90;
position = "{603, 391}";
}
);
layerId = "0382B793-66DA-492C-99CF-A998862EA4E0";
paths = (
{
closed = 1;
nodes = (
"347 -12 OFFCURVE",
"430 46 OFFCURVE",
"430 125 CURVE SMOOTH",
"430 131 OFFCURVE",
"428 135 OFFCURVE",
"421 135 CURVE SMOOTH",
"356 135 LINE SMOOTH",
"349 135 OFFCURVE",
"346 131 OFFCURVE",
"345 124 CURVE SMOOTH",
"340 86 OFFCURVE",
"298 63 OFFCURVE",
"242 63 CURVE SMOOTH",
"168 63 OFFCURVE",
"131 98 OFFCURVE",
"141 168 CURVE SMOOTH",
"144 190 LINE",
"297 209 LINE SMOOTH",
"403 222 OFFCURVE",
"471 271 OFFCURVE",
"471 369 CURVE SMOOTH",
"471 453 OFFCURVE",
"413 500 OFFCURVE",
"300 500 CURVE SMOOTH",
"172 500 OFFCURVE",
"103 440 OFFCURVE",
"81 309 CURVE SMOOTH",
"60 181 LINE SMOOTH",
"40 58 OFFCURVE",
"107 -12 OFFCURVE",
"235 -12 CURVE SMOOTH"
);
},
{
closed = 1;
nodes = (
"164 312 LINE SMOOTH",
"176 386 OFFCURVE",
"215 425 OFFCURVE",
"292 425 CURVE SMOOTH",
"351 425 OFFCURVE",
"384 403 OFFCURVE",
"384 364 CURVE SMOOTH",
"384 313 OFFCURVE",
"356 289 OFFCURVE",
"286 279 CURVE SMOOTH",
"156 261 LINE"
);
}
);
width = 504;
}
);
leftKerningGroup = o;
leftMetricsKey = o;
rightKerningGroup = e;
unicode = 0065;
},
{
glyphname = f;
lastChange = "2020-01-15 12:57:37 +0000";
layers = (
{
layerId = UUID0;
paths = (
{
closed = 1;
nodes = (
"322 518 LINE SMOOTH",
"326.264 545.717 OFFCURVE",
"343.333 557 OFFCURVE",
"381 557 CURVE SMOOTH",
"403.954 557 OFFCURVE",
"431 552 OFFCURVE",
"460 545 CURVE SMOOTH",
"469 543 OFFCURVE",
"473 547 OFFCURVE",
"475 558 CURVE SMOOTH",
"492 667 LINE SMOOTH",
"493 675 OFFCURVE",
"490 679 OFFCURVE",
"483 681 CURVE SMOOTH",
"455 689 OFFCURVE",
"402.539 695 OFFCURVE",
"351 695 CURVE SMOOTH",
"231.578 695 OFFCURVE",
"165.419 641.427 OFFCURVE",
"146 529 CURVE SMOOTH",
"141 500 LINE",
"72 500 LINE SMOOTH",
"63.5 500 OFFCURVE",
"58.062 494.562 OFFCURVE",
"57 485 CURVE SMOOTH",
"39 367 LINE SMOOTH",
"37.989 357.898 OFFCURVE",
"43.1 352 OFFCURVE",
"52 352 CURVE SMOOTH",
"117 352 LINE",
"76 92 LINE SMOOTH",
"64.985 22.237 OFFCURVE",
"35.32 -30.76 OFFCURVE",
"-13 -67 CURVE SMOOTH",
"-19.947 -72.211 OFFCURVE",
"-21.714 -81.929 OFFCURVE",
"-17 -89 CURVE SMOOTH",
"54 -190 LINE SMOOTH",
"57.941 -194.926 OFFCURVE",
"63.909 -196.046 OFFCURVE",
"70 -193 CURVE SMOOTH",
"180.976 -137.029 OFFCURVE",
"227.059 -64.757 OFFCURVE",
"253 94 CURVE SMOOTH",
"295 352 LINE",
"393 352 LINE SMOOTH",
"401.5 352 OFFCURVE",
"406.938 357.438 OFFCURVE",
"408 367 CURVE SMOOTH",
"427 485 LINE SMOOTH",
"428.085 494.766 OFFCURVE",
"423.2 500 OFFCURVE",
"413 500 CURVE SMOOTH",
"319 500 LINE"
);
}
);
width = 400;
},
{
layerId = "8E001827-4555-4882-9710-42A9586BB804";
paths = (
{
closed = 1;
nodes = (
"192 538 LINE SMOOTH",
"208 637 OFFCURVE",
"239 679 OFFCURVE",
"331 679 CURVE SMOOTH",
"359 679 OFFCURVE",
"391 673 OFFCURVE",
"416 665 CURVE SMOOTH",
"419 664 OFFCURVE",
"420 665 OFFCURVE",
"420 668 CURVE SMOOTH",
"421 676 LINE SMOOTH",
"421 679 OFFCURVE",
"421 680 OFFCURVE",
"418 681 CURVE SMOOTH",
"398 688 OFFCURVE",
"361 695 OFFCURVE",
"331 695 CURVE SMOOTH",
"233 695 OFFCURVE",
"194 650 OFFCURVE",
"176 539 CURVE SMOOTH",
"166 478 LINE",
"82 478 LINE SMOOTH",
"79 478 OFFCURVE",
"78 478 OFFCURVE",
"77 475 CURVE SMOOTH",
"75 466 LINE SMOOTH",
"74 462 OFFCURVE",
"76 462 OFFCURVE",
"78 462 CURVE SMOOTH",
"163 462 LINE",
"94 22 LINE SMOOTH",
"79 -74 OFFCURVE",
"50 -122 OFFCURVE",
"-23 -175 CURVE",
"-25 -176 OFFCURVE",
"-25 -177 OFFCURVE",
"-24 -179 CURVE SMOOTH",
"-19 -188 LINE SMOOTH",
"-18 -190 OFFCURVE",
"-16 -190 OFFCURVE",
"-14 -188 CURVE",
"64 -132 OFFCURVE",
"94 -82 OFFCURVE",
"110 19 CURVE SMOOTH",
"179 462 LINE",
"359 462 LINE SMOOTH",
"362 462 OFFCURVE",
"363 462 OFFCURVE",
"364 465 CURVE SMOOTH",
"366 474 LINE SMOOTH",
"367 478 OFFCURVE",
"365 478 OFFCURVE",
"363 478 CURVE SMOOTH",
"182 478 LINE"
);
}
);
width = 343;
},
{
layerId = "0382B793-66DA-492C-99CF-A998862EA4E0";
paths = (
{
closed = 1;
nodes = (
"243 541 LINE SMOOTH",
"251 596 OFFCURVE",
"281 621 OFFCURVE",
"335 621 CURVE SMOOTH",
"372 621 OFFCURVE",
"396 615 OFFCURVE",
"424 601 CURVE SMOOTH",
"430 598 OFFCURVE",
"435 600 OFFCURVE",
"436 606 CURVE SMOOTH",
"444 661 LINE SMOOTH",
"445 667 OFFCURVE",
"444 671 OFFCURVE",
"438 674 CURVE SMOOTH",
"408 689 OFFCURVE",
"369 695 OFFCURVE",
"336 695 CURVE SMOOTH",
"234 695 OFFCURVE",
"176 643 OFFCURVE",
"161 545 CURVE SMOOTH",
"152 488 LINE",
"76 488 LINE SMOOTH",
"70 488 OFFCURVE",
"66 484 OFFCURVE",
"65 478 CURVE SMOOTH",
"57 425 LINE SMOOTH",
"56 418 OFFCURVE",
"59 415 OFFCURVE",
"65 415 CURVE SMOOTH",
"140 415 LINE",
"85 65 LINE SMOOTH",
"70 -29 OFFCURVE",
"40 -98 OFFCURVE",
"-4 -140 CURVE SMOOTH",
"-11 -147 OFFCURVE",
"-11 -153 OFFCURVE",
"-6 -157 CURVE SMOOTH",
"39 -194 LINE SMOOTH",
"43 -198 OFFCURVE",
"48 -199 OFFCURVE",
"52 -196 CURVE SMOOTH",
"115 -149 OFFCURVE",
"149 -52 OFFCURVE",
"167 59 CURVE SMOOTH",
"224 415 LINE",
"366 415 LINE SMOOTH",
"372 415 OFFCURVE",
"376 419 OFFCURVE",
"377 425 CURVE SMOOTH",
"386 478 LINE SMOOTH",
"387 485 OFFCURVE",
"383 488 OFFCURVE",
"377 488 CURVE SMOOTH",
"235 488 LINE"
);
}
);
width = 360;
}
);
leftKerningGroup = f;
rightKerningGroup = f;
unicode = 0066;
},
{
glyphname = g;
lastChange = "2020-01-15 12:57:37 +0000";
layers = (
{
anchors = (
{
name = bottom;
position = "{231, 0}";
},
{
name = top;
position = "{321, 500}";
}
);
guideLines = (
{
position = "{142, -197}";
}
);
layerId = UUID0;
paths = (
{
closed = 1;
nodes = (
"146 512 OFFCURVE",
"75 453 OFFCURVE",
"52 312 CURVE SMOOTH",
"35 210 LINE SMOOTH",
"17 99 OFFCURVE",
"52 35 OFFCURVE",
"146 35 CURVE SMOOTH",
"203 35 OFFCURVE",
"257 54 OFFCURVE",
"309 95 CURVE",
"297 18 LINE SMOOTH",
"289 -30 OFFCURVE",
"271 -51 OFFCURVE",
"227 -51 CURVE SMOOTH",
"191 -51 OFFCURVE",
"180 -40 OFFCURVE",
"180 -21 CURVE SMOOTH",
"180 -12 OFFCURVE",
"176 -6 OFFCURVE",
"166 -6 CURVE SMOOTH",
"32 -6 LINE SMOOTH",
"23 -6 OFFCURVE",
"18 -12 OFFCURVE",
"17 -21 CURVE SMOOTH",
"5 -127 OFFCURVE",
"59 -197 OFFCURVE",
"216 -197 CURVE SMOOTH",
"364 -197 OFFCURVE",
"449 -138 OFFCURVE",
"473 13 CURVE SMOOTH",
"548 490 LINE",
"468 495 OFFCURVE",
"397 512 OFFCURVE",
"300 512 CURVE SMOOTH"
);
},
{
closed = 1;
nodes = (
"224 189 OFFCURVE",
"212 207 OFFCURVE",
"218 245 CURVE SMOOTH",
"226 297 LINE SMOOTH",
"234 346 OFFCURVE",
"252 368 OFFCURVE",
"292 368 CURVE SMOOTH",
"316 368 OFFCURVE",
"336 365 OFFCURVE",
"351 362 CURVE",
"328 216 LINE",
"303 199 OFFCURVE",
"278 189 OFFCURVE",
"255 189 CURVE SMOOTH"
);
}
);
width = 542;
},
{
anchors = (
{
name = bottom;
position = "{225, 0}";
},
{
name = top;
position = "{301, 478}";
}
);
layerId = "8E001827-4555-4882-9710-42A9586BB804";
paths = (
{
closed = 1;
nodes = (
"196 490 OFFCURVE",
"115 447 OFFCURVE",
"96 330 CURVE SMOOTH",
"76 204 LINE SMOOTH",
"59 94 OFFCURVE",
"98 37 OFFCURVE",
"188 37 CURVE SMOOTH",
"266 37 OFFCURVE",
"336 86 OFFCURVE",
"411 152 CURVE",
"380 -40 LINE SMOOTH",
"362 -151 OFFCURVE",
"303 -181 OFFCURVE",
"198 -181 CURVE SMOOTH",
"95 -181 OFFCURVE",
"63 -144 OFFCURVE",
"73 -69 CURVE SMOOTH",
"74 -64 OFFCURVE",
"72 -64 OFFCURVE",
"70 -64 CURVE SMOOTH",
"61 -64 LINE SMOOTH",
"59 -64 OFFCURVE",
"58 -65 OFFCURVE",
"58 -68 CURVE SMOOTH",
"46 -154 OFFCURVE",
"86 -197 OFFCURVE",
"195 -197 CURVE SMOOTH",
"313 -197 OFFCURVE",
"376 -163 OFFCURVE",
"395 -41 CURVE SMOOTH",
"475 462 LINE",
"412 475 OFFCURVE",
"358 490 OFFCURVE",
"301 490 CURVE SMOOTH"
);
},
{
closed = 1;
nodes = (
"109 53 OFFCURVE",
"75 101 OFFCURVE",
"92 204 CURVE SMOOTH",
"112 327 LINE SMOOTH",
"130 437 OFFCURVE",
"204 474 OFFCURVE",
"299 474 CURVE SMOOTH",
"351 474 OFFCURVE",
"404 462 OFFCURVE",
"458 449 CURVE",
"415 175 LINE",
"334 104 OFFCURVE",
"263 53 OFFCURVE",
"188 53 CURVE SMOOTH"
);
}
);
width = 525;
},
{
anchors = (
{
name = bottom;
position = "{222, 0}";
},
{
name = top;
position = "{317, 488}";
}
);
layerId = "0382B793-66DA-492C-99CF-A998862EA4E0";
paths = (
{
closed = 1;
nodes = (
"163 500 OFFCURVE",
"101 434 OFFCURVE",
"82 316 CURVE SMOOTH",
"63 200 LINE SMOOTH",
"43 75 OFFCURVE",
"83 14 OFFCURVE",
"181 14 CURVE SMOOTH",
"241 14 OFFCURVE",
"293 37 OFFCURVE",
"356 85 CURVE",
"340 -14 LINE SMOOTH",
"328 -89 OFFCURVE",
"288 -123 OFFCURVE",
"210 -123 CURVE SMOOTH",
"148 -123 OFFCURVE",
"119 -106 OFFCURVE",
"125 -65 CURVE SMOOTH",
"126 -58 OFFCURVE",
"122 -55 OFFCURVE",
"116 -55 CURVE SMOOTH",
"53 -55 LINE SMOOTH",
"47 -55 OFFCURVE",
"43 -57 OFFCURVE",
"41 -64 CURVE SMOOTH",
"19 -146 OFFCURVE",
"82 -197 OFFCURVE",
"199 -197 CURVE SMOOTH",
"346 -197 OFFCURVE",
"405 -130 OFFCURVE",
"424 -9 CURVE SMOOTH",
"501 475 LINE",
"424 480 OFFCURVE",
"368 500 OFFCURVE",
"296 500 CURVE SMOOTH"
);
},
{
closed = 1;
nodes = (
"154 89 OFFCURVE",
"135 124 OFFCURVE",
"148 205 CURVE SMOOTH",
"163 299 LINE SMOOTH",
"178 390 OFFCURVE",
"217 425 OFFCURVE",
"297 425 CURVE SMOOTH",
"325 425 OFFCURVE",
"376 421 OFFCURVE",
"408 414 CURVE",
"368 164 LINE",
"298 109 OFFCURVE",
"256 89 OFFCURVE",
"210 89 CURVE SMOOTH"
);
}
);
width = 529;
}
);
leftKerningGroup = o;
rightKerningGroup = u;
rightMetricsKey = n;
unicode = 0067;
},
{
glyphname = h;
lastChange = "2020-01-15 12:57:37 +0000";
layers = (
{
anchors = (
{
name = bottom;
position = "{247, 0}";
},
{
name = center;
position = "{287, 250}";
},
{
name = top;
position = "{208, 683}";
}
);
layerId = UUID0;
paths = (
{
closed = 1;
nodes = (
"176 0 LINE SMOOTH",
"186 0 OFFCURVE",
"190 6 OFFCURVE",
"191 15 CURVE SMOOTH",
"294 668 LINE SMOOTH",
"295 677 OFFCURVE",
"289 683 OFFCURVE",
"280 683 CURVE SMOOTH",
"133 683 LINE SMOOTH",
"125 683 OFFCURVE",
"119 677 OFFCURVE",
"118 668 CURVE SMOOTH",
"14 15 LINE SMOOTH",
"13 6 OFFCURVE",
"18 0 OFFCURVE",
"28 0 CURVE SMOOTH"
);
},
{
closed = 1;
nodes = (
"469 0 LINE SMOOTH",
"477.5 0 OFFCURVE",
"481.875 4.375 OFFCURVE",
"484 15 CURVE SMOOTH",
"535 340 LINE SMOOTH",
"553.396 455.216 OFFCURVE",
"516.09 512 OFFCURVE",
"422 512 CURVE SMOOTH",
"352.651 512 OFFCURVE",
"289.841 481.216 OFFCURVE",
"220 413 CURVE",
"218 308 LINE",
"249.271 339.271 OFFCURVE",
"285.98 358 OFFCURVE",
"316 358 CURVE SMOOTH",
"346.793 358 OFFCURVE",
"358.245 339.55 OFFCURVE",
"352 300 CURVE SMOOTH",
"307 15 LINE SMOOTH",
"306.021 6.192 OFFCURVE",
"311.8 0 OFFCURVE",
"321 0 CURVE SMOOTH"
);
}
);
width = 552;
},
{
anchors = (
{
name = bottom;
position = "{245, 0}";
},
{
name = center;
position = "{283, 239}";
},
{
name = top;
position = "{179, 683}";
}
);
layerId = "8E001827-4555-4882-9710-42A9586BB804";
paths = (
{
closed = 1;
nodes = (
"75 0 LINE SMOOTH",
"78 0 OFFCURVE",
"79 0 OFFCURVE",
"80 5 CURVE SMOOTH",
"187 679 LINE SMOOTH",
"188 683 OFFCURVE",
"186 683 OFFCURVE",
"183 683 CURVE SMOOTH",
"176 683 LINE SMOOTH",
"173 683 OFFCURVE",
"172 683 OFFCURVE",
"171 679 CURVE SMOOTH",
"64 5 LINE SMOOTH",
"63 0 OFFCURVE",
"65 0 OFFCURVE",
"68 0 CURVE SMOOTH"
);
},
{
closed = 1;
nodes = (
"420 0 LINE SMOOTH",
"423 0 OFFCURVE",
"424 0 OFFCURVE",
"425 4 CURVE SMOOTH",
"476 327 LINE SMOOTH",
"494 441 OFFCURVE",
"450 490 OFFCURVE",
"365 490 CURVE SMOOTH",
"291 490 OFFCURVE",
"212 441 OFFCURVE",
"133 365 CURVE",
"130 343 LINE",
"211 420 OFFCURVE",
"292 474 OFFCURVE",
"363 474 CURVE SMOOTH",
"442 474 OFFCURVE",
"476 426 OFFCURVE",
"460 325 CURVE SMOOTH",
"409 4 LINE SMOOTH",
"408 0 OFFCURVE",
"410 0 OFFCURVE",
"413 0 CURVE SMOOTH"
);
}
);
width = 547;
},
{
anchors = (
{
name = bottom;
position = "{250, 0}";
},
{
name = center;
position = "{279, 244}";
},
{
name = top;
position = "{193, 683}";
}
);
layerId = "0382B793-66DA-492C-99CF-A998862EA4E0";
paths = (
{
closed = 1;
nodes = (
"117 0 LINE SMOOTH",
"123 0 OFFCURVE",
"127 4 OFFCURVE",
"128 10 CURVE SMOOTH",
"233 673 LINE SMOOTH",
"234 679 OFFCURVE",
"231 683 OFFCURVE",
"225 683 CURVE SMOOTH",
"161 683 LINE SMOOTH",
"156 683 OFFCURVE",
"151 679 OFFCURVE",
"150 673 CURVE SMOOTH",
"45 10 LINE SMOOTH",
"44 4 OFFCURVE",
"47 0 OFFCURVE",
"53 0 CURVE SMOOTH"
);
},
{
closed = 1;
nodes = (
"432 0 LINE SMOOTH",
"437 0 OFFCURVE",
"442 4 OFFCURVE",
"443 10 CURVE SMOOTH",
"494 331 LINE SMOOTH",
"512 442 OFFCURVE",
"467 500 OFFCURVE",
"375 500 CURVE SMOOTH",
"301 500 OFFCURVE",
"238 464 OFFCURVE",
"173 400 CURVE",
"160 323 LINE",
"246 399 OFFCURVE",
"290 425 OFFCURVE",
"343 425 CURVE SMOOTH",
"396 425 OFFCURVE",
"420 393 OFFCURVE",
"410 327 CURVE SMOOTH",
"360 10 LINE SMOOTH",
"359 4 OFFCURVE",
"362 0 OFFCURVE",
"368 0 CURVE SMOOTH"
);
}
);
width = 545;
}
);
leftKerningGroup = h;
rightKerningGroup = n;
rightMetricsKey = n;
unicode = 0068;
},
{
glyphname = hbar;
lastChange = "2020-01-15 12:57:37 +0000";
layers = (
{
components = (
{
name = h;
transform = "{1, 0, 0, 1, 10, 0}";
}
);
layerId = UUID0;
rightMetricsKey = "=h";
paths = (
{
closed = 1;
nodes = (
"108 547 LINE",
"349 547 LINE SMOOTH",
"359 547 OFFCURVE",
"363 553 OFFCURVE",
"364 562 CURVE SMOOTH",
"376 636 LINE SMOOTH",
"378 645 OFFCURVE",
"373 651 OFFCURVE",
"363 651 CURVE SMOOTH",
"83 651 LINE SMOOTH",
"74 651 OFFCURVE",
"69 646 OFFCURVE",
"68 636 CURVE SMOOTH",
"57 562 LINE SMOOTH",
"55 553 OFFCURVE",
"61 547 OFFCURVE",
"70 547 CURVE SMOOTH"
);
}
);
width = 562;
},
{
components = (
{
name = h;
}
);
layerId = "8E001827-4555-4882-9710-42A9586BB804";
paths = (
{
closed = 1;
nodes = (
"156 584 LINE",
"316 584 LINE SMOOTH",
"319 584 OFFCURVE",
"320 584 OFFCURVE",
"321 587 CURVE SMOOTH",
"323 596 LINE SMOOTH",
"324 600 OFFCURVE",
"322 600 OFFCURVE",
"320 600 CURVE SMOOTH",
"59 600 LINE SMOOTH",
"56 600 OFFCURVE",
"55 600 OFFCURVE",
"54 597 CURVE SMOOTH",
"52 588 LINE SMOOTH",
"51 584 OFFCURVE",
"53 584 OFFCURVE",
"55 584 CURVE SMOOTH"
);
}
);
width = 547;
},
{
components = (
{
name = h;
}
);
layerId = "0382B793-66DA-492C-99CF-A998862EA4E0";
paths = (
{
closed = 1;
nodes = (
"131 553 LINE",
"318 553 LINE SMOOTH",
"324 553 OFFCURVE",
"327 557 OFFCURVE",
"328 563 CURVE SMOOTH",
"336 613 LINE SMOOTH",
"337 619 OFFCURVE",
"335 623 OFFCURVE",
"329 623 CURVE SMOOTH",
"71 623 LINE SMOOTH",
"65 623 OFFCURVE",
"62 619 OFFCURVE",
"61 613 CURVE SMOOTH",
"53 563 LINE SMOOTH",
"52 556 OFFCURVE",
"54 553 OFFCURVE",
"60 553 CURVE SMOOTH"
);
}
);
width = 545;
}
);
leftKerningGroup = hbar;
rightKerningGroup = n;
rightMetricsKey = h;
unicode = 0127;
},
{
glyphname = idotless;
lastChange = "2020-01-15 12:57:37 +0000";
layers = (
{
anchors = (
{
name = bottom;
position = "{100, 0}";
},
{
name = ogonek;
position = "{193, 10}";
},
{
name = top;
position = "{179, 500}";
}
);
layerId = UUID0;
paths = (
{
closed = 1;
nodes = (
"176 0 LINE SMOOTH",
"185 0 OFFCURVE",
"189 5 OFFCURVE",
"191 15 CURVE SMOOTH",
"265 485 LINE SMOOTH",
"267 495 OFFCURVE",
"261 500 OFFCURVE",
"252 500 CURVE SMOOTH",
"104 500 LINE SMOOTH",
"96 500 OFFCURVE",
"91 495 OFFCURVE",
"89 485 CURVE SMOOTH",
"14 15 LINE SMOOTH",
"13 6 OFFCURVE",
"18 0 OFFCURVE",
"28 0 CURVE SMOOTH"
);
}
);
width = 259;
},
{
anchors = (
{
name = bottom;
position = "{72, 0}";
},
{
name = ogonek;
position = "{87, 10}";
},
{
name = top;
position = "{147, 478}";
}
);
layerId = "8E001827-4555-4882-9710-42A9586BB804";
paths = (
{
closed = 1;
nodes = (
"75 0 LINE SMOOTH",
"78 0 OFFCURVE",
"79 0 OFFCURVE",
"80 5 CURVE SMOOTH",
"155 474 LINE SMOOTH",
"156 478 OFFCURVE",
"154 478 OFFCURVE",
"151 478 CURVE SMOOTH",
"144 478 LINE SMOOTH",
"141 478 OFFCURVE",
"140 478 OFFCURVE",
"139 474 CURVE SMOOTH",
"64 5 LINE SMOOTH",
"63 0 OFFCURVE",
"65 0 OFFCURVE",
"68 0 CURVE SMOOTH"
);
}
);
width = 203;
},
{
anchors = (
{
name = bottom;
position = "{86, 0}";
},
{
name = ogonek;
position = "{138, 10}";
},
{
name = top;
position = "{163, 488}";
}
);
layerId = "0382B793-66DA-492C-99CF-A998862EA4E0";
paths = (
{
closed = 1;
nodes = (
"117 0 LINE SMOOTH",
"124 0 OFFCURVE",
"127 4 OFFCURVE",
"128 10 CURVE SMOOTH",
"203 478 LINE SMOOTH",
"204 485 OFFCURVE",
"200 488 OFFCURVE",
"193 488 CURVE SMOOTH",
"131 488 LINE SMOOTH",
"125 488 OFFCURVE",
"120 484 OFFCURVE",
"119 478 CURVE SMOOTH",
"45 10 LINE SMOOTH",
"44 4 OFFCURVE",
"47 0 OFFCURVE",
"53 0 CURVE SMOOTH"
);
}
);
width = 231;
}
);
leftKerningGroup = n;
leftMetricsKey = u;
rightKerningGroup = u;
rightMetricsKey = n;
unicode = 0131;
},
{
glyphname = jdotless;
lastChange = "2020-01-15 12:57:37 +0000";
layers = (
{
anchors = (
{
name = bottom;
position = "{103, 0}";
},
{
name = top;
position = "{182, 500}";
}
);
layerId = UUID0;
paths = (
{
closed = 1;
nodes = (
"26 92 LINE SMOOTH",
"14 16 OFFCURVE",
"-18 -35 OFFCURVE",
"-63 -67 CURVE SMOOTH",
"-71 -73 OFFCURVE",
"-71 -83 OFFCURVE",
"-67 -89 CURVE SMOOTH",
"4 -190 LINE SMOOTH",
"8 -195 OFFCURVE",
"14 -196 OFFCURVE",
"20 -193 CURVE SMOOTH",
"134 -133 OFFCURVE",
"179 -59 OFFCURVE",
"203 94 CURVE SMOOTH",
"265 485 LINE SMOOTH",
"266 494 OFFCURVE",
"261 500 OFFCURVE",
"253 500 CURVE SMOOTH",
"106 500 LINE SMOOTH",
"98 500 OFFCURVE",
"90 494 OFFCURVE",
"89 485 CURVE SMOOTH"
);
}
);
width = 259;
},
{
anchors = (
{
name = bottom;
position = "{72, 0}";
},
{
name = top;
position = "{147, 478}";
}
);
layerId = "8E001827-4555-4882-9710-42A9586BB804";
paths = (
{
closed = 1;
nodes = (
"67 22 LINE SMOOTH",
"52 -74 OFFCURVE",
"23 -122 OFFCURVE",
"-50 -175 CURVE",
"-52 -176 OFFCURVE",
"-52 -177 OFFCURVE",
"-51 -179 CURVE SMOOTH",
"-46 -188 LINE SMOOTH",
"-45 -190 OFFCURVE",
"-43 -190 OFFCURVE",
"-41 -188 CURVE",
"37 -132 OFFCURVE",
"67 -82 OFFCURVE",
"83 19 CURVE SMOOTH",
"155 474 LINE SMOOTH",
"156 478 OFFCURVE",
"154 478 OFFCURVE",
"151 478 CURVE SMOOTH",
"144 478 LINE SMOOTH",
"141 478 OFFCURVE",
"140 478 OFFCURVE",
"139 474 CURVE SMOOTH"
);
}
);
width = 202;
},
{
anchors = (
{
name = bottom;
position = "{86, 0}";
},
{
name = top;
position = "{163, 488}";
}
);
guideLines = (
{
angle = 90;
position = "{-338, -152}";
},
{
position = "{-236, -123}";
}
);
layerId = "0382B793-66DA-492C-99CF-A998862EA4E0";
paths = (
{
closed = 1;
nodes = (
"54 65 LINE SMOOTH",
"39 -29 OFFCURVE",
"8 -98 OFFCURVE",
"-35 -140 CURVE SMOOTH",
"-42 -147 OFFCURVE",
"-43 -152 OFFCURVE",
"-38 -156 CURVE SMOOTH",
"8 -194 LINE SMOOTH",
"13 -198 OFFCURVE",
"17 -199 OFFCURVE",
"21 -196 CURVE SMOOTH",
"84 -149 OFFCURVE",
"118 -52 OFFCURVE",
"136 59 CURVE SMOOTH",
"203 478 LINE SMOOTH",
"204 484 OFFCURVE",
"200 488 OFFCURVE",
"194 488 CURVE SMOOTH",
"131 488 LINE SMOOTH",
"125 488 OFFCURVE",
"120 484 OFFCURVE",
"119 478 CURVE SMOOTH"
);
}
);
width = 231;
}
);
leftKerningGroup = j;
rightKerningGroup = j;
unicode = 0237;
},
{
glyphname = k;
lastChange = "2020-01-15 12:57:37 +0000";
layers = (
{
anchors = (
{
name = bottom;
position = "{247, 0}";
},
{
name = top;
position = "{325, 500}";
}
);
guideLines = (
{
angle = 90;
position = "{591, 392}";
}
);
layerId = UUID0;
paths = (
{
closed = 1;
nodes = (
"176 0 LINE SMOOTH",
"186 0 OFFCURVE",
"189 6 OFFCURVE",
"191 15 CURVE SMOOTH",
"206 113 LINE",
"252 161 LINE",
"321 15 LINE SMOOTH",
"326 4 OFFCURVE",
"331 0 OFFCURVE",
"340 0 CURVE SMOOTH",
"508 0 LINE SMOOTH",
"517 0 OFFCURVE",
"522 8 OFFCURVE",
"518 16 CURVE SMOOTH",
"388 271 LINE",
"579 481 LINE SMOOTH",
"587 489 OFFCURVE",
"582 500 OFFCURVE",
"573 500 CURVE SMOOTH",
"397 500 LINE SMOOTH",
"388 500 OFFCURVE",
"382 496 OFFCURVE",
"375 487 CURVE SMOOTH",
"313 413 LINE SMOOTH",
"289 384 OFFCURVE",
"261 347 OFFCURVE",
"237 312 CURVE",
"233 312 LINE",
"243 358 OFFCURVE",
"252 405 OFFCURVE",
"259 450 CURVE SMOOTH",
"294 668 LINE SMOOTH",
"295 677 OFFCURVE",
"289 683 OFFCURVE",
"280 683 CURVE SMOOTH",
"133 683 LINE SMOOTH",
"125 683 OFFCURVE",
"119 677 OFFCURVE",
"118 668 CURVE SMOOTH",
"14 15 LINE SMOOTH",
"13 6 OFFCURVE",
"18 0 OFFCURVE",
"28 0 CURVE SMOOTH"
);
}
);
width = 552;
},
{
anchors = (
{
name = bottom;
position = "{212, 0}";
},
{
name = top;
position = "{282, 478}";
}
);
layerId = "8E001827-4555-4882-9710-42A9586BB804";
paths = (
{
closed = 1;
nodes = (
"75 0 LINE SMOOTH",
"78 0 OFFCURVE",
"79 0 OFFCURVE",
"80 5 CURVE SMOOTH",
"105 165 LINE",
"235 280 LINE",
"392 2 LINE SMOOTH",
"393 0 OFFCURVE",
"394 0 OFFCURVE",
"396 0 CURVE SMOOTH",
"406 0 LINE SMOOTH",
"408 0 OFFCURVE",
"410 1 OFFCURVE",
"408 4 CURVE SMOOTH",
"247 291 LINE",
"455 474 LINE SMOOTH",
"457 476 OFFCURVE",
"456 478 OFFCURVE",
"454 478 CURVE SMOOTH",
"441 478 LINE SMOOTH",
"439 478 OFFCURVE",
"438 478 OFFCURVE",
"436 476 CURVE SMOOTH",
"215 282 LINE SMOOTH",
"180 251 OFFCURVE",
"145 219 OFFCURVE",
"110 188 CURVE",
"109 188 LINE",
"117 237 OFFCURVE",
"124 285 OFFCURVE",
"132 334 CURVE SMOOTH",
"187 679 LINE SMOOTH",
"188 683 OFFCURVE",
"186 683 OFFCURVE",
"183 683 CURVE SMOOTH",
"176 683 LINE SMOOTH",
"173 683 OFFCURVE",
"172 683 OFFCURVE",
"171 679 CURVE SMOOTH",
"64 5 LINE SMOOTH",
"63 0 OFFCURVE",
"65 0 OFFCURVE",
"68 0 CURVE SMOOTH"
);
}
);
width = 462;
},
{
anchors = (
{
name = bottom;
position = "{219, 0}";
},
{
name = top;
position = "{280, 488}";
}
);
guideLines = (
{
angle = 90;
position = "{742, 361}";
}
);
layerId = "0382B793-66DA-492C-99CF-A998862EA4E0";
paths = (
{
closed = 1;
nodes = (
"117 0 LINE SMOOTH",
"123 0 OFFCURVE",
"127 4 OFFCURVE",
"128 10 CURVE SMOOTH",
"153 169 LINE",
"237 245 LINE",
"343 7 LINE SMOOTH",
"345 2 OFFCURVE",
"349 0 OFFCURVE",
"355 0 CURVE SMOOTH",
"426 0 LINE SMOOTH",
"434 0 OFFCURVE",
"437 5 OFFCURVE",
"434 12 CURVE SMOOTH",
"304 305 LINE",
"493 476 LINE SMOOTH",
"499 482 OFFCURVE",
"498 488 OFFCURVE",
"490 488 CURVE SMOOTH",
"404 488 LINE SMOOTH",
"399 488 OFFCURVE",
"394 486 OFFCURVE",
"390 482 CURVE SMOOTH",
"250 351 LINE SMOOTH",
"223 325 OFFCURVE",
"196 300 OFFCURVE",
"170 275 CURVE",
"169 275 LINE",
"176 313 OFFCURVE",
"182 352 OFFCURVE",
"188 390 CURVE SMOOTH",
"233 673 LINE SMOOTH",
"234 679 OFFCURVE",
"231 683 OFFCURVE",
"225 683 CURVE SMOOTH",
"161 683 LINE SMOOTH",
"156 683 OFFCURVE",
"151 679 OFFCURVE",
"150 673 CURVE SMOOTH",
"45 10 LINE SMOOTH",
"44 4 OFFCURVE",
"47 0 OFFCURVE",
"53 0 CURVE SMOOTH"
);
}
);
width = 481;
}
);
leftKerningGroup = h;
leftMetricsKey = h;
rightKerningGroup = k;
unicode = 006B;
},
{
glyphname = kgreenlandic;
lastChange = "2020-01-15 12:57:37 +0000";
layers = (
{
anchors = (
{
name = bottom;
position = "{247, 0}";
},
{
name = top;
position = "{326, 500}";
}
);
layerId = UUID0;
paths = (
{
closed = 1;
nodes = (
"176 0 LINE SMOOTH",
"186 0 OFFCURVE",
"189 6 OFFCURVE",
"191 15 CURVE SMOOTH",
"206 113 LINE",
"252 161 LINE",
"321 15 LINE SMOOTH",
"326 4 OFFCURVE",
"331 0 OFFCURVE",
"340 0 CURVE SMOOTH",
"508 0 LINE SMOOTH",
"517 0 OFFCURVE",
"522 8 OFFCURVE",
"518 16 CURVE SMOOTH",
"388 271 LINE",
"579 481 LINE SMOOTH",
"587 489 OFFCURVE",
"582 500 OFFCURVE",
"573 500 CURVE SMOOTH",
"397 500 LINE SMOOTH",
"388 500 OFFCURVE",
"382 496 OFFCURVE",
"375 487 CURVE SMOOTH",
"313 413 LINE SMOOTH",
"289 384 OFFCURVE",
"261 347 OFFCURVE",
"237 312 CURVE",
"233 312 LINE",
"243 358 OFFCURVE",
"252 405 OFFCURVE",
"259 450 CURVE SMOOTH",
"264 484 LINE SMOOTH",
"265 492 OFFCURVE",
"259 499 OFFCURVE",
"250 499 CURVE SMOOTH",
"103 499 LINE SMOOTH",
"95 499 OFFCURVE",
"89 493 OFFCURVE",
"88 484 CURVE SMOOTH",
"14 15 LINE SMOOTH",
"13 6 OFFCURVE",
"18 0 OFFCURVE",
"28 0 CURVE SMOOTH"
);
}
);
width = 552;
},
{
anchors = (
{
name = bottom;
position = "{204, 0}";
},
{
name = top;
position = "{280, 478}";
}
);
layerId = "8E001827-4555-4882-9710-42A9586BB804";
paths = (
{
closed = 1;
nodes = (
"76 0 LINE SMOOTH",
"79 0 OFFCURVE",
"80 0 OFFCURVE",
"81 5 CURVE SMOOTH",
"106 165 LINE",
"236 280 LINE",
"393 2 LINE SMOOTH",
"394 0 OFFCURVE",
"395 0 OFFCURVE",
"397 0 CURVE SMOOTH",
"407 0 LINE SMOOTH",
"409 0 OFFCURVE",
"411 1 OFFCURVE",
"409 4 CURVE SMOOTH",
"248 291 LINE",
"456 474 LINE SMOOTH",
"458 476 OFFCURVE",
"457 478 OFFCURVE",
"455 478 CURVE SMOOTH",
"442 478 LINE SMOOTH",
"440 478 OFFCURVE",
"439 478 OFFCURVE",
"437 476 CURVE SMOOTH",
"216 282 LINE SMOOTH",
"181 251 OFFCURVE",
"146 219 OFFCURVE",
"111 188 CURVE",
"110 188 LINE",
"117 237 OFFCURVE",
"124 285 OFFCURVE",
"132 334 CURVE SMOOTH",
"154 474 LINE SMOOTH",
"155 478 OFFCURVE",
"153 478 OFFCURVE",
"150 478 CURVE SMOOTH",
"143 478 LINE SMOOTH",
"140 478 OFFCURVE",
"139 478 OFFCURVE",
"138 474 CURVE SMOOTH",
"65 5 LINE SMOOTH",
"64 0 OFFCURVE",
"66 0 OFFCURVE",
"69 0 CURVE SMOOTH"
);
}
);
width = 463;
},
{
anchors = (
{
name = bottom;
position = "{202, 0}";
},
{
name = top;
position = "{286, 488}";
}
);
layerId = "0382B793-66DA-492C-99CF-A998862EA4E0";
paths = (
{
closed = 1;
nodes = (
"117 0 LINE SMOOTH",
"123 0 OFFCURVE",
"127 4 OFFCURVE",
"128 10 CURVE SMOOTH",
"153 169 LINE",
"237 245 LINE",
"343 7 LINE SMOOTH",
"345 2 OFFCURVE",
"349 0 OFFCURVE",
"355 0 CURVE SMOOTH",
"426 0 LINE SMOOTH",
"434 0 OFFCURVE",
"437 5 OFFCURVE",
"434 12 CURVE SMOOTH",
"304 305 LINE",
"493 476 LINE SMOOTH",
"499 482 OFFCURVE",
"498 488 OFFCURVE",
"490 488 CURVE SMOOTH",
"404 488 LINE SMOOTH",
"399 488 OFFCURVE",
"394 486 OFFCURVE",
"390 482 CURVE SMOOTH",
"250 351 LINE SMOOTH",
"223 325 OFFCURVE",
"196 300 OFFCURVE",
"170 275 CURVE",
"169 275 LINE",
"176 313 OFFCURVE",
"182 351 OFFCURVE",
"188 390 CURVE SMOOTH",
"202 478 LINE SMOOTH",
"203 484 OFFCURVE",
"200 488 OFFCURVE",
"194 488 CURVE SMOOTH",
"130 488 LINE SMOOTH",
"125 488 OFFCURVE",
"120 484 OFFCURVE",
"119 478 CURVE SMOOTH",
"45 10 LINE SMOOTH",
"44 4 OFFCURVE",
"47 0 OFFCURVE",
"53 0 CURVE SMOOTH"
);
}
);
width = 481;
}
);
leftKerningGroup = u;
leftMetricsKey = u;
rightKerningGroup = k;
rightMetricsKey = k;
unicode = 0138;
},
{
glyphname = l;
lastChange = "2020-01-15 12:57:37 +0000";
layers = (
{
anchors = (
{
name = bottom;
position = "{102, 0}";
},
{
name = center;
position = "{140, 250}";
},
{
name = top;
position = "{207, 683}";
},
{
name = topright;
position = "{289, 500}";
}
);
layerId = UUID0;
paths = (
{
closed = 1;
nodes = (
"176 0 LINE SMOOTH",
"186 0 OFFCURVE",
"189 6 OFFCURVE",
"191 15 CURVE SMOOTH",
"294 668 LINE SMOOTH",
"295 677 OFFCURVE",
"289 683 OFFCURVE",
"280 683 CURVE SMOOTH",
"133 683 LINE SMOOTH",
"125 683 OFFCURVE",
"119 677 OFFCURVE",
"118 668 CURVE SMOOTH",
"14 15 LINE SMOOTH",
"13 6 OFFCURVE",
"18 0 OFFCURVE",
"28 0 CURVE SMOOTH"
);
}
);
width = 259;
},
{
anchors = (
{
name = bottom;
position = "{72, 0}";
},
{
name = center;
position = "{109, 239}";
},
{
name = top;
position = "{180, 683}";
},
{
name = topright;
position = "{229, 478}";
}
);
layerId = "8E001827-4555-4882-9710-42A9586BB804";
paths = (
{
closed = 1;
nodes = (
"75 0 LINE SMOOTH",
"78 0 OFFCURVE",
"79 0 OFFCURVE",
"80 5 CURVE SMOOTH",
"187 679 LINE SMOOTH",
"188 683 OFFCURVE",
"186 683 OFFCURVE",
"183 683 CURVE SMOOTH",
"176 683 LINE SMOOTH",
"173 683 OFFCURVE",
"172 683 OFFCURVE",
"171 679 CURVE SMOOTH",
"64 5 LINE SMOOTH",
"63 0 OFFCURVE",
"65 0 OFFCURVE",
"68 0 CURVE SMOOTH"
);
}
);
width = 202;
},
{
anchors = (
{
name = bottom;
position = "{76, 0}";
},
{
name = center;
position = "{115, 244}";
},
{
name = top;
position = "{191, 683}";
},
{
name = topright;
position = "{249, 488}";
}
);
layerId = "0382B793-66DA-492C-99CF-A998862EA4E0";
paths = (
{
closed = 1;
nodes = (
"117 0 LINE SMOOTH",
"123 0 OFFCURVE",
"127 4 OFFCURVE",
"128 10 CURVE SMOOTH",
"233 673 LINE SMOOTH",
"234 679 OFFCURVE",
"231 683 OFFCURVE",
"225 683 CURVE SMOOTH",
"161 683 LINE SMOOTH",
"156 683 OFFCURVE",
"151 679 OFFCURVE",
"150 673 CURVE SMOOTH",
"45 10 LINE SMOOTH",
"44 4 OFFCURVE",
"47 0 OFFCURVE",
"53 0 CURVE SMOOTH"
);
}
);
width = 230;
}
);
leftKerningGroup = h;
leftMetricsKey = h;
rightKerningGroup = l;
unicode = 006C;
},
{
glyphname = lslash;
lastChange = "2020-01-15 12:57:37 +0000";
layers = (
{
components = (
{
name = l;
transform = "{1, 0, 0, 1, 6, 0}";
}
);
layerId = UUID0;
paths = (
{
closed = 1;
nodes = (
"69 318 LINE",
"295 384 LINE SMOOTH",
"304 387 OFFCURVE",
"309 390 OFFCURVE",
"310 399 CURVE SMOOTH",
"324 490 LINE SMOOTH",
"326 500 OFFCURVE",
"321 505 OFFCURVE",
"311 502 CURVE SMOOTH",
"44 425 LINE SMOOTH",
"36 423 OFFCURVE",
"30 417 OFFCURVE",
"29 409 CURVE SMOOTH",
"15 319 LINE SMOOTH",
"13 309 OFFCURVE",
"20 304 OFFCURVE",
"30 307 CURVE SMOOTH"
);
}
);
width = 269;
},
{
components = (
{
name = l;
transform = "{1, 0, 0, 1, 1, 0}";
}
);
layerId = "8E001827-4555-4882-9710-42A9586BB804";
paths = (
{
closed = 1;
nodes = (
"130 412 LINE",
"239 458 LINE SMOOTH",
"241 459 OFFCURVE",
"241 459 OFFCURVE",
"242 463 CURVE SMOOTH",
"244 473 LINE SMOOTH",
"245 477 OFFCURVE",
"242 476 OFFCURVE",
"240 475 CURVE SMOOTH",
"42 390 LINE SMOOTH",
"39 389 OFFCURVE",
"38 388 OFFCURVE",
"37 383 CURVE SMOOTH",
"36 377 LINE SMOOTH",
"35 372 OFFCURVE",
"37 372 OFFCURVE",
"39 373 CURVE SMOOTH"
);
}
);
width = 204;
},
{
components = (
{
name = l;
}
);
layerId = "0382B793-66DA-492C-99CF-A998862EA4E0";
paths = (
{
closed = 1;
nodes = (
"102 368 LINE",
"269 443 LINE SMOOTH",
"275 446 OFFCURVE",
"278 450 OFFCURVE",
"279 456 CURVE SMOOTH",
"288 511 LINE SMOOTH",
"289 518 OFFCURVE",
"285 522 OFFCURVE",
"278 519 CURVE SMOOTH",
"36 411 LINE SMOOTH",
"31 409 OFFCURVE",
"27 404 OFFCURVE",
"26 398 CURVE SMOOTH",
"17 343 LINE SMOOTH",
"16 336 OFFCURVE",
"21 332 OFFCURVE",
"28 335 CURVE SMOOTH"
);
}
);
width = 230;
}
);
leftKerningGroup = lslash;
rightKerningGroup = lslash;
unicode = 0142;
},
{
glyphname = m;
lastChange = "2020-01-15 12:57:37 +0000";
layers = (
{
layerId = UUID0;
paths = (
{
closed = 1;
nodes = (
"176 0 LINE SMOOTH",
"186 0 OFFCURVE",
"190 6 OFFCURVE",
"191 15 CURVE SMOOTH",
"241 332 LINE",
"259 345 OFFCURVE",
"281 358 OFFCURVE",
"302 358 CURVE SMOOTH",
"332 358 OFFCURVE",
"343 339 OFFCURVE",
"337 304 CURVE SMOOTH",
"291 15 LINE SMOOTH",
"290 6 OFFCURVE",
"295 0 OFFCURVE",
"305 0 CURVE SMOOTH",
"453 0 LINE SMOOTH",
"463 0 OFFCURVE",
"466 6 OFFCURVE",
"468 15 CURVE SMOOTH",
"518 330 LINE",
"534 344 OFFCURVE",
"556 358 OFFCURVE",
"580 358 CURVE SMOOTH",
"610 358 OFFCURVE",
"621 339 OFFCURVE",
"615 304 CURVE SMOOTH",
"569 15 LINE SMOOTH",
"568 6 OFFCURVE",
"573 0 OFFCURVE",
"583 0 CURVE SMOOTH",
"731 0 LINE SMOOTH",
"741 0 OFFCURVE",
"745 6 OFFCURVE",
"746 15 CURVE SMOOTH",
"797 343 LINE SMOOTH",
"816 463 OFFCURVE",
"777 512 OFFCURVE",
"686 512 CURVE SMOOTH",
"617 512 OFFCURVE",
"555 471 OFFCURVE",
"516 435 CURVE",
"506 485 OFFCURVE",
"474 512 OFFCURVE",
"405 512 CURVE SMOOTH",
"333 512 OFFCURVE",
"279 468 OFFCURVE",
"239 430 CURVE",
"240 450 OFFCURVE",
"241 469 OFFCURVE",
"239 485 CURVE SMOOTH",
"238 496 OFFCURVE",
"233 500 OFFCURVE",
"224 500 CURVE SMOOTH",
"99 500 LINE SMOOTH",
"89 500 OFFCURVE",
"84 495 OFFCURVE",
"84 485 CURVE SMOOTH",
"84 450 OFFCURVE",
"77 413 OFFCURVE",
"70 369 CURVE SMOOTH",
"14 15 LINE SMOOTH",
"13 6 OFFCURVE",
"18 0 OFFCURVE",
"28 0 CURVE SMOOTH"
);
}
);
width = 814;
},
{
layerId = "8E001827-4555-4882-9710-42A9586BB804";
paths = (
{
closed = 1;
nodes = (
"75 0 LINE SMOOTH",
"78 0 OFFCURVE",
"79 0 OFFCURVE",
"80 4 CURVE SMOOTH",
"134 347 LINE",
"217 425 OFFCURVE",
"288 474 OFFCURVE",
"348 474 CURVE SMOOTH",
"419 474 OFFCURVE",
"444 424 OFFCURVE",
"430 336 CURVE SMOOTH",
"377 4 LINE SMOOTH",
"376 0 OFFCURVE",
"378 0 OFFCURVE",
"381 0 CURVE SMOOTH",
"388 0 LINE SMOOTH",
"391 0 OFFCURVE",
"392 0 OFFCURVE",
"393 4 CURVE SMOOTH",
"448 347 LINE",
"531 425 OFFCURVE",
"601 474 OFFCURVE",
"661 474 CURVE SMOOTH",
"732 474 OFFCURVE",
"757 424 OFFCURVE",
"743 336 CURVE SMOOTH",
"690 4 LINE SMOOTH",
"689 0 OFFCURVE",
"691 0 OFFCURVE",
"694 0 CURVE SMOOTH",
"701 0 LINE SMOOTH",
"704 0 OFFCURVE",
"705 0 OFFCURVE",
"706 4 CURVE SMOOTH",
"759 338 LINE SMOOTH",
"774 434 OFFCURVE",
"742 490 OFFCURVE",
"664 490 CURVE SMOOTH",
"596 490 OFFCURVE",
"533 446 OFFCURVE",
"450 369 CURVE",
"454 446 OFFCURVE",
"420 490 OFFCURVE",
"351 490 CURVE SMOOTH",
"283 490 OFFCURVE",
"221 447 OFFCURVE",
"138 371 CURVE",
"144 407 OFFCURVE",
"150 442 OFFCURVE",
"150 475 CURVE SMOOTH",
"150 478 OFFCURVE",
"149 478 OFFCURVE",
"147 478 CURVE SMOOTH",
"137 478 LINE SMOOTH",
"135 478 OFFCURVE",
"134 477 OFFCURVE",
"134 475 CURVE SMOOTH",
"134 441 OFFCURVE",
"128 403 OFFCURVE",
"122 368 CURVE SMOOTH",
"64 4 LINE SMOOTH",
"63 0 OFFCURVE",
"65 0 OFFCURVE",
"68 0 CURVE SMOOTH"
);
}
);
width = 828;
},
{
layerId = "0382B793-66DA-492C-99CF-A998862EA4E0";
paths = (
{
closed = 1;
nodes = (
"117 0 LINE SMOOTH",
"123 0 OFFCURVE",
"127 4 OFFCURVE",
"128 10 CURVE SMOOTH",
"181 340 LINE",
"250 401 OFFCURVE",
"293 425 OFFCURVE",
"338 425 CURVE SMOOTH",
"387 425 OFFCURVE",
"404 392 OFFCURVE",
"394 327 CURVE SMOOTH",
"344 10 LINE SMOOTH",
"343 4 OFFCURVE",
"346 0 OFFCURVE",
"352 0 CURVE SMOOTH",
"416 0 LINE SMOOTH",
"422 0 OFFCURVE",
"426 4 OFFCURVE",
"427 10 CURVE SMOOTH",
"480 340 LINE",
"547 399 OFFCURVE",
"594 425 OFFCURVE",
"638 425 CURVE SMOOTH",
"687 425 OFFCURVE",
"703 392 OFFCURVE",
"693 327 CURVE SMOOTH",
"643 11 LINE SMOOTH",
"642 4 OFFCURVE",
"645 0 OFFCURVE",
"651 0 CURVE SMOOTH",
"715 0 LINE SMOOTH",
"721 0 OFFCURVE",
"725 4 OFFCURVE",
"726 10 CURVE SMOOTH",
"778 334 LINE SMOOTH",
"796 444 OFFCURVE",
"759 500 OFFCURVE",
"671 500 CURVE SMOOTH",
"606 500 OFFCURVE",
"550 471 OFFCURVE",
"480 407 CURVE",
"474 469 OFFCURVE",
"436 500 OFFCURVE",
"370 500 CURVE SMOOTH",
"307 500 OFFCURVE",
"256 474 OFFCURVE",
"190 414 CURVE",
"192 438 OFFCURVE",
"192 459 OFFCURVE",
"192 479 CURVE SMOOTH",
"192 485 OFFCURVE",
"189 488 OFFCURVE",
"183 488 CURVE SMOOTH",
"122 488 LINE SMOOTH",
"115 488 OFFCURVE",
"112 485 OFFCURVE",
"112 478 CURVE SMOOTH",
"112 446 OFFCURVE",
"107 402 OFFCURVE",
"101 366 CURVE SMOOTH",
"45 10 LINE SMOOTH",
"44 4 OFFCURVE",
"47 0 OFFCURVE",
"53 0 CURVE SMOOTH"
);
}
);
width = 829;
}
);
leftKerningGroup = n;
leftMetricsKey = n;
rightKerningGroup = n;
rightMetricsKey = n;
unicode = 006D;
},
{
glyphname = n;
lastChange = "2020-01-15 12:57:37 +0000";
layers = (
{
anchors = (
{
name = apo;
position = "{14, 500}";
},
{
name = bottom;
position = "{253, 0}";
},
{
name = top;
position = "{323, 500}";
}
);
layerId = UUID0;
paths = (
{
closed = 1;
nodes = (
"469 0 LINE SMOOTH",
"478 0 OFFCURVE",
"482 4 OFFCURVE",
"484 15 CURVE SMOOTH",
"535 340 LINE SMOOTH",
"553 455 OFFCURVE",
"516 512 OFFCURVE",
"422 512 CURVE SMOOTH",
"353 512 OFFCURVE",
"290 481 OFFCURVE",
"220 413 CURVE",
"218 308 LINE",
"249 339 OFFCURVE",
"286 358 OFFCURVE",
"316 358 CURVE SMOOTH",
"347 358 OFFCURVE",
"358 340 OFFCURVE",
"352 300 CURVE SMOOTH",
"307 15 LINE SMOOTH",
"306 6 OFFCURVE",
"312 0 OFFCURVE",
"321 0 CURVE SMOOTH"
);
},
{
closed = 1;
nodes = (
"176 0 LINE SMOOTH",
"186 0 OFFCURVE",
"189 6 OFFCURVE",
"191 15 CURVE SMOOTH",
"243 345 LINE",
"237 412 LINE",
"240 439 OFFCURVE",
"241 464 OFFCURVE",
"239 485 CURVE SMOOTH",
"238 496 OFFCURVE",
"233 500 OFFCURVE",
"224 500 CURVE SMOOTH",
"99 500 LINE SMOOTH",
"89 500 OFFCURVE",
"84 495 OFFCURVE",
"84 485 CURVE SMOOTH",
"81 450 OFFCURVE",
"77 413 OFFCURVE",
"70 369 CURVE SMOOTH",
"14 15 LINE SMOOTH",
"13 6 OFFCURVE",
"18 0 OFFCURVE",
"28 0 CURVE SMOOTH"
);
}
);
width = 552;
},
{
anchors = (
{
name = apo;
position = "{57, 488}";
},
{
name = bottom;
position = "{245, 0}";
},
{
name = top;
position = "{321, 478}";
}
);
layerId = "8E001827-4555-4882-9710-42A9586BB804";
paths = (
{
closed = 1;
nodes = (
"420 0 LINE SMOOTH",
"423 0 OFFCURVE",
"424 0 OFFCURVE",
"425 4 CURVE SMOOTH",
"476 327 LINE SMOOTH",
"494 441 OFFCURVE",
"450 490 OFFCURVE",
"365 490 CURVE SMOOTH",
"291 490 OFFCURVE",
"212 441 OFFCURVE",
"133 365 CURVE",
"130 343 LINE",
"211 420 OFFCURVE",
"292 474 OFFCURVE",
"363 474 CURVE SMOOTH",
"442 474 OFFCURVE",
"476 426 OFFCURVE",
"460 325 CURVE SMOOTH",
"409 4 LINE SMOOTH",
"408 0 OFFCURVE",
"410 0 OFFCURVE",
"413 0 CURVE SMOOTH"
);
},
{
closed = 1;
nodes = (
"75 0 LINE SMOOTH",
"78 0 OFFCURVE",
"79 0 OFFCURVE",
"80 4 CURVE SMOOTH",
"137 359 LINE",
"138 368 LINE",
"144 406 OFFCURVE",
"148 441 OFFCURVE",
"150 475 CURVE SMOOTH",
"150 478 OFFCURVE",
"149 478 OFFCURVE",
"147 478 CURVE SMOOTH",
"137 478 LINE SMOOTH",
"135 478 OFFCURVE",
"134 477 OFFCURVE",
"134 475 CURVE SMOOTH",
"132 441 OFFCURVE",
"128 404 OFFCURVE",
"122 368 CURVE SMOOTH",
"64 4 LINE SMOOTH",
"63 0 OFFCURVE",
"65 0 OFFCURVE",
"68 0 CURVE SMOOTH"
);
}
);
width = 547;
},
{
anchors = (
{
name = apo;
position = "{54, 488}";
},
{
name = bottom;
position = "{250, 0}";
},
{
name = top;
position = "{324, 488}";
}
);
layerId = "0382B793-66DA-492C-99CF-A998862EA4E0";
paths = (
{
closed = 1;
nodes = (
"432 0 LINE SMOOTH",
"437 0 OFFCURVE",
"442 4 OFFCURVE",
"443 10 CURVE SMOOTH",
"494 331 LINE SMOOTH",
"512 442 OFFCURVE",
"467 500 OFFCURVE",
"375 500 CURVE SMOOTH",
"301 500 OFFCURVE",
"238 464 OFFCURVE",
"173 400 CURVE",
"160 323 LINE",
"246 399 OFFCURVE",
"290 425 OFFCURVE",
"343 425 CURVE SMOOTH",
"396 425 OFFCURVE",
"420 393 OFFCURVE",
"410 327 CURVE SMOOTH",
"360 10 LINE SMOOTH",
"359 4 OFFCURVE",
"362 0 OFFCURVE",
"368 0 CURVE SMOOTH"
);
},
{
closed = 1;
nodes = (
"117 0 LINE SMOOTH",
"123 0 OFFCURVE",
"127 4 OFFCURVE",
"128 10 CURVE SMOOTH",
"185 368 LINE",
"188 386 LINE",
"191 412 OFFCURVE",
"194 461 OFFCURVE",
"193 478 CURVE SMOOTH",
"192 486 OFFCURVE",
"189 488 OFFCURVE",
"182 488 CURVE SMOOTH",
"124 488 LINE SMOOTH",
"116 488 OFFCURVE",
"112 485 OFFCURVE",
"112 477 CURVE SMOOTH",
"112 453 OFFCURVE",
"107 400 OFFCURVE",
"101 366 CURVE SMOOTH",
"45 10 LINE SMOOTH",
"44 4 OFFCURVE",
"47 0 OFFCURVE",
"53 0 CURVE SMOOTH"
);
}
);
width = 545;
}
);
leftKerningGroup = n;
rightKerningGroup = n;
unicode = 006E;
},
{
glyphname = eng;
lastChange = "2020-01-15 12:57:37 +0000";
layers = (
{
layerId = UUID0;
leftMetricsKey = "=n";
rightMetricsKey = "=n";
paths = (
{
closed = 1;
nodes = (
"428 -135 OFFCURVE",
"472 -59 OFFCURVE",
"496 94 CURVE SMOOTH",
"535 340 LINE SMOOTH",
"554 459 OFFCURVE",
"513 512 OFFCURVE",
"422 512 CURVE SMOOTH",
"339 512 OFFCURVE",
"281 470 OFFCURVE",
"239 431 CURVE",
"240 451 OFFCURVE",
"241 469 OFFCURVE",
"239 485 CURVE SMOOTH",
"238 496 OFFCURVE",
"233 500 OFFCURVE",
"224 500 CURVE SMOOTH",
"99 500 LINE SMOOTH",
"89 500 OFFCURVE",
"84 495 OFFCURVE",
"84 485 CURVE SMOOTH",
"81 450 OFFCURVE",
"77 413 OFFCURVE",
"70 369 CURVE SMOOTH",
"14 15 LINE SMOOTH",
"13 6 OFFCURVE",
"18 0 OFFCURVE",
"28 0 CURVE SMOOTH",
"176 0 LINE SMOOTH",
"186 0 OFFCURVE",
"189 6 OFFCURVE",
"191 15 CURVE SMOOTH",
"240 328 LINE",
"262 344 OFFCURVE",
"287 358 OFFCURVE",
"314 358 CURVE SMOOTH",
"347 358 OFFCURVE",
"358 338 OFFCURVE",
"352 300 CURVE SMOOTH",
"319 92 LINE SMOOTH",
"307 16 OFFCURVE",
"274 -34 OFFCURVE",
"230 -67 CURVE SMOOTH",
"222 -73 OFFCURVE",
"222 -83 OFFCURVE",
"226 -89 CURVE SMOOTH",
"297 -190 LINE SMOOTH",
"301 -195 OFFCURVE",
"307 -196 OFFCURVE",
"313 -193 CURVE SMOOTH"
);
}
);
width = 552;
},
{
layerId = "8E001827-4555-4882-9710-42A9586BB804";
paths = (
{
closed = 1;
nodes = (
"382 -132 OFFCURVE",
"412 -82 OFFCURVE",
"428 19 CURVE SMOOTH",
"476 327 LINE",
"494 441 OFFCURVE",
"450 490 OFFCURVE",
"365 490 CURVE SMOOTH",
"293 490 OFFCURVE",
"216 443 OFFCURVE",
"138 370 CURVE",
"144 407 OFFCURVE",
"148 442 OFFCURVE",
"150 475 CURVE",
"150 478 OFFCURVE",
"149 478 OFFCURVE",
"147 478 CURVE SMOOTH",
"137 478 LINE SMOOTH",
"135 478 OFFCURVE",
"134 477 OFFCURVE",
"134 475 CURVE",
"132 441 OFFCURVE",
"128 404 OFFCURVE",
"122 368 CURVE SMOOTH",
"64 4 LINE",
"63 0 OFFCURVE",
"65 0 OFFCURVE",
"68 0 CURVE SMOOTH",
"75 0 LINE SMOOTH",
"78 0 OFFCURVE",
"79 0 OFFCURVE",
"80 4 CURVE",
"135 348 LINE",
"214 422 OFFCURVE",
"294 474 OFFCURVE",
"363 474 CURVE SMOOTH",
"442 474 OFFCURVE",
"476 426 OFFCURVE",
"460 325 CURVE",
"412 22 LINE SMOOTH",
"397 -74 OFFCURVE",
"368 -122 OFFCURVE",
"295 -175 CURVE",
"293 -176 OFFCURVE",
"293 -177 OFFCURVE",
"294 -179 CURVE",
"299 -188 LINE",
"300 -190 OFFCURVE",
"302 -190 OFFCURVE",
"304 -188 CURVE"
);
}
);
width = 548;
},
{
layerId = "0382B793-66DA-492C-99CF-A998862EA4E0";
paths = (
{
closed = 1;
nodes = (
"399 -149 OFFCURVE",
"433 -52 OFFCURVE",
"451 59 CURVE SMOOTH",
"494 331 LINE SMOOTH",
"512 442 OFFCURVE",
"470 500 OFFCURVE",
"376 500 CURVE SMOOTH",
"308 500 OFFCURVE",
"252 471 OFFCURVE",
"191 416 CURVE",
"193 440 OFFCURVE",
"194 466 OFFCURVE",
"193 478 CURVE SMOOTH",
"192 486 OFFCURVE",
"189 488 OFFCURVE",
"182 488 CURVE SMOOTH",
"124 488 LINE SMOOTH",
"116 488 OFFCURVE",
"112 485 OFFCURVE",
"112 477 CURVE SMOOTH",
"112 453 OFFCURVE",
"107 400 OFFCURVE",
"101 366 CURVE SMOOTH",
"45 10 LINE SMOOTH",
"44 4 OFFCURVE",
"47 0 OFFCURVE",
"53 0 CURVE SMOOTH",
"117 0 LINE SMOOTH",
"123 0 OFFCURVE",
"127 4 OFFCURVE",
"128 10 CURVE SMOOTH",
"181 341 LINE",
"253 403 OFFCURVE",
"295 425 OFFCURVE",
"345 425 CURVE SMOOTH",
"398 425 OFFCURVE",
"420 393 OFFCURVE",
"410 327 CURVE SMOOTH",
"369 65 LINE SMOOTH",
"354 -29 OFFCURVE",
"323 -97 OFFCURVE",
"280 -140 CURVE SMOOTH",
"273 -147 OFFCURVE",
"273 -153 OFFCURVE",
"278 -157 CURVE SMOOTH",
"323 -194 LINE SMOOTH",
"327 -197 OFFCURVE",
"332 -199 OFFCURVE",
"336 -196 CURVE SMOOTH"
);
}
);
width = 545;
}
);
leftKerningGroup = n;
leftMetricsKey = n;
rightKerningGroup = n;
rightMetricsKey = n;
unicode = 014B;
},
{
glyphname = o;
lastChange = "2020-01-15 12:57:37 +0000";
layers = (
{
anchors = (
{
name = bottom;
position = "{244, 0}";
},
{
name = center;
position = "{284, 250}";
},
{
name = ogonek;
position = "{462, 10}";
},
{
name = top;
position = "{314, 500}";
},
{
name = topright;
position = "{574, 500}";
}
);
layerId = UUID0;
paths = (
{
closed = 1;
nodes = (
"408.192 -12 OFFCURVE",
"494.499 57.993 OFFCURVE",
"518 199 CURVE SMOOTH",
"533 287 LINE SMOOTH",
"557.402 427.555 OFFCURVE",
"473.04 512 OFFCURVE",
"308.224 512 CURVE SMOOTH",
"158.656 512 OFFCURVE",
"72.475 441.851 OFFCURVE",
"49 301 CURVE SMOOTH",
"34 211 LINE SMOOTH",
"9.716 71.124 OFFCURVE",
"93.145 -12 OFFCURVE",
"257.819 -12 CURVE SMOOTH"
);
},
{
closed = 1;
nodes = (
"221.197 139 OFFCURVE",
"203.476 163.175 OFFCURVE",
"212 220 CURVE SMOOTH",
"222 282 LINE SMOOTH",
"231.569 340.373 OFFCURVE",
"250.961 361 OFFCURVE",
"296.267 361 CURVE SMOOTH",
"346.386 361 OFFCURVE",
"364.367 336.203 OFFCURVE",
"355 280 CURVE SMOOTH",
"345 217 LINE SMOOTH",
"335.521 159.175 OFFCURVE",
"316.477 139 OFFCURVE",
"271.375 139 CURVE SMOOTH"
);
}
);
width = 547;
},
{
anchors = (
{
name = bottom;
position = "{217, 0}";
},
{
name = center;
position = "{263, 239}";
},
{
name = ogonek;
position = "{421, 10}";
},
{
name = top;
position = "{293, 478}";
},
{
name = topright;
position = "{528, 478}";
}
);
layerId = "8E001827-4555-4882-9710-42A9586BB804";
paths = (
{
closed = 1;
nodes = (
"347 -12 OFFCURVE",
"416.911 49.428 OFFCURVE",
"434 160 CURVE SMOOTH",
"457 310 LINE SMOOTH",
"474 423 OFFCURVE",
"413 490 OFFCURVE",
"294 490 CURVE SMOOTH",
"179 490 OFFCURVE",
"110 430 OFFCURVE",
"93 318 CURVE SMOOTH",
"70 168 LINE SMOOTH",
"53 54 OFFCURVE",
"114 -12 OFFCURVE",
"233 -12 CURVE SMOOTH"
);
},
{
closed = 1;
nodes = (
"124 4 OFFCURVE",
"70 62 OFFCURVE",
"86 168 CURVE SMOOTH",
"109 318 LINE SMOOTH",
"124 418 OFFCURVE",
"188 474 OFFCURVE",
"291 474 CURVE SMOOTH",
"402 474 OFFCURVE",
"457 415 OFFCURVE",
"441 310 CURVE SMOOTH",
"418 160 LINE SMOOTH",
"403.297 61.002 OFFCURVE",
"339 4 OFFCURVE",
"236 4 CURVE SMOOTH"
);
}
);
width = 510;
},
{
anchors = (
{
name = bottom;
position = "{224, 0}";
},
{
name = center;
position = "{263, 244}";
},
{
name = ogonek;
position = "{433, 10}";
},
{
name = top;
position = "{310, 488}";
},
{
name = topright;
position = "{544, 488}";
}
);
layerId = "0382B793-66DA-492C-99CF-A998862EA4E0";
paths = (
{
closed = 1;
nodes = (
"370 -12 OFFCURVE",
"443 46 OFFCURVE",
"463 179 CURVE SMOOTH",
"481 298 LINE SMOOTH",
"501 433 OFFCURVE",
"433 500 OFFCURVE",
"306 500 CURVE SMOOTH",
"175 500 OFFCURVE",
"103 440 OFFCURVE",
"82 314 CURVE SMOOTH",
"62 193 LINE SMOOTH",
"40 60 OFFCURVE",
"103 -12 OFFCURVE",
"236 -12 CURVE SMOOTH"
);
},
{
closed = 1;
nodes = (
"160 63 OFFCURVE",
"131 110 OFFCURVE",
"146 199 CURVE SMOOTH",
"163 302 LINE SMOOTH",
"177 388 OFFCURVE",
"215 425 OFFCURVE",
"298 425 CURVE SMOOTH",
"377 425 OFFCURVE",
"412 382 OFFCURVE",
"397 288 CURVE SMOOTH",
"381 187 LINE SMOOTH",
"367 99 OFFCURVE",
"326 63 OFFCURVE",
"244 63 CURVE SMOOTH"
);
}
);
width = 525;
}
);
leftKerningGroup = o;
rightKerningGroup = o;
unicode = 006F;
},
{
glyphname = oslash;
lastChange = "2020-01-15 12:57:37 +0000";
layers = (
{
anchors = (
{
name = top;
position = "{323, 500}";
}
);
components = (
{
name = o;
}
);
layerId = UUID0;
paths = (
{
closed = 1;
nodes = (
"120 -52 LINE SMOOTH",
"128 -52 OFFCURVE",
"135 -49 OFFCURVE",
"140 -42 CURVE SMOOTH",
"187 16 LINE",
"237 130 LINE",
"384 338 LINE",
"481 412 LINE",
"576 533 LINE SMOOTH",
"584 543 OFFCURVE",
"581 551 OFFCURVE",
"569 551 CURVE SMOOTH",
"444 551 LINE SMOOTH",
"436 551 OFFCURVE",
"431 547 OFFCURVE",
"426 540 CURVE SMOOTH",
"382 482 LINE",
"335 375 LINE",
"198 180 LINE",
"85 86 LINE",
"-9 -34 LINE SMOOTH",
"-17 -44 OFFCURVE",
"-13 -52 OFFCURVE",
"-2 -52 CURVE SMOOTH"
);
}
);
width = 547;
},
{
anchors = (
{
name = top;
position = "{292, 478}";
}
);
components = (
{
name = o;
}
);
layerId = "8E001827-4555-4882-9710-42A9586BB804";
paths = (
{
closed = 1;
nodes = (
"3 -51 LINE SMOOTH",
"6 -51 OFFCURVE",
"7 -50 OFFCURVE",
"9 -48 CURVE SMOOTH",
"95 46 LINE",
"99 52 LINE",
"433 421 LINE",
"438 426 LINE",
"535 534 LINE SMOOTH",
"537 536 OFFCURVE",
"537 538 OFFCURVE",
"534 538 CURVE SMOOTH",
"523 538 LINE SMOOTH",
"521 538 OFFCURVE",
"520 538 OFFCURVE",
"518 536 CURVE SMOOTH",
"427 435 LINE",
"422 430 LINE",
"90 62 LINE",
"87 58 LINE",
"-8 -47 LINE SMOOTH",
"-10 -49 OFFCURVE",
"-9 -51 OFFCURVE",
"-7 -51 CURVE SMOOTH"
);
}
);
width = 510;
},
{
anchors = (
{
name = top;
position = "{304, 488}";
}
);
components = (
{
name = o;
}
);
layerId = "0382B793-66DA-492C-99CF-A998862EA4E0";
paths = (
{
closed = 1;
nodes = (
"40 -51 LINE SMOOTH",
"45 -51 OFFCURVE",
"50 -49 OFFCURVE",
"54 -45 CURVE SMOOTH",
"126 35 LINE",
"156 67 LINE",
"425 362 LINE",
"448 388 LINE",
"574 526 LINE SMOOTH",
"579 532 OFFCURVE",
"578 538 OFFCURVE",
"570 538 CURVE SMOOTH",
"507 538 LINE SMOOTH",
"501 538 OFFCURVE",
"496 536 OFFCURVE",
"492 532 CURVE SMOOTH",
"413 445 LINE",
"387 416 LINE",
"117 120 LINE",
"96 97 LINE",
"-27 -39 LINE SMOOTH",
"-33 -45 OFFCURVE",
"-30 -51 OFFCURVE",
"-22 -51 CURVE SMOOTH"
);
}
);
width = 525;
}
);
leftKerningGroup = o;
rightKerningGroup = o;
unicode = 00F8;
},
{
glyphname = oe;
lastChange = "2020-01-15 12:57:37 +0000";
layers = (
{
layerId = UUID0;
paths = (
{
closed = 1;
nodes = (
"315 -12 OFFCURVE",
"368 11 OFFCURVE",
"402 41 CURVE",
"439 6 OFFCURVE",
"484 -12 OFFCURVE",
"558 -12 CURVE SMOOTH",
"707 -12 OFFCURVE",
"792 40 OFFCURVE",
"803 151 CURVE SMOOTH",
"804 161 OFFCURVE",
"799 166 OFFCURVE",
"789 166 CURVE SMOOTH",
"649 166 LINE SMOOTH",
"641 166 OFFCURVE",
"635 160 OFFCURVE",
"634 151 CURVE SMOOTH",
"632 130 OFFCURVE",
"608 118 OFFCURVE",
"571 118 CURVE SMOOTH",
"528 118 OFFCURVE",
"509 143 OFFCURVE",
"517 189 CURVE SMOOTH",
"519 200 LINE",
"632 211 LINE SMOOTH",
"788 226 OFFCURVE",
"845 270 OFFCURVE",
"845 378 CURVE SMOOTH",
"845 463 OFFCURVE",
"763 512 OFFCURVE",
"642 512 CURVE SMOOTH",
"568 512 OFFCURVE",
"504 491 OFFCURVE",
"464 457 CURVE",
"433 492 OFFCURVE",
"385 512 OFFCURVE",
"308 512 CURVE SMOOTH",
"159 512 OFFCURVE",
"72 442 OFFCURVE",
"49 301 CURVE SMOOTH",
"34 211 LINE SMOOTH",
"11 71 OFFCURVE",
"95 -12 OFFCURVE",
"242 -12 CURVE SMOOTH"
);
},
{
closed = 1;
nodes = (
"221 139 OFFCURVE",
"203 163 OFFCURVE",
"212 220 CURVE SMOOTH",
"222 282 LINE SMOOTH",
"232 340 OFFCURVE",
"251 361 OFFCURVE",
"296 361 CURVE SMOOTH",
"346 361 OFFCURVE",
"364 336 OFFCURVE",
"355 280 CURVE SMOOTH",
"345 217 LINE SMOOTH",
"336 159 OFFCURVE",
"316 139 OFFCURVE",
"271 139 CURVE SMOOTH"
);
},
{
closed = 1;
nodes = (
"537 313 LINE SMOOTH",
"544 359 OFFCURVE",
"568 381 OFFCURVE",
"614 381 CURVE SMOOTH",
"650 381 OFFCURVE",
"665 371 OFFCURVE",
"665 347 CURVE SMOOTH",
"665 320 OFFCURVE",
"647 306 OFFCURVE",
"603 301 CURVE SMOOTH",
"534 294 LINE"
);
}
);
width = 850;
},
{
layerId = "8E001827-4555-4882-9710-42A9586BB804";
paths = (
{
closed = 1;
nodes = (
"315 -12 OFFCURVE",
"377 28 OFFCURVE",
"407 103 CURVE",
"420 29 OFFCURVE",
"473 -12 OFFCURVE",
"562 -12 CURVE SMOOTH",
"672 -12 OFFCURVE",
"741 29 OFFCURVE",
"741 118 CURVE SMOOTH",
"741 120 OFFCURVE",
"741 122 OFFCURVE",
"738 122 CURVE SMOOTH",
"729 122 LINE SMOOTH",
"726 122 OFFCURVE",
"725 121 OFFCURVE",
"725 118 CURVE SMOOTH",
"725 41 OFFCURVE",
"663 4 OFFCURVE",
"564 4 CURVE SMOOTH",
"457 4 OFFCURVE",
"408 65 OFFCURVE",
"424 173 CURVE SMOOTH",
"432 227 LINE",
"608 244 LINE SMOOTH",
"735 256 OFFCURVE",
"778 299 OFFCURVE",
"778 379 CURVE SMOOTH",
"778 449 OFFCURVE",
"722 490 OFFCURVE",
"626 490 CURVE SMOOTH",
"536 490 OFFCURVE",
"474 451 OFFCURVE",
"445 377 CURVE",
"433 449 OFFCURVE",
"376 490 OFFCURVE",
"287 490 CURVE SMOOTH",
"179 490 OFFCURVE",
"110 430 OFFCURVE",
"93 318 CURVE SMOOTH",
"70 168 LINE SMOOTH",
"53 54 OFFCURVE",
"114 -12 OFFCURVE",
"226 -12 CURVE SMOOTH"
);
},
{
closed = 1;
nodes = (
"124 4 OFFCURVE",
"70 62 OFFCURVE",
"86 168 CURVE SMOOTH",
"109 318 LINE SMOOTH",
"124 418 OFFCURVE",
"188 474 OFFCURVE",
"284 474 CURVE SMOOTH",
"390 474 OFFCURVE",
"445 415 OFFCURVE",
"429 310 CURVE SMOOTH",
"406 160 LINE SMOOTH",
"391 61 OFFCURVE",
"327 4 OFFCURVE",
"229 4 CURVE SMOOTH"
);
},
{
closed = 1;
nodes = (
"447 323 LINE SMOOTH",
"462 422 OFFCURVE",
"525 474 OFFCURVE",
"625 474 CURVE SMOOTH",
"712 474 OFFCURVE",
"762 439 OFFCURVE",
"762 378 CURVE SMOOTH",
"762 303 OFFCURVE",
"719 270 OFFCURVE",
"606 259 CURVE SMOOTH",
"435 243 LINE"
);
}
);
width = 834;
},
{
layerId = "0382B793-66DA-492C-99CF-A998862EA4E0";
paths = (
{
closed = 1;
nodes = (
"297 -12 OFFCURVE",
"345 9 OFFCURVE",
"392 66 CURVE",
"419 9 OFFCURVE",
"477 -12 OFFCURVE",
"543 -12 CURVE SMOOTH",
"644 -12 OFFCURVE",
"736 31 OFFCURVE",
"742 123 CURVE SMOOTH",
"743 131 OFFCURVE",
"740 135 OFFCURVE",
"733 135 CURVE SMOOTH",
"669 135 LINE SMOOTH",
"662 135 OFFCURVE",
"659 131 OFFCURVE",
"657 123 CURVE SMOOTH",
"648 84 OFFCURVE",
"613 63 OFFCURVE",
"552 63 CURVE SMOOTH",
"475 63 OFFCURVE",
"439 104 OFFCURVE",
"455 185 CURVE SMOOTH",
"456 190 LINE",
"608 209 LINE SMOOTH",
"735 225 OFFCURVE",
"783 286 OFFCURVE",
"783 372 CURVE SMOOTH",
"783 444 OFFCURVE",
"732 500 OFFCURVE",
"622 500 CURVE SMOOTH",
"553 500 OFFCURVE",
"491 474 OFFCURVE",
"451 420 CURVE",
"431 474 OFFCURVE",
"370 500 OFFCURVE",
"300 500 CURVE SMOOTH",
"172 500 OFFCURVE",
"102 435 OFFCURVE",
"83 319 CURVE SMOOTH",
"61 187 LINE SMOOTH",
"41 64 OFFCURVE",
"104 -12 OFFCURVE",
"227 -12 CURVE SMOOTH"
);
},
{
closed = 1;
nodes = (
"166 63 OFFCURVE",
"132 105 OFFCURVE",
"145 190 CURVE SMOOTH",
"162 298 LINE SMOOTH",
"176 383 OFFCURVE",
"211 425 OFFCURVE",
"296 425 CURVE SMOOTH",
"369 425 OFFCURVE",
"402 377 OFFCURVE",
"390 298 CURVE SMOOTH",
"373 190 LINE SMOOTH",
"359 98 OFFCURVE",
"315 63 OFFCURVE",
"239 63 CURVE SMOOTH"
);
},
{
closed = 1;
nodes = (
"476 312 LINE SMOOTH",
"488 386 OFFCURVE",
"527 425 OFFCURVE",
"604 425 CURVE SMOOTH",
"664 425 OFFCURVE",
"697 404 OFFCURVE",
"696 364 CURVE SMOOTH",
"695 313 OFFCURVE",
"668 289 OFFCURVE",
"598 279 CURVE SMOOTH",
"468 261 LINE"
);
}
);
width = 815;
}
);
leftKerningGroup = o;
leftMetricsKey = o;
rightKerningGroup = e;
rightMetricsKey = e;
unicode = 0153;
},
{
glyphname = p;
lastChange = "2020-01-15 12:57:37 +0000";
layers = (
{
anchors = (
{
name = bottom;
position = "{228, 0}";
},
{
name = top;
position = "{308, 500}";
}
);
layerId = UUID0;
paths = (
{
closed = 1;
nodes = (
"419.191 -12 OFFCURVE",
"482.605 53.048 OFFCURVE",
"504 187 CURVE SMOOTH",
"529 345 LINE SMOOTH",
"546.944 456.443 OFFCURVE",
"507.689 512 OFFCURVE",
"411 512 CURVE SMOOTH",
"344.5 512 OFFCURVE",
"289 484.25 OFFCURVE",
"213 413 CURVE",
"211 308 LINE",
"246.659 340.916 OFFCURVE",
"279.46 358 OFFCURVE",
"307 358 CURVE SMOOTH",
"339.025 358 OFFCURVE",
"350.814 339.697 OFFCURVE",
"345 299 CURVE SMOOTH",
"330 201 LINE SMOOTH",
"323.408 154.857 OFFCURVE",
"302.87 132 OFFCURVE",
"268 132 CURVE SMOOTH",
"241 132 OFFCURVE",
"211.25 140.5 OFFCURVE",
"191 154 CURVE",
"172 20 LINE",
"203.358 1.185 OFFCURVE",
"260.219 -12 OFFCURVE",
"310 -12 CURVE SMOOTH"
);
},
{
closed = 1;
nodes = (
"146 -185 LINE SMOOTH",
"156 -185 OFFCURVE",
"160 -179 OFFCURVE",
"161 -170 CURVE SMOOTH",
"243 345 LINE",
"237 412 LINE",
"240 439 OFFCURVE",
"241 464 OFFCURVE",
"239 485 CURVE SMOOTH",
"238 496 OFFCURVE",
"233 500 OFFCURVE",
"224 500 CURVE SMOOTH",
"99 500 LINE SMOOTH",
"89 500 OFFCURVE",
"84 495 OFFCURVE",
"84 485 CURVE SMOOTH",
"81 450 OFFCURVE",
"77 413 OFFCURVE",
"70 369 CURVE SMOOTH",
"-16 -170 LINE SMOOTH",
"-17 -179 OFFCURVE",
"-12 -185 OFFCURVE",
"-2 -185 CURVE SMOOTH"
);
}
);
width = 536;
},
{
anchors = (
{
name = bottom;
position = "{223, 0}";
},
{
name = top;
position = "{299, 478}";
}
);
layerId = "8E001827-4555-4882-9710-42A9586BB804";
paths = (
{
closed = 1;
nodes = (
"357 -12 OFFCURVE",
"423 42 OFFCURVE",
"443 160 CURVE SMOOTH",
"471 329 LINE SMOOTH",
"489 435 OFFCURVE",
"450 490 OFFCURVE",
"364 490 CURVE SMOOTH",
"292 490 OFFCURVE",
"222 453 OFFCURVE",
"134 371 CURVE",
"131 349 LINE",
"228 437 OFFCURVE",
"295 474 OFFCURVE",
"362 474 CURVE SMOOTH",
"438 474 OFFCURVE",
"472 426 OFFCURVE",
"455 326 CURVE SMOOTH",
"427 160 LINE SMOOTH",
"409 55 OFFCURVE",
"347 4 OFFCURVE",
"249 4 CURVE SMOOTH",
"190 4 OFFCURVE",
"135 20 OFFCURVE",
"80 53 CURVE",
"77 36 LINE",
"133 5 OFFCURVE",
"194 -12 OFFCURVE",
"248 -12 CURVE SMOOTH"
);
},
{
closed = 1;
nodes = (
"46 -185 LINE SMOOTH",
"49 -185 OFFCURVE",
"50 -185 OFFCURVE",
"51 -181 CURVE SMOOTH",
"136 359 LINE",
"138 368 LINE",
"144 406 OFFCURVE",
"148 441 OFFCURVE",
"150 475 CURVE SMOOTH",
"150 478 OFFCURVE",
"149 478 OFFCURVE",
"147 478 CURVE SMOOTH",
"137 478 LINE SMOOTH",
"135 478 OFFCURVE",
"134 477 OFFCURVE",
"134 475 CURVE SMOOTH",
"132 441 OFFCURVE",
"128 404 OFFCURVE",
"122 368 CURVE SMOOTH",
"35 -181 LINE SMOOTH",
"34 -185 OFFCURVE",
"36 -185 OFFCURVE",
"39 -185 CURVE SMOOTH"
);
}
);
width = 522;
},
{
anchors = (
{
name = bottom;
position = "{224, 0}";
},
{
name = top;
position = "{302, 488}";
}
);
layerId = "0382B793-66DA-492C-99CF-A998862EA4E0";
paths = (
{
closed = 1;
nodes = (
"372 -12 OFFCURVE",
"441 58 OFFCURVE",
"462 187 CURVE SMOOTH",
"482 312 LINE SMOOTH",
"502 437 OFFCURVE",
"461 500 OFFCURVE",
"365 500 CURVE SMOOTH",
"298 500 OFFCURVE",
"243 470 OFFCURVE",
"173 412 CURVE",
"161 332 LINE",
"236 396 OFFCURVE",
"288 425 OFFCURVE",
"335 425 CURVE SMOOTH",
"390 425 OFFCURVE",
"412 389 OFFCURVE",
"399 308 CURVE SMOOTH",
"381 196 LINE SMOOTH",
"366 105 OFFCURVE",
"327 63 OFFCURVE",
"255 63 CURVE SMOOTH",
"215 63 OFFCURVE",
"162 75 OFFCURVE",
"128 97 CURVE",
"120 25 LINE",
"149 2 OFFCURVE",
"210 -12 OFFCURVE",
"262 -12 CURVE SMOOTH"
);
},
{
closed = 1;
nodes = (
"88 -185 LINE SMOOTH",
"94 -185 OFFCURVE",
"98 -181 OFFCURVE",
"99 -175 CURVE SMOOTH",
"185 365 LINE",
"190 415 LINE",
"193 425 OFFCURVE",
"193 464 OFFCURVE",
"193 478 CURVE SMOOTH",
"193 485 OFFCURVE",
"189 488 OFFCURVE",
"183 488 CURVE SMOOTH",
"124 488 LINE SMOOTH",
"118 488 OFFCURVE",
"112 484 OFFCURVE",
"112 476 CURVE SMOOTH",
"111 447 OFFCURVE",
"108 407 OFFCURVE",
"103 375 CURVE SMOOTH",
"16 -175 LINE SMOOTH",
"15 -181 OFFCURVE",
"18 -185 OFFCURVE",
"24 -185 CURVE SMOOTH"
);
}
);
width = 525;
}
);
leftKerningGroup = n;
leftMetricsKey = n;
rightKerningGroup = o;
rightMetricsKey = "=o+2";
unicode = 0070;
},
